SplineFontDB: 3.0
FontName: GTRS_RtpB
FullName: GOSTRUS type B
FamilyName: GOSTRUS
Weight: type_B
Copyright: Copyright(c)2016,Yuriy & Tatyana Krivoguz. Created by Yuriy & Tatyana Krivoguz, with FontForge 2.0 (http://fontforge.sf.net)
UComments: "2016-2-1: Created with FontForge (http://fontforge.org)+AAoEEwQwBEAEPQQ4BEIEQwRABDAA +BD8EPgAA +BBMEHgQhBCIA 2.304-81, +BDoEPgQ9BEYENQQyBEsENQAA +BDIESwQ/BD4EOwQ9BDUEPQRL +BDgEPAQ4BEIEMARGBDgENQQ5 +BEgEOARABD4EOgQ+BDMEPgAA +BD8ENQRABDAA, +BD4EQgQ0BDUEOwRMBD0ESwQ1 +BD0EMAQxBD4EQARL +BEAEMARBBEgEOARABDUEPQRL."
FontLog: "2016-2-1: Created with FontForge (http://fontforge.org) +AAoA-9-2-2016: Created with FontForge: GOSTRUS type B : V1.0+AAoA-29-2-2016: Created with FontForge: GOSTRUS type B : V2.0 "
Version: 02.00
ItalicAngle: 0
UnderlinePosition: -64
UnderlineWidth: 127
Ascent: 1663
Descent: 385
InvalidEm: 0
sfntRevision: 0x00010000
LayerCount: 2
Layer: 0 1 "+BBcEMAQ0BD0EOAQ5 +BD8EOwQwBD0A" 1
Layer: 1 1 "+BB8ENQRABDUENAQ9BDgEOQAA +BD8EOwQwBD0A" 0
XUID: [1021 894 1805457016 11022]
StyleMap: 0x0040
FSType: 0
OS2Version: 0
OS2_WeightWidthSlopeOnly: 0
OS2_UseTypoMetrics: 1
CreationTime: 1454308552
ModificationTime: 1456789887
PfmFamily: 33
TTFWeight: 400
TTFWidth: 5
LineGap: 0
VLineGap: 0
OS2TypoAscent: 1663
OS2TypoAOffset: 0
OS2TypoDescent: -385
OS2TypoDOffset: 0
OS2TypoLinegap: 126
OS2WinAscent: 1693
OS2WinAOffset: 0
OS2WinDescent: 388
OS2WinDOffset: 0
HheadAscent: 1693
HheadAOffset: 0
HheadDescent: -388
HheadDOffset: 0
OS2CapHeight: 1279
OS2XHeight: 897
OS2FamilyClass: 2053
OS2Vendor: 'YuTa'
MarkAttachClasses: 1
DEI: 91125
ShortTable: maxp 16
  0
  0
  0
  0
  0
  0
  0
  2
  1
  2
  22
  0
  256
  0
  0
  0
EndShort
TtTable: prep
PUSHW_1
 511
SCANCTRL
PUSHB_1
 1
SCANTYPE
SVTCA[y-axis]
MPPEM
PUSHB_1
 8
LT
IF
PUSHB_2
 1
 1
INSTCTRL
EIF
PUSHB_2
 70
 6
CALL
IF
POP
PUSHB_1
 16
EIF
MPPEM
PUSHB_1
 20
GT
IF
POP
PUSHB_1
 128
EIF
SCVTCI
PUSHB_1
 6
CALL
NOT
IF
EIF
PUSHB_1
 20
CALL
EndTTInstrs
TtTable: fpgm
PUSHB_1
 0
FDEF
PUSHB_1
 0

StartChar: exclam
Encoding: 33 33 1
Width: 382
VWidth: 2175
GlyphClass: 2
Flags: W
HStem: 0 127<127 255> 1259 20G<144 238>
VStem: 127 128<0 127 321 1279>
LayerCount: 2
Fore
SplineSet
221 0 m 2,0,-1
 161 0 l 2,1,2
 127 0 127 0 127 34 c 2,3,-1
 127 93 l 2,4,5
 127 127 127 127 161 127 c 2,6,-1
 221 127 l 2,7,8
 255 127 255 127 255 93 c 2,9,-1
 255 34 l 2,10,11
 255 0 255 0 221 0 c 2,0,-1
127 355 m 2,12,-1
 127 1245 l 2,13,14
 127 1279 127 1279 161 1279 c 2,15,-1
 221 1279 l 2,16,17
 255 1279 255 1279 255 1245 c 2,18,-1
 255 355 l 2,19,20
 255 321 255 321 221 321 c 2,21,-1
 161 321 l 2,22,23
 127 321 127 321 127 355 c 2,12,-1
EndSplineSet
Validated: 1
EndChar

StartChar: quotedbl
Encoding: 34 34 2
Width: 639
VWidth: 2175
GlyphClass: 2
Flags: W
HStem: 897 382<127 255 385 512>
VStem: 127 128<897 1279> 385 127<897 1279>
LayerCount: 2
Fore
SplineSet
385 931 m 2,0,-1
 385 1245 l 2,1,2
 385 1279 385 1279 419 1279 c 2,3,-1
 478 1279 l 2,4,5
 512 1279 512 1279 512 1245 c 2,6,-1
 512 931 l 2,7,8
 512 897 512 897 478 897 c 2,9,-1
 419 897 l 2,10,11
 385 897 385 897 385 931 c 2,0,-1
127 931 m 2,12,-1
 127 1245 l 2,13,14
 127 1279 127 1279 161 1279 c 2,15,-1
 221 1279 l 2,16,17
 255 1279 255 1279 255 1245 c 2,18,-1
 255 931 l 2,19,20
 255 897 255 897 221 897 c 2,21,-1
 161 897 l 2,22,23
 127 897 127 897 127 931 c 2,12,-1
EndSplineSet
Validated: 1
EndChar

StartChar: numbersign
Encoding: 35 35 3
Width: 1278
VWidth: 2175
GlyphClass: 2
Flags: W
HStem: 321 127<127 354.824 499.344 738.984 884.266 1151> 831 129<127 396.824 542.125 781.556 926 1151>
DStem2: 323 -87 450 -98 0.0842829 0.996442<-32.2231 405.715 551.232 917.519 1065.05 1504.25> 707 -87 835 -98 0.082933 0.996555<-32.365 405.834 551.058 917.643 1064.85 1504.4>
LayerCount: 2
Fore
SplineSet
1151 926 m 2,0,-1
 1151 865 l 2,1,2
 1151 831 1151 831 1117 831 c 2,3,-1
 928 831 l 2,4,5
 911 831 911 831 911 816 c 2,6,-1
 882 465 l 2,7,8
 882 448 882 448 899 448 c 2,9,-1
 1117 448 l 2,10,11
 1151 448 1151 448 1151 414 c 2,12,-1
 1151 355 l 2,13,14
 1151 321 1151 321 1117 321 c 2,15,-1
 886 321 l 2,16,17
 869 321 869 321 869 304 c 2,18,-1
 835 -98 l 2,19,20
 833 -128 833 -128 799 -127 c 2,21,-1
 737 -123 l 2,22,23
 707 -121 707 -121 707 -87 c 2,24,-1
 739 302 l 2,25,26
 739 321 739 321 722 321 c 2,27,-1
 501 321 l 2,28,29
 484 321 484 321 484 304 c 2,30,-1
 450 -98 l 2,31,32
 448 -128 448 -128 414 -127 c 2,33,-1
 355 -123 l 2,34,35
 323 -121 323 -121 323 -87 c 2,36,-1
 355 304 l 2,37,38
 355 321 355 321 338 321 c 2,39,-1
 161 321 l 2,40,41
 127 321 127 321 127 355 c 2,42,-1
 127 414 l 2,43,44
 127 448 127 448 161 448 c 2,45,-1
 353 448 l 2,46,47
 368 448 368 448 370 463 c 2,48,-1
 397 814 l 2,49,50
 397 831 397 831 380 831 c 2,51,-1
 161 831 l 2,52,53
 127 831 127 831 127 865 c 2,54,-1
 127 926 l 2,55,56
 127 960 127 960 161 960 c 2,57,-1
 395 960 l 2,58,59
 410 960 410 960 412 975 c 2,60,-1
 446 1379 l 2,61,62
 446 1415 446 1415 482 1411 c 2,63,-1
 542 1404 l 2,64,65
 574 1400 574 1400 574 1368 c 2,66,-1
 540 977 l 2,67,68
 540 971 540 971 546 965.5 c 128,-1,69
 552 960 552 960 557 960 c 2,70,-1
 780 960 l 2,71,72
 797 960 797 960 797 975 c 2,73,-1
 829 1379 l 2,74,75
 833 1413 833 1413 867 1411 c 2,76,-1
 926 1404 l 2,77,78
 956 1402 956 1402 956 1368 c 2,79,-1
 924 977 l 2,80,81
 924 971 924 971 930.5 965.5 c 128,-1,82
 937 960 937 960 941 960 c 2,83,-1
 1117 960 l 2,84,85
 1151 960 1151 960 1151 926 c 2,0,-1
765 831 m 2,86,-1
 544 831 l 2,87,88
 527 831 527 831 527 816 c 2,89,-1
 497 465 l 2,90,91
 497 448 497 448 514 448 c 2,92,-1
 735 448 l 2,93,94
 752 448 752 448 752 463 c 2,95,-1
 782 814 l 2,96,97
 782 831 782 831 765 831 c 2,86,-1
EndSplineSet
Validated: 1
EndChar

StartChar: dollar
Encoding: 36 36 4
Width: 896
VWidth: 2175
GlyphClass: 2
Flags: W
HStem: 0 21G<402 495> 1259 20G<402 495>
VStem: 127 128<829.557 985.534> 385 127<0 137.671 274.543 499.905 778.003 1007 1139.86 1279> 642 127<293.951 449.301>
DStem2: 321 812 244 707 0.810422 -0.585847<-111.242 61.1236 343.788 522.099>
LayerCount: 2
Fore
SplineSet
321 812 m 2,0,-1
 363 780 l 2,1,2
 367 778 367 778 372 778 c 0,3,4
 385 778 385 778 385 790 c 2,5,-1
 385 1003 l 2,6,7
 385 1020 385 1020 368 1016 c 0,8,9
 255 982 255 982 255 916 c 0,10,11
 255 878 255 878 268 860 c 128,-1,12
 281 842 281 842 321 812 c 2,0,-1
576 467 m 2,13,-1
 531 499 l 2,14,15
 527 503 527 503 519.5 500 c 128,-1,16
 512 497 512 497 512 489 c 2,17,-1
 512 276 l 2,18,19
 512 265 512 265 525 266 c 0,20,21
 542 266 542 266 597 293 c 0,22,23
 642 323 642 323 642 363 c 0,24,25
 642 422 642 422 576 467 c 2,13,-1
512 1245 m 2,26,-1
 512 1162 l 2,27,28
 512 1147 512 1147 527 1145 c 0,29,30
 584 1134 584 1134 635 1120 c 0,31,32
 707 1092 707 1092 746 1056 c 0,33,34
 757 1045 757 1045 756 1030 c 256,35,36
 756 1015 756 1015 744 1005 c 2,37,-1
 695 967 l 2,38,39
 674 952 674 952 652 967 c 0,40,41
 605 1001 605 1001 527 1016 c 0,42,43
 521 1018 521 1018 516.5 1012.5 c 128,-1,44
 512 1007 512 1007 512 1003 c 2,45,-1
 512 690 l 2,46,47
 512 671 512 671 527 663 c 2,48,-1
 650 571 l 2,49,50
 769 484 769 484 769 363 c 0,51,52
 769 274 769 274 698 210.5 c 128,-1,53
 627 147 627 147 527 134 c 0,54,55
 512 132 512 132 512 117 c 2,56,-1
 512 34 l 2,57,58
 512 0 512 0 478 0 c 2,59,-1
 419 0 l 2,60,61
 385 0 385 0 385 34 c 2,62,-1
 385 117 l 2,63,64
 385 132 385 132 370 134 c 0,65,66
 226 151 226 151 151 223 c 0,67,68
 121 253 121 253 153 276 c 2,69,-1
 202 312 l 2,70,71
 223 325 223 325 242 312 c 0,72,73
 293 267 293 267 370 263 c 0,74,75
 385 263 385 263 385 276 c 2,76,-1
 385 591 l 2,77,78
 385 606 385 606 370 618 c 2,79,-1
 244 707 l 2,80,81
 127 796 127 796 127 916 c 0,82,83
 127 1007 127 1007 198.5 1068.5 c 128,-1,84
 270 1130 270 1130 370 1145 c 0,85,86
 385 1147 385 1147 385 1162 c 2,87,-1
 385 1245 l 2,88,89
 385 1279 385 1279 419 1279 c 2,90,-1
 478 1279 l 2,91,92
 512 1279 512 1279 512 1245 c 2,26,-1
EndSplineSet
Validated: 1
EndChar

StartChar: percent
Encoding: 37 37 5
Width: 1790
VWidth: 2175
GlyphClass: 2
Flags: W
HStem: 0 127<1265.67 1484.97> 448 128<1263.43 1486.69> 703 128<305.493 524.027> 1151 128<307.356 526.272>
VStem: 127 128<881.493 1099.79> 576 127<881.493 1101.54> 1088 129<175.913 399.858> 1538 125<178.566 396.105>
DStem2: 467 51 599 23 0.514913 0.857242<-9.73506 1459.07>
LayerCount: 2
Fore
SplineSet
416 703 m 128,-1,1
 297 703 297 703 212 788 c 128,-1,2
 127 873 127 873 127 992 c 128,-1,3
 127 1111 127 1111 212 1195 c 128,-1,4
 297 1279 297 1279 416 1279 c 256,5,6
 535 1279 535 1279 620 1196 c 0,7,8
 703 1109 703 1109 703 992 c 0,9,10
 703 873 703 873 619 788 c 128,-1,0
 535 703 535 703 416 703 c 128,-1,1
1377 576 m 0,11,12
 1494 576 1494 576 1578.5 491 c 128,-1,13
 1663 406 1663 406 1663 289 c 0,14,15
 1663 170 1663 170 1579.5 85 c 128,-1,16
 1496 0 1496 0 1377 0 c 128,-1,17
 1258 0 1258 0 1173 85 c 128,-1,18
 1088 170 1088 170 1088 289 c 128,-1,19
 1088 408 1088 408 1173 492 c 128,-1,20
 1258 576 1258 576 1377 576 c 0,11,12
1377 448 m 0,21,22
 1311 448 1311 448 1262 402 c 0,23,24
 1217 353 1217 353 1217 289 c 0,25,26
 1217 223 1217 223 1262 175 c 128,-1,27
 1307 127 1307 127 1377 127 c 0,28,29
 1441 127 1441 127 1489 174 c 0,30,31
 1538 223 1538 223 1538 289 c 0,32,33
 1538 353 1538 353 1489 402 c 0,34,35
 1441 448 1441 448 1377 448 c 0,21,22
561 0 m 2,36,-1
 497 0 l 2,37,38
 478 0 478 0 467.5 16 c 128,-1,39
 457 32 457 32 467 51 c 2,40,-1
 1192 1258 l 2,41,42
 1205 1279 1205 1279 1232 1279 c 2,43,-1
 1294 1279 l 2,44,45
 1311 1279 1311 1279 1322.5 1262 c 128,-1,46
 1334 1245 1334 1245 1324 1228 c 2,47,-1
 599 23 l 2,48,49
 582 0 582 0 561 0 c 2,36,-1
416 831 m 0,50,51
 480 831 480 831 528 878.5 c 128,-1,52
 576 926 576 926 576 992 c 128,-1,53
 576 1058 576 1058 529 1104.5 c 128,-1,54
 482 1151 482 1151 416.5 1151 c 128,-1,55
 351 1151 351 1151 303 1103.5 c 128,-1,56
 255 1056 255 1056 255 992 c 0,57,58
 255 926 255 926 302.5 878.5 c 128,-1,59
 350 831 350 831 416 831 c 0,50,51
EndSplineSet
Validated: 1
EndChar

StartChar: ampersand
Encoding: 38 38 6
Width: 1151
VWidth: 2175
GlyphClass: 2
Flags: W
HStem: 0 130<357.582 637.272> 1151 128<419.143 603.951>
VStem: 127 128<233.508 505.938> 257 128<917.573 1116.07> 639 126<926.007 1112.84>
DStem2: 263 652 344 554 0.770119 0.6379<-141.876 141.621 288.817 524.344> 408 950 302 877 0.556622 -0.830766<-73.2386 133.082 283.205 729.091 892.665 1086.92> 712 240 741 93 0.733192 0.680022<-206.999 -8.63899 149.648 310.749>
LayerCount: 2
Fore
SplineSet
512 1151 m 256,0,1
 459 1151 459 1151 422 1114 c 128,-1,2
 385 1077 385 1077 385 1024 c 0,3,4
 385 984 385 984 408 950 c 2,5,-1
 474 850 l 2,6,7
 487 835 487 835 499 848 c 2,8,-1
 595 926 l 2,9,10
 640 960 640 960 639 1024 c 0,11,12
 639 1077 639 1077 602 1114 c 128,-1,13
 565 1151 565 1151 512 1151 c 256,0,1
255 368 m 0,14,15
 255 272 255 272 326 201 c 128,-1,16
 397 130 397 130 495 130 c 0,17,18
 540 130 540 130 582 144 c 0,19,20
 616 155 616 155 656 189 c 2,21,-1
 712 240 l 2,22,23
 723 251 723 251 714 263 c 2,24,-1
 467 631 l 2,25,26
 456 646 456 646 442 635 c 2,27,-1
 344 554 l 2,28,29
 304 520 304 520 278 472 c 0,30,31
 255 425 255 425 255 368 c 0,14,15
512 1279 m 0,32,33
 618 1279 618 1279 691.5 1203.5 c 128,-1,34
 765 1128 765 1128 765 1024 c 0,35,36
 765 967 765 967 744 916 c 0,37,38
 723 867 723 867 676 829 c 2,39,-1
 567 737 l 2,40,41
 556 729 556 729 565 716 c 2,42,-1
 805 355 l 2,43,44
 809 349 809 349 819 348.5 c 128,-1,45
 829 348 829 348 833 353 c 2,46,-1
 916 429 l 2,47,48
 939 452 939 452 962 427 c 2,49,-1
 1003 385 l 2,50,51
 1026 360 1026 360 1003 336 c 2,52,-1
 901 240 l 2,53,54
 888 229 888 229 897 219 c 2,55,-1
 1009 53 l 2,56,57
 1020 32 1020 32 1011.5 16 c 128,-1,58
 1003 0 1003 0 982 0 c 2,59,-1
 916 0 l 2,60,61
 893 0 893 0 877 21 c 2,62,-1
 805 127 l 2,63,64
 792 142 792 142 780 130 c 2,65,-1
 741 93 l 2,66,67
 633 0 633 0 495 0 c 0,68,69
 340 0 340 0 236 108 c 0,70,71
 128 216 128 216 127 363 c 0,72,73
 127 442 127 442 164 527 c 0,74,75
 200 601 200 601 263 652 c 2,76,-1
 374 744 l 2,77,78
 385 752 385 752 376 765 c 2,79,-1
 302 877 l 2,80,81
 257 934 257 934 257 1024 c 0,82,83
 257 1130 257 1130 332.5 1204.5 c 128,-1,84
 408 1279 408 1279 512 1279 c 0,32,33
EndSplineSet
Validated: 33
EndChar

StartChar: quotesingle
Encoding: 39 39 7
Width: 382
VWidth: 2175
GlyphClass: 2
Flags: W
HStem: 894 385<127 255>
VStem: 127 128<894 1279>
LayerCount: 2
Fore
SplineSet
127 931 m 2,0,-1
 127 1245 l 2,1,2
 127 1279 127 1279 161 1279 c 2,3,-1
 221 1279 l 2,4,5
 255 1279 255 1279 255 1245 c 2,6,-1
 255 931 l 2,7,8
 255 895 255 895 221 894 c 2,9,-1
 161 894 l 2,10,11
 127 895 127 895 127 931 c 2,0,-1
EndSplineSet
Validated: 1
EndChar

StartChar: parenleft
Encoding: 40 40 8
Width: 497
VWidth: 2175
GlyphClass: 2
Flags: W
VStem: 127 130<173.227 1098.29> 246 126<-122.219 30.8994 1240.25 1404.39>
LayerCount: 2
Fore
SplineSet
368 -72 m 0,0,1
 372 -85 372 -85 372 -87 c 0,2,3
 372 -106 372 -106 346 -115 c 2,4,-1
 291 -136 l 2,5,6
 287 -138 287 -138 278 -138 c 0,7,8
 257 -138 257 -138 246 -115 c 0,9,10
 201 6 201 6 159 227 c 0,11,12
 127 425 127 425 127 635.5 c 128,-1,13
 127 846 127 846 159 1047 c 0,14,15
 201 1259 201 1259 246 1396 c 0,16,17
 259 1419 259 1419 278 1419 c 0,18,19
 286 1419 286 1419 291 1417 c 2,20,-1
 346 1398 l 2,21,22
 371 1390 371 1390 372 1370 c 0,23,24
 372 1368 372 1368 368 1355 c 0,25,26
 258 1024 258 1024 257 629 c 0,27,28
 257 444 257 444 287 249 c 0,29,30
 317 72 317 72 368 -72 c 0,0,1
EndSplineSet
Validated: 1
Colour: ff00
EndChar

StartChar: parenright
Encoding: 41 41 9
Width: 497
VWidth: 2175
GlyphClass: 2
Flags: W
VStem: 242 130<167.333 1101.57>
LayerCount: 2
Fore
SplineSet
132 -72 m 0,0,1
 183 72 183 72 212 249 c 0,2,3
 242 444 242 444 242 629 c 0,4,5
 242 1024 242 1024 132 1355 c 0,6,7
 128 1368 128 1368 127 1370 c 0,8,9
 127 1389 127 1389 153 1398 c 2,10,-1
 208 1417 l 2,11,12
 212 1419 212 1419 221 1419 c 0,13,14
 242 1419 242 1419 253 1396 c 0,15,16
 298 1260 298 1260 340 1047 c 0,17,18
 372 845 372 845 372 635 c 128,-1,19
 372 425 372 425 340 227 c 0,20,21
 298 6 298 6 253 -115 c 0,22,23
 242 -138 242 -138 221 -138 c 0,24,25
 213 -138 213 -138 208 -136 c 2,26,-1
 153 -115 l 2,27,28
 128 -107 128 -107 127 -87 c 0,29,30
 128 -85 128 -85 132 -72 c 0,0,1
EndSplineSet
Validated: 1
EndChar

StartChar: asterisk
Encoding: 42 42 10
Width: 766
VWidth: 2175
GlyphClass: 2
Flags: W
HStem: 960 128<127 260.875 506.125 639>
VStem: 127 512<960 1088>
DStem2: 217 863 329 799 0.50219 0.864757<-32.9664 100.243 345.438 478.144> 329 1247 219 1183 0.49881 -0.866711<-34.3338 88.4181 343.259 476.724>
LayerCount: 2
Fore
SplineSet
161 1088 m 2,0,-1
 251 1088 l 2,1,2
 270 1088 270 1088 263 1107 c 2,3,-1
 219 1183 l 2,4,5
 211 1196 211 1196 215 1210 c 128,-1,6
 219 1224 219 1224 229 1230 c 2,7,-1
 283 1260 l 2,8,9
 308 1279 308 1279 329 1247 c 2,10,-1
 374 1171 l 2,11,12
 376 1165 376 1165 383.5 1165.5 c 128,-1,13
 391 1166 391 1166 395 1171 c 2,14,-1
 440 1247 l 2,15,16
 455 1279 455 1279 487 1260 c 2,17,-1
 537 1230 l 2,18,19
 565 1215 565 1215 550 1183 c 2,20,-1
 506 1107 l 2,21,22
 502 1101 502 1101 506 1094.5 c 128,-1,23
 510 1088 510 1088 516 1088 c 2,24,-1
 605 1088 l 2,25,26
 639 1088 639 1088 639 1054 c 2,27,-1
 639 994 l 2,28,29
 639 960 639 960 605 960 c 2,30,-1
 516 960 l 2,31,32
 510 960 510 960 505.5 954 c 128,-1,33
 501 948 501 948 506 941 c 2,34,-1
 550 863 l 2,35,36
 565 831 565 831 537 816 c 2,37,-1
 487 788 l 2,38,39
 457 769 457 769 440 799 c 2,40,-1
 395 877 l 2,41,42
 391 881 391 881 383.5 882.5 c 128,-1,43
 376 884 376 884 374 877 c 2,44,-1
 329 799 l 1,45,46
 301 771 301 771 283 786 c 2,47,-1
 229 818 l 2,48,49
 199 833 199 833 217 863 c 2,50,-1
 261 941 l 2,51,52
 265 947 265 947 261 953.5 c 128,-1,53
 257 960 257 960 251 960 c 2,54,-1
 161 960 l 2,55,56
 127 960 127 960 127 994 c 2,57,-1
 127 1054 l 2,58,59
 127 1088 127 1088 161 1088 c 2,0,-1
EndSplineSet
Validated: 1
EndChar

StartChar: plus
Encoding: 43 43 11
Width: 896
VWidth: 2175
GlyphClass: 2
Flags: W
HStem: 385 127<127 385 512 767>
VStem: 385 127<127 385 512 767>
LayerCount: 2
Fore
SplineSet
385 161 m 2,0,-1
 385 368 l 2,1,2
 385 385 385 385 368 385 c 2,3,-1
 161 385 l 2,4,5
 127 385 127 385 127 419 c 2,6,-1
 127 478 l 2,7,8
 127 512 127 512 161 512 c 2,9,-1
 368 512 l 2,10,11
 385 512 385 512 385 529 c 2,12,-1
 385 733 l 2,13,14
 385 767 385 767 419 767 c 2,15,-1
 478 767 l 2,16,17
 512 767 512 767 512 733 c 2,18,-1
 512 529 l 2,19,20
 512 512 512 512 529 512 c 2,21,-1
 733 512 l 2,22,23
 767 512 767 512 767 478 c 2,24,-1
 767 419 l 2,25,26
 767 385 767 385 733 385 c 2,27,-1
 529 385 l 2,28,29
 512 385 512 385 512 368 c 2,30,-1
 512 161 l 2,31,32
 512 127 512 127 478 127 c 2,33,-1
 419 127 l 2,34,35
 385 127 385 127 385 161 c 2,0,-1
EndSplineSet
Validated: 1
EndChar

StartChar: comma
Encoding: 44 44 12
Width: 414
VWidth: 2175
GlyphClass: 2
Flags: W
HStem: -255 382<156.516 236.484>
VStem: 106 181
DStem2: 106 -215 234 -225 0.165922 0.986139<-26.3928 353.394>
LayerCount: 2
Fore
SplineSet
191 127 m 2,0,-1
 253 127 l 2,1,2
 268 127 268 127 279.5 114.5 c 128,-1,3
 291 102 291 102 287 89 c 2,4,-1
 234 -225 l 2,5,6
 230 -255 230 -255 200 -255 c 2,7,-1
 140 -255 l 2,8,9
 125 -255 125 -255 114.5 -243.5 c 128,-1,10
 104 -232 104 -232 106 -215 c 2,11,-1
 159 100 l 2,12,13
 161 127 161 127 191 127 c 2,0,-1
EndSplineSet
Validated: 1
EndChar

StartChar: hyphen
Encoding: 45 45 13
Width: 894
VWidth: 2175
GlyphClass: 2
Flags: W
HStem: 385 127<127 767>
VStem: 127 640<385 512>
LayerCount: 2
Fore
SplineSet
161 512 m 2,0,-1
 733 512 l 2,1,2
 767 512 767 512 767 478 c 2,3,-1
 767 419 l 2,4,5
 767 385 767 385 733 385 c 2,6,-1
 161 385 l 2,7,8
 127 385 127 385 127 419 c 2,9,-1
 127 478 l 2,10,11
 127 512 127 512 161 512 c 2,0,-1
EndSplineSet
Validated: 1
EndChar

StartChar: period
Encoding: 46 46 14
Width: 384
VWidth: 2175
GlyphClass: 2
Flags: W
HStem: 0 127<127 255>
VStem: 127 128<0 127>
LayerCount: 2
Fore
SplineSet
221 0 m 2,0,-1
 161 0 l 2,1,2
 127 0 127 0 127 34 c 2,3,-1
 127 93 l 2,4,5
 127 127 127 127 161 127 c 2,6,-1
 221 127 l 2,7,8
 255 127 255 127 255 93 c 2,9,-1
 255 34 l 2,10,11
 255 0 255 0 221 0 c 2,0,-1
EndSplineSet
Validated: 1
EndChar

StartChar: slash
Encoding: 47 47 15
Width: 871
VWidth: 2175
GlyphClass: 2
Flags: W
DStem2: 684 1651 805 1610 0.316381 0.948632<-1967.93 15.8226>
LayerCount: 2
Fore
SplineSet
66 -202 m 2,0,-1
 684 1651 l 2,1,2
 690 1674 690 1674 712 1674 c 0,3,4
 720 1674 720 1674 727 1672 c 2,5,-1
 784 1655 l 2,6,7
 807 1649 807 1649 807 1627 c 0,8,9
 807 1616 807 1616 805 1610 c 2,10,-1
 187 -242 l 2,11,12
 179 -265 179 -265 157 -266 c 0,13,14
 149 -266 149 -266 144 -263 c 2,15,-1
 87 -244 l 2,16,17
 64 -236 64 -236 64 -217 c 0,18,19
 64 -208 64 -208 66 -202 c 2,0,-1
EndSplineSet
Validated: 1
EndChar

StartChar: zero
Encoding: 48 48 16
Width: 894
VWidth: 2175
GlyphClass: 2
Flags: W
HStem: 0 127<326.664 567.812> 1151 128<325.352 569.803>
VStem: 127 128<199.211 1078.84> 639 128<198.375 1082.38>
LayerCount: 2
Fore
SplineSet
448 1279 m 0,0,1
 578 1279 578 1279 672.5 1185.5 c 128,-1,2
 767 1092 767 1092 767 960 c 2,3,-1
 767 321 l 2,4,5
 767 189 767 189 673.5 94.5 c 128,-1,6
 580 0 580 0 448.5 0 c 128,-1,7
 317 0 317 0 222 94.5 c 128,-1,8
 127 189 127 189 127 321 c 2,9,-1
 127 960 l 2,10,11
 127 1092 127 1092 221.5 1185.5 c 128,-1,12
 316 1279 316 1279 448 1279 c 0,0,1
448.5 127 m 128,-1,14
 527 127 527 127 583 184.5 c 128,-1,15
 639 242 639 242 639 321 c 2,16,-1
 639 960 l 2,17,18
 639 1039 639 1039 583 1095 c 128,-1,19
 527 1151 527 1151 448.5 1151 c 128,-1,20
 370 1151 370 1151 312.5 1095 c 128,-1,21
 255 1039 255 1039 255 960 c 2,22,-1
 255 321 l 2,23,24
 255 242 255 242 312.5 184.5 c 128,-1,13
 370 127 370 127 448.5 127 c 128,-1,14
EndSplineSet
Validated: 1
EndChar

StartChar: one
Encoding: 49 49 17
Width: 618
VWidth: 2175
GlyphClass: 2
Flags: W
HStem: 0 21G<380 474> 1259 20G<352.5 474>
VStem: 363 128<0 1071.39>
DStem2: 115 992 215 911 0.627808 0.778368<-24.7442 215.071>
LayerCount: 2
Fore
SplineSet
363 34 m 2,0,-1
 363 1062 l 2,1,2
 363 1068 363 1068 359 1071.5 c 128,-1,3
 355 1075 355 1075 349.5 1074 c 128,-1,4
 344 1073 344 1073 340 1069 c 2,5,-1
 215 911 l 2,6,7
 194 883 194 883 166 907 c 2,8,-1
 119 943 l 2,9,10
 108 954 108 954 106 967 c 0,11,12
 106 982 106 982 115 992 c 2,13,-1
 336 1266 l 2,14,15
 344 1279 344 1279 361 1279 c 2,16,-1
 457 1279 l 2,17,18
 491 1279 491 1279 491 1245 c 2,19,-1
 491 34 l 2,20,21
 491 0 491 0 457 0 c 2,22,-1
 397 0 l 2,23,24
 363 0 363 0 363 34 c 2,0,-1
EndSplineSet
Validated: 1
EndChar

StartChar: two
Encoding: 50 50 18
Width: 894
VWidth: 2175
GlyphClass: 2
Flags: W
HStem: 0 127<292.095 767> 1151 128<325.161 570.334>
VStem: 639 128<833.625 1082.29>
DStem2: 136 140 295 149 0.55201 0.833838<82.1019 976.203>
LayerCount: 2
Fore
SplineSet
767 93 m 2,0,-1
 767 34 l 2,1,2
 767 0 767 0 733 0 c 2,3,-1
 161 0 l 2,4,5
 127 0 127 0 127 34 c 2,6,-1
 127 115 l 2,7,8
 127 130 127 130 136 140 c 2,9,-1
 610 856 l 2,10,11
 640 894 640 894 639 960 c 0,12,13
 639 1034 639 1034 584 1096 c 1,14,15
 522 1151 522 1151 448 1151 c 0,16,17
 384 1151 384 1151 335.5 1115 c 128,-1,18
 287 1079 287 1079 268 1028 c 0,19,20
 257 998 257 998 229 1007 c 2,21,-1
 170 1020 l 2,22,23
 155 1022 155 1022 147.5 1034.5 c 128,-1,24
 140 1047 140 1047 144 1062 c 0,25,26
 178 1155 178 1155 258 1217 c 128,-1,27
 338 1279 338 1279 448 1279 c 0,28,29
 580 1279 580 1279 673.5 1185.5 c 128,-1,30
 767 1092 767 1092 767 960 c 0,31,32
 767 862 767 862 716 786 c 2,33,-1
 295 149 l 2,34,35
 289 143 289 143 292 135 c 128,-1,36
 295 127 295 127 304 127 c 2,37,-1
 733 127 l 2,38,39
 767 127 767 127 767 93 c 2,0,-1
EndSplineSet
Validated: 33
EndChar

StartChar: three
Encoding: 51 51 19
Width: 894
VWidth: 2175
GlyphClass: 2
Flags: W
HStem: 0 127<127 566.842> 639 128<255 568.312> 1151 128<127 569.125>
VStem: 639 128<197.335 570.25 837.566 1082.33>
LayerCount: 2
Fore
SplineSet
767 448 m 2,0,-1
 767 321 l 2,1,2
 767 187 767 187 673.5 93.5 c 128,-1,3
 580 0 580 0 448 0 c 2,4,-1
 161 0 l 2,5,6
 127 0 127 0 127 34 c 2,7,-1
 127 93 l 2,8,9
 127 127 127 127 161 127 c 2,10,-1
 448 127 l 2,11,12
 527 127 527 127 583 184.5 c 128,-1,13
 639 242 639 242 639 321 c 2,14,-1
 639 448 l 2,15,16
 639 522 639 522 584 584 c 1,17,18
 522 639 522 639 448 639 c 2,19,-1
 289 639 l 2,20,21
 255 639 255 639 255 673 c 2,22,-1
 255 733 l 2,23,24
 255 767 255 767 289 767 c 2,25,-1
 448 767 l 2,26,27
 527 767 527 767 583 824.5 c 128,-1,28
 639 882 639 882 639 960 c 0,29,30
 639 1034 639 1034 584 1096 c 1,31,32
 522 1151 522 1151 448 1151 c 2,33,-1
 161 1151 l 2,34,35
 127 1151 127 1151 127 1185 c 2,36,-1
 127 1245 l 2,37,38
 127 1279 127 1279 161 1279 c 2,39,-1
 448 1279 l 2,40,41
 578 1279 578 1279 672.5 1185.5 c 128,-1,42
 767 1092 767 1092 767 960 c 0,43,44
 767 822 767 822 673 733 c 0,45,46
 671 731 671 731 662.5 724.5 c 128,-1,47
 654 718 654 718 651 714 c 128,-1,48
 648 710 648 710 648 703 c 0,49,50
 648 699 648 699 652 695 c 2,51,-1
 673 673 l 2,52,53
 767 580 767 580 767 448 c 2,0,-1
EndSplineSet
Validated: 1
EndChar

StartChar: four
Encoding: 52 52 20
Width: 1002
VWidth: 2175
GlyphClass: 2
Flags: W
HStem: 0 21G<571 665> 255 130<273.031 554 682 875> 1259 20G<386.5 466.5>
VStem: 554 128<0 255 385 639>
DStem2: 106 300 266 399 0.260523 0.965468<134.255 1026.11>
LayerCount: 2
Fore
SplineSet
875 351 m 2,0,-1
 875 289 l 2,1,2
 875 255 875 255 841 255 c 2,3,-1
 699 255 l 2,4,5
 682 255 682 255 682 238 c 2,6,-1
 682 34 l 2,7,8
 682 0 682 0 648 0 c 2,9,-1
 588 0 l 2,10,11
 554 0 554 0 554 34 c 2,12,-1
 554 238 l 2,13,14
 554 255 554 255 537 255 c 2,15,-1
 140 255 l 2,16,17
 127 255 127 255 115.5 270 c 128,-1,18
 104 285 104 285 106 300 c 2,19,-1
 361 1245 l 2,20,21
 367 1279 367 1279 406 1279 c 2,22,-1
 459 1279 l 2,23,24
 474 1279 474 1279 483.5 1265 c 128,-1,25
 493 1251 493 1251 491 1236 c 2,26,-1
 266 399 l 2,27,28
 262 384 262 384 278 385 c 2,29,-1
 537 385 l 2,30,31
 554 385 554 385 554 402 c 2,32,-1
 554 605 l 2,33,34
 554 639 554 639 588 639 c 2,35,-1
 648 639 l 2,36,37
 682 639 682 639 682 605 c 2,38,-1
 682 402 l 2,39,40
 682 385 682 385 699 385 c 2,41,-1
 841 385 l 2,42,43
 875 385 875 385 875 351 c 2,0,-1
EndSplineSet
Validated: 1
EndChar

StartChar: five
Encoding: 53 53 21
Width: 894
VWidth: 2175
GlyphClass: 2
Flags: W
HStem: 0 127<127 566.842> 639 128<255 570.294> 1151 128<255 767>
VStem: 127 128<767 1151> 639 128<197.335 570.294>
LayerCount: 2
Fore
SplineSet
767 1245 m 2,0,-1
 767 1185 l 2,1,2
 767 1151 767 1151 733 1151 c 2,3,-1
 272 1151 l 2,4,5
 255 1151 255 1151 255 1134 c 2,6,-1
 255 784 l 2,7,8
 255 767 255 767 272 767 c 2,9,-1
 448 767 l 2,10,11
 580 767 580 767 673.5 673.5 c 128,-1,12
 767 580 767 580 767 448 c 2,13,-1
 767 321 l 2,14,15
 767 187 767 187 673.5 93.5 c 128,-1,16
 580 0 580 0 448 0 c 2,17,-1
 161 0 l 2,18,19
 127 0 127 0 127 34 c 2,20,-1
 127 93 l 2,21,22
 127 127 127 127 161 127 c 2,23,-1
 448 127 l 2,24,25
 527 127 527 127 583 184.5 c 128,-1,26
 639 242 639 242 639 321 c 2,27,-1
 639 448 l 2,28,29
 639 522 639 522 584 584 c 1,30,31
 522 639 522 639 448 639 c 2,32,-1
 161 639 l 2,33,34
 127 639 127 639 127 673 c 2,35,-1
 127 1245 l 2,36,37
 127 1279 127 1279 161 1279 c 2,38,-1
 733 1279 l 2,39,40
 767 1279 767 1279 767 1245 c 2,0,-1
EndSplineSet
Validated: 1
EndChar

StartChar: six
Encoding: 54 54 22
Width: 896
VWidth: 2175
GlyphClass: 2
Flags: W
HStem: 0 127<327.523 567.745> 639 128<323.777 570.334>
VStem: 127 130<198.375 565.436> 639 128<197.335 570.294>
LayerCount: 2
Fore
SplineSet
448 0 m 256,0,1
 316 0 316 0 221.5 94.5 c 128,-1,2
 127 189 127 189 127 321 c 2,3,-1
 127 448 l 2,4,5
 127 799 127 799 302 1041 c 0,6,7
 408 1185 408 1185 554 1275 c 0,8,9
 584 1292 584 1292 603 1264 c 2,10,-1
 633 1213 l 2,11,12
 652 1185 652 1185 622 1168 c 0,13,14
 480 1068 480 1068 406 967 c 0,15,16
 338 874 338 874 300 754 c 0,17,18
 298 746 298 746 304 740.5 c 128,-1,19
 310 735 310 735 317 739 c 0,20,21
 372 767 372 767 448 767 c 0,22,23
 580 767 580 767 673.5 673.5 c 128,-1,24
 767 580 767 580 767 448 c 2,25,-1
 767 321 l 2,26,27
 767 187 767 187 673.5 93.5 c 128,-1,28
 580 0 580 0 448 0 c 256,0,1
448 639 m 0,29,30
 372 639 372 639 314.5 586 c 128,-1,31
 257 533 257 533 257 459 c 2,32,-1
 257 321 l 2,33,34
 257 240 257 240 313.5 183.5 c 128,-1,35
 370 127 370 127 448.5 127 c 128,-1,36
 527 127 527 127 583 184.5 c 128,-1,37
 639 242 639 242 639 321 c 2,38,-1
 639 448 l 2,39,40
 639 522 639 522 584 584 c 1,41,42
 522 639 522 639 448 639 c 0,29,30
EndSplineSet
Validated: 1
EndChar

StartChar: seven
Encoding: 55 55 23
Width: 896
VWidth: 2175
GlyphClass: 2
Flags: W
HStem: 0 21G<353.5 432.5> 1151 128<255 628.25>
VStem: 127 128<1024 1151>
LayerCount: 2
Fore
SplineSet
127 1058 m 2,0,-1
 127 1245 l 2,1,2
 127 1279 127 1279 161 1279 c 2,3,-1
 733 1279 l 2,4,5
 767 1279 767 1279 767 1245 c 2,6,-1
 767 1137 l 1,7,-1
 459 34 l 2,8,9
 451 0 451 0 414 0 c 2,10,-1
 361 0 l 2,11,12
 346 0 346 0 335.5 11.5 c 128,-1,13
 325 23 325 23 329 42 c 2,14,-1
 633 1134 l 2,15,16
 635 1138 635 1138 631 1144.5 c 128,-1,17
 627 1151 627 1151 620 1151 c 2,18,-1
 272 1151 l 2,19,20
 255 1151 255 1151 255 1134 c 2,21,-1
 255 1058 l 2,22,23
 255 1024 255 1024 221 1024 c 2,24,-1
 161 1024 l 2,25,26
 127 1024 127 1024 127 1058 c 2,0,-1
EndSplineSet
Validated: 1
EndChar

StartChar: eight
Encoding: 56 56 24
Width: 896
VWidth: 2175
GlyphClass: 2
Flags: W
HStem: 0 127<306.208 588.555> 639 128<326.312 568.648> 1151 128<325.45 569.834>
VStem: 96 127<206.682 561.225> 127 130<835.9 1082.42> 639 130<837.566 1081.71> 671 130<204.279 563.73>
LayerCount: 2
Fore
SplineSet
448 1279 m 0,0,1
 578 1279 578 1279 673.5 1184.5 c 128,-1,2
 769 1090 769 1090 769 960 c 0,3,4
 769 822 769 822 673 733 c 0,5,6
 662 722 662 722 661.5 714.5 c 128,-1,7
 661 707 661 707 662 704 c 128,-1,8
 663 701 663 701 675.5 690.5 c 128,-1,9
 688 680 688 680 695 676 c 0,10,11
 801 580 801 580 801 448 c 2,12,-1
 801 321 l 2,13,14
 801 187 801 187 696 93.5 c 128,-1,15
 591 0 591 0 448 0 c 0,16,17
 304 0 304 0 200 92.5 c 128,-1,18
 96 185 96 185 96 321 c 2,19,-1
 96 448 l 2,20,21
 96 582 96 582 202 676 c 0,22,23
 238 708 238 708 238 712 c 128,-1,24
 238 716 238 716 221 733 c 0,25,26
 128 826 128 826 127 960 c 0,27,28
 127 1092 127 1092 221.5 1185.5 c 128,-1,29
 316 1279 316 1279 448 1279 c 0,0,1
448 1151 m 0,30,31
 369 1151 369 1151 313 1095 c 128,-1,32
 257 1039 257 1039 257 960 c 0,33,34
 257 879 257 879 313.5 823 c 128,-1,35
 370 767 370 767 448.5 767 c 128,-1,36
 527 767 527 767 583 824.5 c 128,-1,37
 639 882 639 882 639 960 c 0,38,39
 639 1034 639 1034 584 1096 c 1,40,41
 522 1151 522 1151 448 1151 c 0,30,31
448 127 m 0,42,43
 535 127 535 127 603 182.5 c 128,-1,44
 671 238 671 238 671 321 c 2,45,-1
 671 448 l 2,46,47
 671 531 671 531 604 585 c 128,-1,48
 537 639 537 639 448 639 c 128,-1,49
 359 639 359 639 291 584 c 128,-1,50
 223 529 223 529 223 448 c 2,51,-1
 223 321 l 2,52,53
 223 238 223 238 291 182.5 c 128,-1,54
 359 127 359 127 448 127 c 0,42,43
EndSplineSet
Validated: 1
EndChar

StartChar: nine
Encoding: 57 57 25
Width: 894
VWidth: 2175
GlyphClass: 2
Flags: W
HStem: 512 127<328.923 628.624> 1151 128<325.984 569.709>
VStem: 127 128<713.391 1077.61> 639 128<388.605 512 639 1082.29>
LayerCount: 2
Fore
SplineSet
448 1279 m 0,0,1
 578 1279 578 1279 672.5 1185.5 c 128,-1,2
 767 1092 767 1092 767 960 c 2,3,-1
 767 639 l 2,4,5
 767 212 767 212 463 62 c 0,6,7
 380 20 380 20 323 0 c 0,8,9
 289 -6 289 -6 280 21 c 2,10,-1
 259 76 l 2,11,12
 244 104 244 104 278 121 c 0,13,14
 403 166 403 166 480 227 c 0,15,16
 595 325 595 325 629 497 c 0,17,18
 629 512 629 512 616 512 c 2,19,-1
 448 512 l 2,20,21
 316 512 316 512 221.5 606.5 c 128,-1,22
 127 701 127 701 127 831 c 2,23,-1
 127 960 l 2,24,25
 127 1090 127 1090 221.5 1184.5 c 128,-1,26
 316 1279 316 1279 448 1279 c 0,0,1
448 639 m 2,27,-1
 622 639 l 2,28,29
 639 639 639 639 639 656 c 2,30,-1
 639 960 l 2,31,32
 639 1034 639 1034 584 1096 c 1,33,34
 522 1151 522 1151 448 1151 c 0,35,36
 369 1151 369 1151 312 1094 c 128,-1,37
 255 1037 255 1037 255 960 c 2,38,-1
 255 831 l 2,39,40
 255 755 255 755 312 697 c 128,-1,41
 369 639 369 639 448 639 c 2,27,-1
EndSplineSet
Validated: 1
EndChar

StartChar: colon
Encoding: 58 58 26
Width: 384
VWidth: 2175
GlyphClass: 2
Flags: W
HStem: 0 127<127 257> 512 127<127 257>
VStem: 127 130<0 127 512 639>
LayerCount: 2
Fore
SplineSet
221 0 m 2,0,-1
 161 0 l 2,1,2
 127 0 127 0 127 34 c 2,3,-1
 127 93 l 2,4,5
 127 127 127 127 161 127 c 2,6,-1
 221 127 l 2,7,8
 257 127 257 127 257 93 c 2,9,-1
 257 34 l 2,10,11
 257 0 257 0 221 0 c 2,0,-1
221 512 m 2,12,-1
 161 512 l 2,13,14
 127 512 127 512 127 546 c 2,15,-1
 127 605 l 2,16,17
 127 639 127 639 161 639 c 2,18,-1
 221 639 l 2,19,20
 257 639 257 639 257 605 c 2,21,-1
 257 546 l 2,22,23
 257 512 257 512 221 512 c 2,12,-1
EndSplineSet
Validated: 1
EndChar

StartChar: semicolon
Encoding: 59 59 27
Width: 410
VWidth: 2175
GlyphClass: 2
Flags: W
HStem: 512 127<155 283>
VStem: 155 128<512 639>
DStem2: 102 -215 229 -225 0.165922 0.986139<-26.3928 354.203>
LayerCount: 2
Fore
SplineSet
187 127 m 2,0,-1
 249 127 l 2,1,2
 264 127 264 127 274.5 114.5 c 128,-1,3
 285 102 285 102 283 89 c 2,4,-1
 229 -225 l 2,5,6
 225 -255 225 -255 195 -255 c 2,7,-1
 136 -255 l 2,8,9
 121 -255 121 -255 110.5 -243.5 c 128,-1,10
 100 -232 100 -232 102 -215 c 2,11,-1
 155 100 l 2,12,13
 157 127 157 127 187 127 c 2,0,-1
283 605 m 2,14,-1
 283 546 l 2,15,16
 283 512 283 512 249 512 c 2,17,-1
 189 512 l 2,18,19
 155 512 155 512 155 546 c 2,20,-1
 155 605 l 2,21,22
 155 639 155 639 189 639 c 2,23,-1
 249 639 l 2,24,25
 283 639 283 639 283 605 c 2,14,-1
EndSplineSet
Validated: 1
EndChar

StartChar: less
Encoding: 60 60 28
Width: 883
VWidth: 2175
GlyphClass: 2
Flags: W
HStem: 151 595
VStem: 127 629
DStem2: 144 478 393 459 0.894427 0.447214<202.023 628.094> 393 436 144 416 0.896425 -0.443195<-12.1629 413.775>
LayerCount: 2
Fore
SplineSet
127 448 m 0,0,1
 127 467 127 467 144 478 c 2,2,-1
 680 746 l 2,3,4
 710 763 710 763 727 731 c 2,5,-1
 752 678 l 2,6,7
 756 672 756 672 756 659 c 0,8,9
 756 642 756 642 737 631 c 2,10,-1
 393 459 l 2,11,12
 385 455 385 455 385 447.5 c 128,-1,13
 385 440 385 440 393 436 c 2,14,-1
 737 263 l 2,15,16
 756 255 756 255 756 236 c 0,17,18
 756 225 756 225 752 219 c 2,19,-1
 727 166 l 2,20,21
 710 134 710 134 680 151 c 2,22,-1
 144 416 l 2,23,24
 127 427 127 427 127 448 c 0,0,1
EndSplineSet
Validated: 1
EndChar

StartChar: equal
Encoding: 61 61 29
Width: 896
VWidth: 2175
GlyphClass: 2
Flags: W
HStem: 255 130<127 767> 576 127<127 767>
VStem: 127 640<255 385 576 703>
LayerCount: 2
Fore
SplineSet
161 385 m 2,0,-1
 733 385 l 2,1,2
 767 385 767 385 767 351 c 2,3,-1
 767 289 l 2,4,5
 767 255 767 255 733 255 c 2,6,-1
 161 255 l 2,7,8
 127 255 127 255 127 289 c 2,9,-1
 127 351 l 2,10,11
 127 385 127 385 161 385 c 2,0,-1
161 703 m 2,12,-1
 733 703 l 2,13,14
 767 703 767 703 767 669 c 2,15,-1
 767 610 l 2,16,17
 767 576 767 576 733 576 c 2,18,-1
 161 576 l 2,19,20
 127 576 127 576 127 610 c 2,21,-1
 127 669 l 2,22,23
 127 703 127 703 161 703 c 2,12,-1
EndSplineSet
Validated: 1
EndChar

StartChar: greater
Encoding: 62 62 30
Width: 883
VWidth: 2175
GlyphClass: 2
Flags: W
HStem: 151 595
VStem: 127 629
DStem2: 204 746 147 631 0.894093 -0.447882<-29.6103 397.344> 147 263 204 151 0.896096 0.443861<-29.6394 397.213>
LayerCount: 2
Fore
SplineSet
739 416 m 2,0,-1
 204 151 l 2,1,2
 174 134 174 134 157 166 c 2,3,-1
 132 219 l 2,4,5
 128 225 128 225 127 236 c 0,6,7
 127 255 127 255 147 263 c 2,8,-1
 491 436 l 2,9,10
 499 440 499 440 499 447.5 c 128,-1,11
 499 455 499 455 491 459 c 2,12,-1
 147 631 l 2,13,14
 128 642 128 642 127 659 c 0,15,16
 127 672 127 672 132 678 c 2,17,-1
 157 731 l 2,18,19
 174 763 174 763 204 746 c 2,20,-1
 739 478 l 2,21,22
 756 467 756 467 756 448 c 0,23,24
 756 427 756 427 739 416 c 2,0,-1
EndSplineSet
Validated: 1
Colour: ff00
EndChar

StartChar: question
Encoding: 63 63 31
Width: 873
VWidth: 2175
GlyphClass: 2
Flags: W
HStem: 0 127<363 491> 1151 128<271.938 548.125>
VStem: 363 128<0 127 321 625.028> 618 128<835.249 1082.33>
DStem2: 433 705 520 612 0.738612 0.67413<-76.8924 286.807>
LayerCount: 2
Fore
SplineSet
746 960 m 0,0,1
 746 820 746 820 644 727 c 2,2,-1
 520 612 l 2,3,4
 490 587 490 587 491 542 c 2,5,-1
 491 355 l 2,6,7
 491 321 491 321 457 321 c 2,8,-1
 397 321 l 2,9,10
 363 321 363 321 363 355 c 2,11,-1
 363 542 l 2,12,13
 363 642 363 642 433 705 c 2,14,-1
 559 820 l 2,15,16
 618 871 618 871 618 960 c 0,17,18
 618 1034 618 1034 563 1096 c 1,19,20
 501 1151 501 1151 427 1151 c 2,21,-1
 395 1151 l 2,22,23
 302 1151 302 1151 242 1077 c 0,24,25
 225 1056 225 1056 200 1069 c 2,26,-1
 147 1096 l 2,27,28
 128 1109 128 1109 127 1126 c 0,29,30
 127 1134 127 1134 136 1147 c 0,31,32
 176 1204 176 1204 245 1241.5 c 128,-1,33
 314 1279 314 1279 395 1279 c 2,34,-1
 427 1279 l 2,35,36
 557 1279 557 1279 651.5 1185.5 c 128,-1,37
 746 1092 746 1092 746 960 c 0,0,1
457 0 m 2,38,-1
 397 0 l 2,39,40
 363 0 363 0 363 34 c 2,41,-1
 363 93 l 2,42,43
 363 127 363 127 397 127 c 2,44,-1
 457 127 l 2,45,46
 491 127 491 127 491 93 c 2,47,-1
 491 34 l 2,48,49
 491 0 491 0 457 0 c 2,38,-1
EndSplineSet
Validated: 33
EndChar

StartChar: at
Encoding: 64 64 32
Width: 1790
VWidth: 2175
GlyphClass: 2
Flags: W
HStem: -253 128<657.505 1190.21> 64 127<622.464 913.645 1113.1 1251.06> 831 127<609.468 960> 1151 128<607.96 1035.98>
VStem: 127 128<273.025 779.391> 448 128<238.232 797.063> 960 128<236.299 831> 1343 129<315.175 813.854>
LayerCount: 2
Fore
SplineSet
1472 574 m 0,0,1
 1472 451 1472 451 1443.5 340 c 128,-1,2
 1415 229 1415 229 1342.5 146.5 c 128,-1,3
 1270 64 1270 64 1168 64 c 0,4,5
 1081 64 1081 64 1022 142 c 0,6,7
 1014 153 1014 153 988 132 c 0,8,9
 895 64 895 64 769 64 c 0,10,11
 639 64 639 64 543.5 136 c 128,-1,12
 448 208 448 208 448 319 c 2,13,-1
 448 703 l 2,14,15
 448 807 448 807 523.5 882.5 c 128,-1,16
 599 958 599 958 705 958 c 2,17,-1
 1054 958 l 2,18,19
 1088 958 1088 958 1088 924 c 2,20,-1
 1088 323 l 2,21,22
 1094 255 1094 255 1122 221 c 0,23,24
 1145 191 1145 191 1168 191 c 0,25,26
 1217 191 1217 191 1260 246 c 0,27,28
 1343 361 1343 361 1343 578 c 0,29,30
 1343 748 1343 748 1258 901 c 0,31,32
 1103 1152 1103 1152 831 1151 c 0,33,34
 578 1151 578 1151 419 969 c 0,35,36
 255 791 255 791 255 535 c 0,37,38
 255 308 255 308 363.5 150 c 128,-1,39
 472 -8 472 -8 650 -79 c 0,40,41
 771 -126 771 -126 918 -125 c 2,42,-1
 933 -125 l 2,43,44
 1237 -125 1237 -125 1477 87 c 0,45,46
 1530 140 1530 140 1578 202 c 0,47,48
 1595 227 1595 227 1625 208 c 2,49,-1
 1674 174 l 2,50,51
 1687 161 1687 161 1687 151 c 0,52,53
 1691 136 1691 136 1680 125 c 0,54,55
 1480 -136 1480 -136 1171 -221 c 0,56,57
 1056 -253 1056 -253 939 -253 c 2,58,-1
 918 -253 l 2,59,60
 572 -253 572 -253 351 -32 c 0,61,62
 251 59 251 59 189 211 c 128,-1,63
 127 363 127 363 127 535 c 0,64,65
 127 832 127 832 323 1054 c 0,66,67
 525 1279 525 1279 831 1279 c 0,68,69
 1186 1279 1186 1279 1368 965 c 0,70,71
 1472 786 1472 786 1472 574 c 0,0,1
705 831 m 2,72,73
 652 831 652 831 614 792.5 c 128,-1,74
 576 754 576 754 576 703 c 2,75,-1
 576 319 l 2,76,77
 576 262 576 262 635.5 226.5 c 128,-1,78
 695 191 695 191 769 191 c 0,79,80
 839 191 839 191 899.5 226 c 128,-1,81
 960 261 960 261 960 319 c 2,82,-1
 960 814 l 2,83,84
 960 831 960 831 943 831 c 2,85,-1
 705 831 l 2,72,73
EndSplineSet
Validated: 33
EndChar

StartChar: A
Encoding: 65 65 33
Width: 1017
VWidth: 2175
GlyphClass: 2
Flags: W
HStem: 0 21G<82 171.5 849 937> 321 127<331.703 684.781> 1259 20G<454.5 561.5>
DStem2: 66 45 198 34 0.292198 0.956358<-10.9839 340.73 469.836 1073.05> 584 1256 523 1020 0.290753 -0.956798<193.325 793.028 925.79 1276.64>
LayerCount: 2
Fore
SplineSet
346 448 m 2,0,-1
 673 448 l 2,1,2
 690 448 690 448 690 470 c 2,3,-1
 523 1020 l 2,4,5
 519 1033 519 1033 510 1031.5 c 128,-1,6
 501 1030 501 1030 497 1020 c 2,7,-1
 329 470 l 2,8,9
 325 462 325 462 331.5 455 c 128,-1,10
 338 448 338 448 346 448 c 2,0,-1
467 1279 m 2,11,-1
 550 1279 l 2,12,13
 573 1279 573 1279 584 1256 c 2,14,-1
 952 45 l 2,15,16
 954 39 954 39 954 34 c 0,17,18
 954 0 954 0 920 0 c 2,19,-1
 867 0 l 2,20,21
 831 0 831 0 822 34 c 2,22,-1
 744 295 l 2,23,24
 736 320 736 320 710 321 c 2,25,-1
 310 321 l 2,26,27
 282 321 282 321 276 295 c 2,28,-1
 198 34 l 2,29,30
 190 0 190 0 153 0 c 2,31,-1
 100 0 l 2,32,33
 64 0 64 0 64 34 c 0,34,35
 64 38 64 38 66 45 c 2,36,-1
 436 1256 l 2,37,38
 442 1279 442 1279 467 1279 c 2,11,-1
EndSplineSet
Validated: 1
EndChar

StartChar: B
Encoding: 66 66 34
Width: 1024
VWidth: 2175
GlyphClass: 2
Flags: W
HStem: 0 127<255 654.005> 639 128<255 633.554> 1151 128<255 633.375>
VStem: 127 128<127 639 767 1151> 703 130<837.474 1081.8> 767 130<239.185 526.987>
LayerCount: 2
Fore
SplineSet
272 767 m 2,0,-1
 512 767 l 2,1,2
 591 767 591 767 647 823.5 c 128,-1,3
 703 880 703 880 703 960 c 0,4,5
 703 1039 703 1039 647 1095 c 128,-1,6
 591 1151 591 1151 512 1151 c 2,7,-1
 272 1151 l 2,8,9
 255 1151 255 1151 255 1134 c 2,10,-1
 255 784 l 2,11,12
 255 767 255 767 272 767 c 2,0,-1
161 1279 m 2,13,-1
 512 1279 l 2,14,15
 642 1279 642 1279 737.5 1184.5 c 128,-1,16
 833 1090 833 1090 833 960 c 0,17,18
 833 824 833 824 737 733 c 0,19,20
 716 712 716 712 727 701 c 0,21,22
 803 648 803 648 850 564 c 128,-1,23
 897 480 897 480 897 385 c 0,24,25
 897 228 897 228 783 114 c 128,-1,26
 669 0 669 0 512 0 c 2,27,-1
 161 0 l 2,28,29
 127 0 127 0 127 34 c 2,30,-1
 127 1245 l 2,31,32
 127 1279 127 1279 161 1279 c 2,13,-1
272 127 m 2,33,-1
 512 127 l 2,34,35
 616 127 616 127 691.5 202.5 c 128,-1,36
 767 278 767 278 767 385 c 0,37,38
 767 489 767 489 691.5 564 c 128,-1,39
 616 639 616 639 512 639 c 2,40,-1
 272 639 l 2,41,42
 255 639 255 639 255 622 c 2,43,-1
 255 144 l 2,44,45
 255 127 255 127 272 127 c 2,33,-1
EndSplineSet
Validated: 1
EndChar

StartChar: C
Encoding: 67 67 35
Width: 894
VWidth: 2175
GlyphClass: 2
Flags: W
HStem: 0 127<371.469 767> 1151 128<369.995 767>
VStem: 127 128<242.378 1038>
LayerCount: 2
Fore
SplineSet
767 1245 m 2,0,-1
 767 1185 l 2,1,2
 767 1151 767 1151 733 1151 c 2,3,-1
 512 1151 l 2,4,5
 408 1151 408 1151 332.5 1077 c 128,-1,6
 257 1003 257 1003 257 897 c 2,7,-1
 255 385 l 2,8,9
 255 281 255 281 331.5 204 c 128,-1,10
 408 127 408 127 512 127 c 2,11,-1
 733 127 l 2,12,13
 767 127 767 127 767 93 c 2,14,-1
 767 34 l 2,15,16
 767 0 767 0 733 0 c 2,17,-1
 512 0 l 2,18,19
 355 0 355 0 241 113.5 c 128,-1,20
 127 227 127 227 127 385 c 2,21,-1
 127 897 l 2,22,23
 127 1054 127 1054 241 1166.5 c 128,-1,24
 355 1279 355 1279 512 1279 c 2,25,-1
 733 1279 l 2,26,27
 767 1279 767 1279 767 1245 c 2,0,-1
EndSplineSet
Validated: 1
EndChar

StartChar: D
Encoding: 68 68 36
Width: 1024
VWidth: 2175
GlyphClass: 2
Flags: W
HStem: 0 127<255 654.005> 1151 128<255 654.005>
VStem: 127 128<127 1151> 769 128<242.995 1038>
LayerCount: 2
Fore
SplineSet
274 127 m 2,0,-1
 512 127 l 2,1,2
 616 127 616 127 692.5 203.5 c 128,-1,3
 769 280 769 280 769 385 c 2,4,-1
 767 897 l 2,5,6
 767 1003 767 1003 692.5 1077 c 128,-1,7
 618 1151 618 1151 512 1151 c 2,8,-1
 274 1151 l 2,9,10
 255 1151 255 1151 255 1134 c 2,11,-1
 255 144 l 2,12,13
 255 127 255 127 274 127 c 2,0,-1
897 897 m 2,14,-1
 897 385 l 2,15,16
 897 228 897 228 783 114 c 128,-1,17
 669 0 669 0 512 0 c 2,18,-1
 161 0 l 2,19,20
 127 0 127 0 127 34 c 2,21,-1
 127 1245 l 2,22,23
 127 1279 127 1279 161 1279 c 2,24,-1
 512 1279 l 2,25,26
 669 1279 669 1279 783 1166.5 c 128,-1,27
 897 1054 897 1054 897 897 c 2,14,-1
EndSplineSet
Validated: 1
EndChar

StartChar: E
Encoding: 69 69 37
Width: 894
VWidth: 2175
GlyphClass: 2
Flags: W
HStem: 0 127<255 767> 639 128<255 639> 1151 128<255 767>
VStem: 127 128<127 639 767 1151>
LayerCount: 2
Fore
SplineSet
733 0 m 2,0,-1
 161 0 l 2,1,2
 127 0 127 0 127 34 c 2,3,-1
 127 1245 l 2,4,5
 127 1279 127 1279 161 1279 c 2,6,-1
 733 1279 l 2,7,8
 767 1279 767 1279 767 1245 c 2,9,-1
 767 1185 l 2,10,11
 767 1151 767 1151 733 1151 c 2,12,-1
 272 1151 l 2,13,14
 255 1151 255 1151 255 1134 c 2,15,-1
 255 784 l 2,16,17
 255 767 255 767 272 767 c 2,18,-1
 605 767 l 2,19,20
 639 767 639 767 639 733 c 2,21,-1
 639 673 l 2,22,23
 639 639 639 639 605 639 c 2,24,-1
 272 639 l 2,25,26
 255 639 255 639 255 622 c 2,27,-1
 255 144 l 2,28,29
 255 127 255 127 272 127 c 2,30,-1
 733 127 l 2,31,32
 767 127 767 127 767 93 c 2,33,-1
 767 34 l 2,34,35
 767 0 767 0 733 0 c 2,0,-1
EndSplineSet
Validated: 1
EndChar

StartChar: F
Encoding: 70 70 38
Width: 894
VWidth: 2175
GlyphClass: 2
Flags: W
HStem: 0 21G<144 238> 639 128<255 767> 1151 128<255 767>
VStem: 127 128<0 639 767 1151>
LayerCount: 2
Fore
SplineSet
127 34 m 2,0,-1
 127 1245 l 2,1,2
 127 1279 127 1279 161 1279 c 2,3,-1
 733 1279 l 2,4,5
 767 1279 767 1279 767 1245 c 2,6,-1
 767 1185 l 2,7,8
 767 1151 767 1151 733 1151 c 2,9,-1
 272 1151 l 2,10,11
 255 1151 255 1151 255 1134 c 2,12,-1
 255 784 l 2,13,14
 255 767 255 767 272 767 c 2,15,-1
 733 767 l 2,16,17
 767 767 767 767 767 733 c 2,18,-1
 767 673 l 2,19,20
 767 639 767 639 733 639 c 2,21,-1
 272 639 l 2,22,23
 255 639 255 639 255 622 c 2,24,-1
 255 34 l 2,25,26
 255 0 255 0 221 0 c 2,27,-1
 161 0 l 2,28,29
 127 0 127 0 127 34 c 2,0,-1
EndSplineSet
Validated: 1
EndChar

StartChar: G
Encoding: 71 71 39
Width: 1024
VWidth: 2175
GlyphClass: 2
Flags: W
HStem: 0 127<371.469 767> 639 128<639 767> 1151 128<369.995 897>
VStem: 127 128<242.378 1038> 639 258<639 767> 767 130<127 639>
LayerCount: 2
Fore
SplineSet
897 1245 m 2,0,-1
 897 1185 l 2,1,2
 897 1151 897 1151 863 1151 c 2,3,-1
 512 1151 l 2,4,5
 408 1151 408 1151 332.5 1077 c 128,-1,6
 257 1003 257 1003 257 897 c 2,7,-1
 255 385 l 2,8,9
 255 281 255 281 331.5 204 c 128,-1,10
 408 127 408 127 512 127 c 2,11,-1
 750 127 l 2,12,13
 767 127 767 127 767 144 c 2,14,-1
 767 622 l 2,15,16
 767 639 767 639 750 639 c 2,17,-1
 673 639 l 2,18,19
 639 639 639 639 639 673 c 2,20,-1
 639 733 l 2,21,22
 639 767 639 767 673 767 c 2,23,-1
 863 767 l 2,24,25
 897 767 897 767 897 733 c 2,26,-1
 897 34 l 2,27,28
 897 0 897 0 863 0 c 2,29,-1
 512 0 l 2,30,31
 355 0 355 0 241 113.5 c 128,-1,32
 127 227 127 227 127 385 c 2,33,-1
 127 897 l 2,34,35
 127 1054 127 1054 241 1166.5 c 128,-1,36
 355 1279 355 1279 512 1279 c 2,37,-1
 863 1279 l 2,38,39
 897 1279 897 1279 897 1245 c 2,0,-1
EndSplineSet
Validated: 1
EndChar

StartChar: H
Encoding: 72 72 40
Width: 1024
VWidth: 2175
GlyphClass: 2
Flags: W
HStem: 0 21G<144 238 784 880> 639 128<255 767> 1259 20G<144 238 784 880>
VStem: 127 128<0 639 767 1279> 767 130<0 639 767 1279>
LayerCount: 2
Fore
SplineSet
255 1245 m 2,0,-1
 255 784 l 2,1,2
 255 767 255 767 272 767 c 2,3,-1
 750 767 l 2,4,5
 767 767 767 767 767 784 c 2,6,-1
 767 1245 l 2,7,8
 767 1279 767 1279 801 1279 c 2,9,-1
 863 1279 l 2,10,11
 897 1279 897 1279 897 1245 c 2,12,-1
 897 34 l 2,13,14
 897 0 897 0 863 0 c 2,15,-1
 801 0 l 2,16,17
 767 0 767 0 767 34 c 2,18,-1
 767 622 l 2,19,20
 767 639 767 639 750 639 c 2,21,-1
 272 639 l 2,22,23
 255 639 255 639 255 622 c 2,24,-1
 255 34 l 2,25,26
 255 0 255 0 221 0 c 2,27,-1
 161 0 l 2,28,29
 127 0 127 0 127 34 c 2,30,-1
 127 1245 l 2,31,32
 127 1279 127 1279 161 1279 c 6,33,-1
 221 1279 l 2,34,35
 255 1279 255 1279 255 1245 c 2,0,-1
EndSplineSet
Validated: 1
EndChar

StartChar: I
Encoding: 73 73 41
Width: 382
VWidth: 2175
GlyphClass: 2
Flags: W
HStem: 0 21G<144 238> 1259 20G<144 238>
VStem: 127 128<0 1279>
LayerCount: 2
Fore
SplineSet
127 34 m 2,0,-1
 127 1245 l 2,1,2
 127 1279 127 1279 161 1279 c 2,3,-1
 221 1279 l 2,4,5
 255 1279 255 1279 255 1245 c 2,6,-1
 255 34 l 2,7,8
 255 0 255 0 221 0 c 2,9,-1
 161 0 l 2,10,11
 127 0 127 0 127 34 c 2,0,-1
EndSplineSet
Validated: 1
EndChar

StartChar: J
Encoding: 74 74 42
Width: 703
VWidth: 2175
GlyphClass: 2
Flags: W
HStem: 0 127<64 333.005> 1259 20G<465 559>
VStem: 448 128<240.405 1279>
LayerCount: 2
Fore
SplineSet
576 1245 m 2,0,-1
 576 385 l 2,1,2
 576 228 576 228 462 114 c 128,-1,3
 348 0 348 0 191 0 c 2,4,-1
 98 0 l 2,5,6
 64 0 64 0 64 34 c 2,7,-1
 64 93 l 2,8,9
 64 127 64 127 98 127 c 2,10,-1
 191 127 l 2,11,12
 293 127 293 127 374 202 c 0,13,14
 448 281 448 281 448 385 c 2,15,-1
 448 1245 l 2,16,17
 448 1279 448 1279 482 1279 c 2,18,-1
 542 1279 l 2,19,20
 576 1279 576 1279 576 1245 c 2,0,-1
EndSplineSet
Validated: 1
EndChar

StartChar: K
Encoding: 75 75 43
Width: 990
VWidth: 2175
GlyphClass: 2
Flags: W
HStem: 0 21G<144 238 774 859.5> 1259 20G<144 238 744.5 839.5>
VStem: 127 128<0 541.625 716.095 1279>
DStem2: 278 720 266 501 0.630956 0.775819<-12.4465 -0.443889 127.388 756.87> 480 731 391 629 0.50702 -0.861934<33.1381 798.868>
LayerCount: 2
Fore
SplineSet
255 1245 m 2,0,-1
 255 727 l 2,1,2
 255 719 255 719 263 716 c 0,3,4
 274 712 274 712 278 720 c 2,5,-1
 720 1262 l 2,6,7
 733 1279 733 1279 756 1279 c 2,8,-1
 829 1279 l 2,9,10
 850 1279 850 1279 858.5 1260 c 128,-1,11
 867 1241 867 1241 854 1224 c 2,12,-1
 482 769 l 2,13,14
 467 748 467 748 480 731 c 2,15,-1
 880 51 l 2,16,17
 884 47 884 47 884 34 c 128,-1,18
 884 21 884 21 880 17 c 0,19,20
 869 0 869 0 850 0 c 2,21,-1
 788 0 l 2,22,23
 760 0 760 0 748 23 c 2,24,-1
 391 629 l 2,25,26
 387 635 387 635 382 635 c 0,27,28
 376 635 376 635 372 631 c 2,29,-1
 266 501 l 2,30,31
 255 484 255 484 255 474 c 2,32,-1
 255 34 l 2,33,34
 255 0 255 0 221 0 c 2,35,-1
 161 0 l 2,36,37
 127 0 127 0 127 34 c 2,38,-1
 127 1245 l 2,39,40
 127 1279 127 1279 161 1279 c 2,41,-1
 221 1279 l 2,42,43
 255 1279 255 1279 255 1245 c 2,0,-1
EndSplineSet
Validated: 1
EndChar

StartChar: L
Encoding: 76 76 44
Width: 873
VWidth: 2175
GlyphClass: 2
Flags: W
HStem: 0 127<255 767> 1259 20G<144 238>
VStem: 127 128<127 1279>
LayerCount: 2
Fore
SplineSet
255 1245 m 2,0,-1
 255 144 l 2,1,2
 255 127 255 127 272 127 c 2,3,-1
 733 127 l 2,4,5
 767 127 767 127 767 93 c 2,6,-1
 767 34 l 2,7,8
 767 0 767 0 733 0 c 2,9,-1
 161 0 l 2,10,11
 127 0 127 0 127 34 c 2,12,-1
 127 1245 l 2,13,14
 127 1279 127 1279 161 1279 c 2,15,-1
 221 1279 l 2,16,17
 255 1279 255 1279 255 1245 c 2,0,-1
EndSplineSet
Validated: 1
EndChar

StartChar: M
Encoding: 77 77 45
Width: 1151
VWidth: 2175
GlyphClass: 2
Flags: W
HStem: 0 21G<144 238 914 1007> 1259 20G<144 214.5 934.5 1007>
VStem: 127 128<0 974.935> 897 127<0 973.966>
DStem2: 240 1258 278 969 0.553506 -0.832845<249.37 596.67> 591 775 603 567 0.552308 0.83364<-16.695 329.23>
LayerCount: 2
Fore
SplineSet
127 34 m 2,0,-1
 127 1245 l 2,1,2
 127 1279 127 1279 161 1279 c 2,3,-1
 202 1279 l 2,4,5
 227 1279 227 1279 240 1258 c 2,6,-1
 561 775 l 2,7,8
 576 760 576 760 591 775 c 2,9,-1
 911 1258 l 2,10,11
 919 1279 919 1279 950 1279 c 2,12,-1
 990 1279 l 2,13,14
 1024 1279 1024 1279 1024 1245 c 2,15,-1
 1024 34 l 2,16,17
 1024 0 1024 0 990 0 c 2,18,-1
 931 0 l 2,19,20
 897 0 897 0 897 34 c 2,21,-1
 897 962 l 2,22,23
 897 973 897 973 887 974 c 128,-1,24
 877 975 877 975 873 969 c 2,25,-1
 603 567 l 2,26,27
 592 552 592 552 575.5 552 c 128,-1,28
 559 552 559 552 548 567 c 2,29,-1
 278 969 l 2,30,31
 274 977 274 977 264.5 975 c 128,-1,32
 255 973 255 973 255 962 c 2,33,-1
 255 34 l 2,34,35
 255 0 255 0 221 0 c 2,36,-1
 161 0 l 2,37,38
 127 0 127 0 127 34 c 2,0,-1
EndSplineSet
Validated: 1
EndChar

StartChar: N
Encoding: 78 78 46
Width: 1024
VWidth: 2175
GlyphClass: 2
Flags: W
HStem: 0 21G<144 238 775 880> 1259 20G<144 249 784 880>
VStem: 127 128<0 960.186> 767 130<311.096 1279>
DStem2: 276 1253 280 960 0.447596 -0.894236<263.801 1057.84>
LayerCount: 2
Fore
SplineSet
127 34 m 2,0,-1
 127 1245 l 2,1,2
 127 1279 127 1279 161 1279 c 2,3,-1
 234 1279 l 2,4,5
 264 1279 264 1279 276 1253 c 2,6,-1
 744 319 l 2,7,8
 748 308 748 308 757.5 311 c 128,-1,9
 767 314 767 314 767 325 c 2,10,-1
 767 1245 l 2,11,12
 767 1279 767 1279 801 1279 c 2,13,-1
 863 1279 l 2,14,15
 897 1279 897 1279 897 1245 c 2,16,-1
 897 34 l 2,17,18
 897 0 897 0 863 0 c 2,19,-1
 790 0 l 2,20,21
 760 0 760 0 748 25 c 2,22,-1
 280 960 l 2,23,24
 276 966 276 966 265.5 966.5 c 128,-1,25
 255 967 255 967 255 956 c 2,26,-1
 255 34 l 2,27,28
 255 0 255 0 221 0 c 2,29,-1
 161 0 l 2,30,31
 127 0 127 0 127 34 c 2,0,-1
EndSplineSet
Validated: 1
EndChar

StartChar: O
Encoding: 79 79 47
Width: 1024
VWidth: 2175
GlyphClass: 2
Flags: W
HStem: 0 127<370.732 654.274> 1151 128<369.432 654.274>
VStem: 127 128<242.378 1038.65> 767 130<239.621 1038.65>
LayerCount: 2
Fore
SplineSet
512 1279 m 256,0,1
 669 1279 669 1279 783 1166.5 c 128,-1,2
 897 1054 897 1054 897 897 c 2,3,-1
 897 385 l 2,4,5
 897 228 897 228 783 114 c 128,-1,6
 669 0 669 0 512 0 c 128,-1,7
 355 0 355 0 241 113.5 c 128,-1,8
 127 227 127 227 127 385 c 2,9,-1
 127 897 l 2,10,11
 127 1054 127 1054 241 1166.5 c 128,-1,12
 355 1279 355 1279 512 1279 c 256,0,1
512 127 m 128,-1,14
 616 127 616 127 691.5 202.5 c 128,-1,15
 767 278 767 278 767 385 c 2,16,-1
 767 897 l 2,17,18
 767 1003 767 1003 691.5 1077 c 128,-1,19
 616 1151 616 1151 512 1151 c 128,-1,20
 408 1151 408 1151 331.5 1076 c 128,-1,21
 255 1001 255 1001 255 897 c 2,22,-1
 255 385 l 2,23,24
 255 281 255 281 331.5 204 c 128,-1,13
 408 127 408 127 512 127 c 128,-1,14
EndSplineSet
Validated: 1
EndChar

StartChar: P
Encoding: 80 80 48
Width: 1024
VWidth: 2175
GlyphClass: 2
Flags: W
HStem: 0 21G<144 238> 512 127<255 654.005> 1151 128<255 654.005>
VStem: 127 128<0 512 639 1151> 767 130<751.172 1039.59>
LayerCount: 2
Fore
SplineSet
897 897 m 256,0,1
 897 740 897 740 783 626 c 128,-1,2
 669 512 669 512 512 512 c 2,3,-1
 272 512 l 2,4,5
 255 512 255 512 255 495 c 2,6,-1
 255 34 l 2,7,8
 255 0 255 0 221 0 c 2,9,-1
 161 0 l 2,10,11
 127 0 127 0 127 34 c 2,12,-1
 127 1245 l 2,13,14
 127 1279 127 1279 161 1279 c 2,15,-1
 512 1279 l 2,16,17
 669 1279 669 1279 783 1166.5 c 128,-1,18
 897 1054 897 1054 897 897 c 256,0,1
767 896.5 m 128,-1,20
 767 1003 767 1003 691.5 1077 c 128,-1,21
 616 1151 616 1151 512 1151 c 2,22,-1
 272 1151 l 2,23,24
 255 1151 255 1151 255 1134 c 2,25,-1
 255 656 l 2,26,27
 255 639 255 639 272 639 c 2,28,-1
 512 639 l 2,29,30
 616 639 616 639 691.5 714.5 c 128,-1,19
 767 790 767 790 767 896.5 c 128,-1,20
EndSplineSet
Validated: 1
EndChar

StartChar: Q
Encoding: 81 81 49
Width: 1085
VWidth: 2175
GlyphClass: 2
Flags: W
HStem: 0 127<369.074 623.154> 1151 128<366.299 654.274>
VStem: 127 130<242.378 1042.88> 767 130<271.597 1038.65>
DStem2: 599 355 520 255 0.785585 -0.618754<-22.6504 141.693 290.35 468.295>
LayerCount: 2
Fore
SplineSet
741 270 m 0,0,1
 766 321 766 321 767 385 c 2,2,-1
 767 897 l 2,3,4
 767 1003 767 1003 691.5 1077 c 128,-1,5
 616 1151 616 1151 512 1151 c 0,6,7
 404 1151 404 1151 330.5 1077 c 128,-1,8
 257 1003 257 1003 257 897 c 2,9,-1
 257 385 l 2,10,11
 257 279 257 279 331.5 203 c 128,-1,12
 406 127 406 127 512 127 c 0,13,14
 574 127 574 127 620 153 c 0,15,16
 635 161 635 161 622 174 c 2,17,-1
 520 255 l 2,18,19
 492 276 492 276 514 304 c 2,20,-1
 552 351 l 2,21,22
 563 362 563 362 576 363 c 0,23,24
 591 363 591 363 599 355 c 2,25,-1
 716 263 l 2,26,27
 722 259 722 259 730.5 262.5 c 128,-1,28
 739 266 739 266 741 270 c 0,0,1
512 1279 m 256,29,30
 669 1279 669 1279 783 1166.5 c 128,-1,31
 897 1054 897 1054 897 897 c 2,32,-1
 897 385 l 2,33,34
 897 277 897 277 839 183 c 0,35,36
 828 172 828 172 843 161 c 2,37,-1
 971 62 l 2,38,39
 982 47 982 47 982 34 c 0,40,41
 982 0 982 0 950 0 c 2,42,-1
 858 0 l 2,43,44
 843 0 843 0 829 11 c 2,45,-1
 754 70 l 2,46,47
 743 76 743 76 733 70 c 0,48,49
 633 0 633 0 512 0 c 0,50,51
 355 0 355 0 241 113.5 c 128,-1,52
 127 227 127 227 127 385 c 2,53,-1
 127 897 l 2,54,55
 127 1054 127 1054 241 1166.5 c 128,-1,56
 355 1279 355 1279 512 1279 c 256,29,30
EndSplineSet
Validated: 1
EndChar

StartChar: R
Encoding: 82 82 50
Width: 1024
VWidth: 2175
GlyphClass: 2
Flags: W
HStem: 0 21G<144 239 781 864.5> 512 127<257 501.422> 1151 128<257 654.005>
VStem: 127 130<0 512 639 1151> 767 130<751.547 1039.59>
DStem2: 884 51 489 489 0.49433 -0.869274<-539.471 11.8468>
LayerCount: 2
Fore
SplineSet
897 897 m 0,0,1
 897 742 897 742 784 625 c 0,2,3
 727 568 727 568 629 531 c 0,4,5
 614 527 614 527 622 512 c 2,6,-1
 884 51 l 2,7,8
 895 32 895 32 884 16 c 128,-1,9
 873 0 873 0 856 0 c 2,10,-1
 795 0 l 2,11,12
 767 0 767 0 754 23 c 2,13,-1
 489 489 l 2,14,15
 472 512 472 512 448 512 c 2,16,-1
 274 512 l 2,17,18
 257 512 257 512 257 495 c 2,19,-1
 257 34 l 2,20,21
 257 0 257 0 221 0 c 2,22,-1
 161 0 l 2,23,24
 127 0 127 0 127 34 c 2,25,-1
 127 1245 l 2,26,27
 127 1279 127 1279 161 1279 c 2,28,-1
 512 1279 l 2,29,30
 669 1279 669 1279 783 1166.5 c 128,-1,31
 897 1054 897 1054 897 897 c 0,0,1
767 896.5 m 128,-1,33
 767 1003 767 1003 691.5 1077 c 128,-1,34
 616 1151 616 1151 512 1151 c 2,35,-1
 274 1151 l 2,36,37
 257 1151 257 1151 257 1134 c 2,38,-1
 257 656 l 2,39,40
 257 639 257 639 274 639 c 2,41,-1
 512 639 l 2,42,43
 616 639 616 639 691.5 714.5 c 128,-1,32
 767 790 767 790 767 896.5 c 128,-1,33
EndSplineSet
Validated: 1
EndChar

StartChar: S
Encoding: 83 83 51
Width: 1024
VWidth: 2175
GlyphClass: 2
Flags: W
HStem: 0 127<293.487 696.737> 1151 128<326.313 728.851>
VStem: 127 128<883.592 1088.12> 767 130<189.883 395.062>
DStem2: 756 537 680 436 0.8 -0.6<-657.014 138.702>
LayerCount: 2
Fore
SplineSet
512 1279 m 0,0,1
 631 1279 631 1279 739 1239 c 0,2,3
 815 1209 815 1209 877 1151 c 0,4,5
 905 1126 905 1126 873 1105 c 2,6,-1
 824 1069 l 2,7,8
 803 1054 803 1054 782 1071 c 0,9,10
 686 1152 686 1152 512 1151 c 0,11,12
 412 1151 412 1151 333.5 1111 c 128,-1,13
 255 1071 255 1071 255 994 c 0,14,15
 255 905 255 905 344 846 c 2,16,-1
 756 537 l 2,17,18
 824 482 824 482 860.5 425 c 128,-1,19
 897 368 897 368 897 285 c 0,20,21
 897 158 897 158 781 79 c 128,-1,22
 665 0 665 0 512 0 c 0,23,24
 268 0 268 0 144 123 c 0,25,26
 114 153 114 153 149 176 c 2,27,-1
 198 210 l 2,28,29
 221 229 221 229 240 208 c 0,30,31
 331 127 331 127 512 127 c 0,32,33
 612 127 612 127 689.5 167.5 c 128,-1,34
 767 208 767 208 767 285 c 0,35,36
 767 334 767 334 748 365 c 0,37,38
 731 390 731 390 680 436 c 2,39,-1
 268 741 l 2,40,41
 128 843 128 843 127 994 c 0,42,43
 127 1124 127 1124 241 1201.5 c 128,-1,44
 355 1279 355 1279 512 1279 c 0,0,1
EndSplineSet
Validated: 33
EndChar

StartChar: T
Encoding: 84 84 52
Width: 981
VWidth: 2175
GlyphClass: 2
Flags: W
HStem: 0 21G<444 537> 1151 128<106 427 554 875>
VStem: 427 127<0 1151>
LayerCount: 2
Fore
SplineSet
140 1279 m 2,0,-1
 841 1279 l 2,1,2
 875 1279 875 1279 875 1245 c 2,3,-1
 875 1185 l 2,4,5
 875 1151 875 1151 841 1151 c 2,6,-1
 571 1151 l 2,7,8
 554 1151 554 1151 554 1134 c 2,9,-1
 554 34 l 2,10,11
 554 0 554 0 520 0 c 2,12,-1
 461 0 l 2,13,14
 427 0 427 0 427 34 c 2,15,-1
 427 1134 l 2,16,17
 427 1151 427 1151 410 1151 c 2,18,-1
 140 1151 l 2,19,20
 106 1151 106 1151 106 1185 c 2,21,-1
 106 1245 l 2,22,23
 106 1279 106 1279 140 1279 c 2,0,-1
EndSplineSet
Validated: 1
EndChar

StartChar: U
Encoding: 85 85 53
Width: 1024
VWidth: 2175
GlyphClass: 2
Flags: W
HStem: 0 127<351.223 673.425> 1259 20G<144 238 786 880>
VStem: 130 127<212.839 1279> 769 128<212.839 1279>
LayerCount: 2
Fore
SplineSet
512 127 m 256,0,1
 610 127 610 127 689.5 181.5 c 128,-1,2
 769 236 769 236 769 321 c 2,3,-1
 769 1245 l 2,4,5
 769 1279 769 1279 803 1279 c 2,6,-1
 863 1279 l 2,7,8
 897 1279 897 1279 897 1245 c 2,9,-1
 897 321 l 2,10,11
 897 183 897 183 781 91.5 c 128,-1,12
 665 0 665 0 512 0 c 128,-1,13
 359 0 359 0 244.5 91.5 c 128,-1,14
 130 183 130 183 130 321 c 2,15,-1
 127 1245 l 2,16,17
 127 1279 127 1279 161 1279 c 2,18,-1
 221 1279 l 2,19,20
 255 1279 255 1279 255 1245 c 2,21,-1
 257 321 l 2,22,23
 257 236 257 236 335.5 181.5 c 128,-1,24
 414 127 414 127 512 127 c 256,0,1
EndSplineSet
Validated: 1
EndChar

StartChar: V
Encoding: 86 86 54
Width: 1024
VWidth: 2175
GlyphClass: 2
Flags: W
HStem: 0 21G<459.5 562.5> 1259 20G<150.5 228.5 794.5 873.5>
DStem2: 499 302 440 25 0.251739 -0.967795<-1021.1 0> 769 1245 899 1236 0.251739 0.967795<-974.055 46.7056>
LayerCount: 2
Fore
SplineSet
255 1245 m 2,0,-1
 499 302 l 2,1,2
 501 294 501 294 512 293.5 c 128,-1,3
 523 293 523 293 525 302 c 2,4,-1
 769 1245 l 2,5,6
 775 1279 775 1279 814 1279 c 2,7,-1
 865 1279 l 2,8,9
 882 1279 882 1279 892.5 1266 c 128,-1,10
 903 1253 903 1253 899 1236 c 2,11,-1
 584 25 l 2,12,13
 573 0 573 0 552 0 c 2,14,-1
 472 0 l 2,15,16
 447 0 447 0 440 25 c 2,17,-1
 125 1236 l 2,18,19
 121 1253 121 1253 131.5 1266 c 128,-1,20
 142 1279 142 1279 159 1279 c 2,21,-1
 210 1279 l 2,22,23
 247 1279 247 1279 255 1245 c 2,0,-1
EndSplineSet
Validated: 1
EndChar

StartChar: W
Encoding: 87 87 55
Width: 1419
VWidth: 2175
GlyphClass: 2
Flags: W
HStem: 0 21G<402 507.5 911.5 1020> 1259 20G<154 229 1191 1267.5>
DStem2: 459 289 382 28 0.206051 -0.978541<-1021.08 12.983> 482 289 529 23 0.318475 0.947931<-14.1671 310.297> 786 744 722 529 0.318475 -0.947931<169.101 493.874> 962 289 1037 28 0.206051 0.978541<-13.1636 1021.01>
LayerCount: 2
Fore
SplineSet
1292 1239 m 2,0,-1
 1037 28 l 2,1,2
 1035 0 1035 0 1005 0 c 2,3,-1
 924 0 l 2,4,5
 899 0 899 0 892 23 c 2,6,-1
 722 529 l 2,7,8
 718 540 718 540 709.5 540 c 128,-1,9
 701 540 701 540 699 529 c 2,10,-1
 529 23 l 2,11,12
 518 0 518 0 497 0 c 2,13,-1
 416 0 l 2,14,15
 388 0 388 0 382 28 c 2,16,-1
 127 1239 l 2,17,18
 123 1254 123 1254 135 1266.5 c 128,-1,19
 147 1279 147 1279 161 1279 c 2,20,-1
 212 1279 l 2,21,22
 246 1279 246 1279 257 1243 c 2,23,-1
 459 289 l 2,24,25
 463 278 463 278 470 278 c 0,26,27
 478 278 478 278 482 289 c 2,28,-1
 635 744 l 2,29,30
 641 767 641 767 667 767 c 2,31,-1
 752 767 l 2,32,33
 775 767 775 767 786 744 c 2,34,-1
 937 289 l 2,35,36
 941 278 941 278 950 278 c 0,37,38
 961 278 961 278 962 289 c 2,39,-1
 1162 1243 l 2,40,41
 1173 1279 1173 1279 1209 1279 c 2,42,-1
 1260 1279 l 2,43,44
 1275 1279 1275 1279 1284.5 1266.5 c 128,-1,45
 1294 1254 1294 1254 1292 1239 c 2,0,-1
EndSplineSet
Validated: 1
EndChar

StartChar: X
Encoding: 88 88 56
Width: 1130
VWidth: 2175
GlyphClass: 2
Flags: W
HStem: 0 21G<154.5 237.5 894 986> 1259 20G<156.5 240.5 892.5 977.5>
DStem2: 132 51 263 23 0.521249 0.853404<-9.64241 605.528 847.545 1466.02> 552 788 476 665 0.518035 -0.85536<-600.928 15.8189 258.558 870.132>
LayerCount: 2
Fore
SplineSet
654 618 m 2,0,-1
 999 51 l 2,1,2
 1003 45 1003 45 1003 34 c 0,3,4
 1003 0 1003 0 969 0 c 2,5,-1
 909 0 l 2,6,7
 879 0 879 0 867 23 c 2,8,-1
 582 495 l 2,9,10
 578 503 578 503 567.5 503.5 c 128,-1,11
 557 504 557 504 552 495 c 2,12,-1
 263 23 l 2,13,14
 250 0 250 0 225 0 c 2,15,-1
 161 0 l 2,16,17
 148 0 148 0 137.5 9.5 c 128,-1,18
 127 19 127 19 127 34 c 0,19,20
 127 38 127 38 132 51 c 2,21,-1
 476 618 l 2,22,23
 489 641 489 641 476 665 c 2,24,-1
 136 1228 l 2,25,26
 121 1245 121 1245 134 1262 c 128,-1,27
 147 1279 147 1279 166 1279 c 2,28,-1
 229 1279 l 2,29,30
 252 1279 252 1279 268 1258 c 2,31,-1
 552 788 l 2,32,33
 565 767 565 767 582 788 c 2,34,-1
 867 1258 l 2,35,36
 880 1279 880 1279 905 1279 c 2,37,-1
 969 1279 l 2,38,39
 986 1279 986 1279 996.5 1263 c 128,-1,40
 1007 1247 1007 1247 999 1228 c 2,41,-1
 654 665 l 2,42,43
 641 641 641 641 654 618 c 2,0,-1
EndSplineSet
Validated: 1
EndChar

StartChar: Y
Encoding: 89 89 57
Width: 1119
VWidth: 2175
GlyphClass: 2
Flags: W
HStem: 0 21G<514 608> 1259 20G<156.5 241.5 877 964.5>
VStem: 497 128<0 746.594>
DStem2: 546 841 489 697 0.555063 -0.831808<-556.072 13.1257> 854 1258 986 1226 0.555063 0.831808<-514.297 55.1602>
LayerCount: 2
Fore
SplineSet
576 841 m 2,0,-1
 854 1258 l 2,1,2
 862 1279 862 1279 892 1279 c 2,3,-1
 958 1279 l 2,4,5
 971 1279 971 1279 981.5 1269.5 c 128,-1,6
 992 1260 992 1260 992 1245 c 0,7,8
 992 1237 992 1237 986 1226 c 2,9,-1
 633 697 l 2,10,11
 625 686 625 686 625 669 c 2,12,-1
 625 34 l 2,13,14
 625 0 625 0 591 0 c 2,15,-1
 531 0 l 2,16,17
 497 0 497 0 497 34 c 2,18,-1
 497 669 l 2,19,20
 497 686 497 686 489 697 c 2,21,-1
 136 1226 l 2,22,23
 128 1234 128 1234 127 1245 c 0,24,25
 127 1260 127 1260 138 1269.5 c 128,-1,26
 149 1279 149 1279 164 1279 c 2,27,-1
 229 1279 l 2,28,29
 254 1279 254 1279 268 1258 c 2,30,-1
 546 841 l 2,31,32
 550 835 550 835 561 835 c 128,-1,33
 572 835 572 835 576 841 c 2,0,-1
EndSplineSet
Validated: 1
EndChar

StartChar: Z
Encoding: 90 90 58
Width: 1024
VWidth: 2175
GlyphClass: 2
Flags: W
HStem: 0 127<292.672 897> 1151 128<127 732.874>
DStem2: 134 142 291 153 0.52124 0.85341<76.3283 1165.9>
LayerCount: 2
Fore
SplineSet
306 127 m 2,0,-1
 863 127 l 2,1,2
 897 127 897 127 897 93 c 2,3,-1
 897 34 l 2,4,5
 897 0 897 0 863 0 c 2,6,-1
 161 0 l 2,7,8
 127 0 127 0 127 34 c 2,9,-1
 127 117 l 2,10,11
 127 130 127 130 134 142 c 2,12,-1
 735 1126 l 2,13,14
 737 1134 737 1134 733 1142.5 c 128,-1,15
 729 1151 729 1151 720 1151 c 2,16,-1
 161 1151 l 2,17,18
 127 1151 127 1151 127 1185 c 2,19,-1
 127 1245 l 2,20,21
 127 1279 127 1279 161 1279 c 2,22,-1
 863 1279 l 2,23,24
 897 1279 897 1279 897 1245 c 2,25,-1
 897 1158 l 2,26,27
 897 1143 897 1143 888 1134 c 2,28,-1
 291 153 l 2,29,30
 287 142 287 142 292.5 134.5 c 128,-1,31
 298 127 298 127 306 127 c 2,0,-1
EndSplineSet
Validated: 1
EndChar

StartChar: bracketleft
Encoding: 91 91 59
Width: 490
VWidth: 2175
GlyphClass: 2
Flags: W
HStem: -125 125<255 385> 1279 130<255 385>
VStem: 127 258<-125 -3.2e-007 1279 1409> 127 128<0 1279>
LayerCount: 2
Fore
SplineSet
351 -125 m 2,0,-1
 161 -125 l 2,1,2
 127 -125 127 -125 127 -91 c 2,3,-1
 127 1375 l 2,4,5
 127 1409 127 1409 161 1409 c 2,6,-1
 351 1409 l 2,7,8
 385 1409 385 1409 385 1375 c 2,9,-1
 385 1313 l 2,10,11
 385 1279 385 1279 351 1279 c 2,12,-1
 272 1279 l 2,13,14
 255 1279 255 1279 255 1262 c 2,15,-1
 255 17 l 2,16,17
 255 0 255 0 272 0 c 2,18,-1
 351 0 l 2,19,20
 385 0 385 0 385 -32 c 2,21,-1
 385 -91 l 2,22,23
 385 -125 385 -125 351 -125 c 2,0,-1
EndSplineSet
Validated: 1
EndChar

StartChar: backslash
Encoding: 92 92 60
Width: 871
VWidth: 2175
GlyphClass: 2
Flags: W
DStem2: 805 -202 684 -242 0.316381 -0.948632<-1969.16 14.596>
LayerCount: 2
Fore
SplineSet
187 1651 m 2,0,-1
 805 -202 l 2,1,2
 807 -208 807 -208 807 -217 c 0,3,4
 807 -236 807 -236 784 -244 c 2,5,-1
 727 -263 l 2,6,7
 723 -265 723 -265 714 -266 c 0,8,9
 693 -266 693 -266 684 -242 c 2,10,-1
 66 1610 l 2,11,12
 64 1616 64 1616 64 1627 c 0,13,14
 64 1648 64 1648 87 1655 c 2,15,-1
 144 1672 l 2,16,17
 150 1674 150 1674 159 1674 c 0,18,19
 181 1674 181 1674 187 1651 c 2,0,-1
EndSplineSet
Validated: 1
Colour: ff00
EndChar

StartChar: bracketright
Encoding: 93 93 61
Width: 490
VWidth: 2175
GlyphClass: 2
Flags: W
HStem: -125 125<106 236> 1279 130<106 236>
VStem: 106 257<-125 -3.2e-007 1279 1409> 236 127<1.7e-007 1279>
LayerCount: 2
Fore
SplineSet
363 1375 m 2,0,-1
 363 -91 l 2,1,2
 363 -125 363 -125 329 -125 c 2,3,-1
 140 -125 l 2,4,5
 106 -125 106 -125 106 -91 c 2,6,-1
 106 -32 l 2,7,8
 106 0 106 0 140 0 c 2,9,-1
 219 0 l 2,10,11
 236 0 236 0 236 17 c 2,12,-1
 236 1262 l 2,13,14
 236 1279 236 1279 219 1279 c 2,15,-1
 140 1279 l 2,16,17
 106 1279 106 1279 106 1313 c 2,18,-1
 106 1375 l 2,19,20
 106 1409 106 1409 140 1409 c 2,21,-1
 329 1409 l 2,22,23
 363 1409 363 1409 363 1375 c 2,0,-1
EndSplineSet
Validated: 1
Colour: ff00
EndChar

StartChar: asciicircum
Encoding: 94 94 62
Width: 896
VWidth: 2175
GlyphClass: 2
Flags: W
HStem: 1409 252
VStem: 132 633
DStem2: 147 1523 436 1521 0.898217 0.439553<-33.9012 284.36> 472 1661 465 1521 0.894427 -0.447214<30.7745 343.602>
LayerCount: 2
Fore
SplineSet
147 1523 m 2,0,-1
 429 1661 l 2,1,2
 450 1669 450 1669 472 1661 c 2,3,-1
 748 1523 l 2,4,5
 782 1506 782 1506 765 1477 c 2,6,-1
 737 1423 l 2,7,8
 720 1393 720 1393 693 1409 c 2,9,-1
 465 1521 l 2,10,11
 450 1523 450 1523 436 1521 c 2,12,-1
 204 1409 l 2,13,14
 172 1394 172 1394 157 1423 c 2,15,-1
 132 1477 l 2,16,17
 115 1506 115 1506 147 1523 c 2,0,-1
EndSplineSet
Validated: 1
EndChar

StartChar: underscore
Encoding: 95 95 63
Width: 1699
VWidth: 2175
GlyphClass: 2
Flags: W
HStem: -253 128<-42 1742>
LayerCount: 2
Fore
SplineSet
1708 -253 m 2,0,-1
 -8 -253 l 2,1,2
 -42 -253 -42 -253 -42 -219 c 2,3,-1
 -42 -159 l 2,4,5
 -42 -125 -42 -125 -8 -125 c 2,6,-1
 1708 -125 l 2,7,8
 1742 -125 1742 -125 1742 -159 c 2,9,-1
 1742 -219 l 2,10,11
 1742 -253 1742 -253 1708 -253 c 2,0,-1
EndSplineSet
Validated: 1
EndChar

StartChar: grave
Encoding: 96 96 64
Width: 429
VWidth: 2175
GlyphClass: 2
Flags: W
HStem: 1387 283
VStem: 130 172
DStem2: 302 1443 178 1413 0.231186 -0.972909<-241.664 33.9546>
LayerCount: 2
Fore
SplineSet
255 1644 m 2,0,-1
 302 1443 l 2,1,2
 308 1411 308 1411 276 1402 c 2,3,-1
 217 1387 l 2,4,5
 185 1381 185 1381 178 1413 c 2,6,-1
 130 1615 l 2,7,8
 124 1651 124 1651 153 1657 c 2,9,-1
 212 1670 l 2,10,11
 244 1680 244 1680 255 1644 c 2,0,-1
EndSplineSet
Validated: 1
EndChar

StartChar: a
Encoding: 97 97 65
Width: 1002
VWidth: 2175
GlyphClass: 2
Flags: W
HStem: 0 127<307.894 592.645 799 897> 767 127<294.707 639>
VStem: 127 128<180.256 728.84> 639 128<173.642 767>
LayerCount: 2
Fore
SplineSet
767 860 m 2,0,-1
 767 251 l 2,1,2
 767 209 767 209 798 172.5 c 128,-1,3
 829 136 829 136 869 132 c 0,4,5
 897 124 897 124 897 98 c 2,6,-1
 897 36 l 2,7,8
 897 2 897 2 856 2 c 0,9,10
 777 13 777 13 714 74 c 0,11,12
 697 91 697 91 667 70 c 0,13,14
 574 0 574 0 448 0 c 0,15,16
 321 0 321 0 224 72 c 128,-1,17
 127 144 127 144 127 255 c 2,18,-1
 127 639 l 2,19,20
 127 743 127 743 202.5 818.5 c 128,-1,21
 278 894 278 894 385 894 c 2,22,-1
 733 894 l 2,23,24
 767 894 767 894 767 860 c 2,0,-1
639 255 m 2,25,-1
 639 750 l 2,26,27
 639 767 639 767 622 767 c 2,28,-1
 385 767 l 2,29,30
 332 767 332 767 293.5 730 c 128,-1,31
 255 693 255 693 255 639 c 2,32,-1
 255 255 l 2,33,34
 255 210 255 210 311.5 168.5 c 128,-1,35
 368 127 368 127 448 127 c 0,36,37
 518 127 518 127 578.5 162.5 c 128,-1,38
 639 198 639 198 639 255 c 2,25,-1
EndSplineSet
Validated: 1
EndChar

StartChar: b
Encoding: 98 98 66
Width: 894
VWidth: 2175
GlyphClass: 2
Flags: W
HStem: 0 127<255 600.84> 767 130<255 600.84> 1259 20G<144 238>
VStem: 127 128<127 767 897 1279> 639 128<165.676 728.324>
LayerCount: 2
Fore
SplineSet
767 639 m 2,0,-1
 767 255 l 2,1,2
 767 149 767 149 691.5 74.5 c 128,-1,3
 616 0 616 0 512 0 c 2,4,-1
 161 0 l 2,5,6
 127 0 127 0 127 34 c 2,7,-1
 127 1245 l 2,8,9
 127 1279 127 1279 161 1279 c 2,10,-1
 221 1279 l 2,11,12
 255 1279 255 1279 255 1245 c 2,13,-1
 255 914 l 2,14,15
 255 897 255 897 274 897 c 2,16,-1
 512 897 l 2,17,18
 616 897 616 897 691.5 820 c 128,-1,19
 767 743 767 743 767 639 c 2,0,-1
639 255 m 2,20,-1
 639 639 l 2,21,22
 639 692 639 692 602 729.5 c 128,-1,23
 565 767 565 767 512 767 c 2,24,-1
 274 767 l 2,25,26
 255 767 255 767 255 750 c 2,27,-1
 255 144 l 2,28,29
 255 127 255 127 274 127 c 2,30,-1
 512 127 l 2,31,32
 565 127 565 127 602 164.5 c 128,-1,33
 639 202 639 202 639 255 c 2,20,-1
EndSplineSet
Validated: 1
EndChar

StartChar: c
Encoding: 99 99 67
Width: 766
VWidth: 2175
GlyphClass: 2
Flags: W
HStem: 0 127<289.351 639> 767 130<294.707 639>
VStem: 127 128<160.937 728.84>
LayerCount: 2
Fore
SplineSet
639 863 m 2,0,-1
 639 801 l 2,1,2
 639 767 639 767 605 767 c 2,3,-1
 385 767 l 2,4,5
 332 767 332 767 293.5 730 c 128,-1,6
 255 693 255 693 255 639 c 2,7,-1
 255 255 l 2,8,9
 255 204 255 204 293 165.5 c 128,-1,10
 331 127 331 127 385 127 c 2,11,-1
 605 127 l 2,12,13
 639 127 639 127 639 93 c 2,14,-1
 639 34 l 2,15,16
 639 0 639 0 605 0 c 2,17,-1
 385 0 l 2,18,19
 279 0 279 0 203 75.5 c 128,-1,20
 127 151 127 151 127 255 c 2,21,-1
 127 639 l 2,22,23
 127 743 127 743 203.5 820 c 128,-1,24
 280 897 280 897 385 897 c 2,25,-1
 605 897 l 2,26,27
 639 897 639 897 639 863 c 2,0,-1
EndSplineSet
Validated: 1
EndChar

StartChar: d
Encoding: 100 100 68
Width: 894
VWidth: 2175
GlyphClass: 2
Flags: W
HStem: 0 127<293.16 639> 767 130<293.16 639> 1259 20G<656 750>
VStem: 127 128<165.676 728.324> 639 128<127 767 897 1279>
LayerCount: 2
Fore
SplineSet
767 1245 m 2,0,-1
 767 34 l 2,1,2
 767 0 767 0 733 0 c 2,3,-1
 382 0 l 2,4,5
 276 0 276 0 201.5 74.5 c 128,-1,6
 127 149 127 149 127 255 c 2,7,-1
 127 639 l 2,8,9
 127 743 127 743 202.5 820 c 128,-1,10
 278 897 278 897 382 897 c 2,11,-1
 620 897 l 2,12,13
 639 897 639 897 639 914 c 2,14,-1
 639 1245 l 2,15,16
 639 1279 639 1279 673 1279 c 2,17,-1
 733 1279 l 2,18,19
 767 1279 767 1279 767 1245 c 2,0,-1
255 639 m 2,20,-1
 255 255 l 2,21,22
 255 202 255 202 292 164.5 c 128,-1,23
 329 127 329 127 382 127 c 2,24,-1
 620 127 l 2,25,26
 639 127 639 127 639 144 c 2,27,-1
 639 750 l 2,28,29
 639 767 639 767 620 767 c 2,30,-1
 382 767 l 2,31,32
 329 767 329 767 292 729.5 c 128,-1,33
 255 692 255 692 255 639 c 2,20,-1
EndSplineSet
Validated: 1
Colour: ff00
EndChar

StartChar: e
Encoding: 101 101 69
Width: 894
VWidth: 2175
GlyphClass: 2
Flags: W
HStem: 0 127<289.351 767> 385 127<255 639> 767 130<304.389 593.379>
VStem: 127 128<160.937 385 512 716.438> 639 128<512 721.09>
LayerCount: 2
Fore
SplineSet
274 512 m 2,0,-1
 622 512 l 2,1,2
 639 512 639 512 639 529 c 2,3,-1
 639 639 l 2,4,5
 639 696 639 696 579.5 731.5 c 128,-1,6
 520 767 520 767 448 767 c 0,7,8
 359 767 359 767 306 724 c 0,9,10
 255 686 255 686 255 639 c 2,11,-1
 255 529 l 2,12,13
 255 512 255 512 274 512 c 2,0,-1
767 639 m 2,14,-1
 767 419 l 2,15,16
 767 385 767 385 733 385 c 2,17,-1
 274 385 l 2,18,19
 255 385 255 385 255 368 c 2,20,-1
 255 255 l 2,21,22
 255 204 255 204 293 165.5 c 128,-1,23
 331 127 331 127 385 127 c 2,24,-1
 733 127 l 2,25,26
 767 127 767 127 767 93 c 2,27,-1
 767 34 l 2,28,29
 767 0 767 0 733 0 c 2,30,-1
 385 0 l 2,31,32
 279 0 279 0 203 75.5 c 128,-1,33
 127 151 127 151 127 255 c 2,34,-1
 127 639 l 2,35,36
 127 749 127 749 224 823 c 128,-1,37
 321 897 321 897 448 897 c 0,38,39
 573 897 573 897 670 822 c 128,-1,40
 767 747 767 747 767 639 c 2,14,-1
EndSplineSet
Validated: 1
EndChar

StartChar: f
Encoding: 102 102 70
Width: 766
VWidth: 2175
GlyphClass: 2
Flags: W
HStem: 0 21G<274 368> 767 130<127 257 385 639> 1151 128<423.16 639>
VStem: 257 128<0 767 897 1112.84>
LayerCount: 2
Fore
SplineSet
639 863 m 2,0,-1
 639 801 l 2,1,2
 639 767 639 767 605 767 c 2,3,-1
 402 767 l 2,4,5
 385 767 385 767 385 750 c 2,6,-1
 385 34 l 2,7,8
 385 0 385 0 351 0 c 2,9,-1
 291 0 l 2,10,11
 257 0 257 0 257 34 c 2,12,-1
 257 750 l 2,13,14
 257 767 257 767 240 767 c 2,15,-1
 161 767 l 2,16,17
 127 767 127 767 127 801 c 2,18,-1
 127 863 l 2,19,20
 127 897 127 897 161 897 c 2,21,-1
 240 897 l 2,22,23
 257 897 257 897 257 914 c 2,24,-1
 257 1024 l 2,25,26
 257 1128 257 1128 332.5 1203.5 c 128,-1,27
 408 1279 408 1279 512 1279 c 2,28,-1
 605 1279 l 2,29,30
 639 1279 639 1279 639 1245 c 2,31,-1
 639 1185 l 2,32,33
 639 1151 639 1151 605 1151 c 2,34,-1
 512 1151 l 2,35,36
 459 1151 459 1151 422 1114 c 128,-1,37
 385 1077 385 1077 385 1024 c 2,38,-1
 385 914 l 2,39,40
 385 897 385 897 402 897 c 2,41,-1
 605 897 l 2,42,43
 639 897 639 897 639 863 c 2,0,-1
EndSplineSet
Validated: 1
EndChar

StartChar: g
Encoding: 103 103 71
Width: 894
VWidth: 2175
GlyphClass: 2
Flags: W
HStem: -382 127<191 600.84> 0 127<289.351 639> 767 130<294.707 639>
VStem: 127 128<160.937 728.324> 639 128<-215.293 -1.5e-007 127 767>
LayerCount: 2
Fore
SplineSet
767 863 m 2,0,-1
 767 -125 l 2,1,2
 767 -231 767 -231 691.5 -306.5 c 128,-1,3
 616 -382 616 -382 512 -382 c 2,4,-1
 225 -382 l 2,5,6
 191 -382 191 -382 191 -348 c 2,7,-1
 191 -289 l 2,8,9
 191 -255 191 -255 225 -255 c 2,10,-1
 512 -255 l 2,11,12
 565 -255 565 -255 602 -216.5 c 128,-1,13
 639 -178 639 -178 639 -125 c 2,14,-1
 639 -15 l 2,15,16
 639 0 639 0 622 0 c 2,17,-1
 385 0 l 2,18,19
 279 0 279 0 203 75.5 c 128,-1,20
 127 151 127 151 127 255 c 2,21,-1
 127 639 l 2,22,23
 127 743 127 743 203.5 820 c 128,-1,24
 280 897 280 897 385 897 c 2,25,-1
 733 897 l 2,26,27
 767 897 767 897 767 863 c 2,0,-1
255 639 m 2,28,-1
 255 255 l 2,29,30
 255 204 255 204 293 165.5 c 128,-1,31
 331 127 331 127 385 127 c 2,32,-1
 622 127 l 2,33,34
 639 127 639 127 639 144 c 2,35,-1
 639 750 l 2,36,37
 639 767 639 767 622 767 c 2,38,-1
 385 767 l 2,39,40
 332 767 332 767 293.5 729.5 c 128,-1,41
 255 692 255 692 255 639 c 2,28,-1
EndSplineSet
Validated: 1
EndChar

StartChar: h
Encoding: 104 104 72
Width: 894
VWidth: 2175
GlyphClass: 2
Flags: W
HStem: 0 21G<144 238 656 750> 767 130<255 600.84> 1259 20G<144 238>
VStem: 127 128<0 767 897 1279> 639 128<0 728.324>
LayerCount: 2
Fore
SplineSet
767 639 m 2,0,-1
 767 34 l 2,1,2
 767 0 767 0 733 0 c 2,3,-1
 673 0 l 2,4,5
 639 0 639 0 639 34 c 2,6,-1
 639 639 l 2,7,8
 639 692 639 692 602 729.5 c 128,-1,9
 565 767 565 767 512 767 c 2,10,-1
 272 767 l 2,11,12
 255 767 255 767 255 750 c 2,13,-1
 255 34 l 2,14,15
 255 0 255 0 221 0 c 2,16,-1
 161 0 l 2,17,18
 127 0 127 0 127 34 c 2,19,-1
 127 1245 l 2,20,21
 127 1279 127 1279 161 1279 c 2,22,-1
 221 1279 l 2,23,24
 255 1279 255 1279 255 1245 c 2,25,-1
 255 914 l 2,26,27
 255 897 255 897 272 897 c 2,28,-1
 512 897 l 2,29,30
 616 897 616 897 691.5 821 c 128,-1,31
 767 745 767 745 767 639 c 2,0,-1
EndSplineSet
Validated: 1
EndChar

StartChar: i
Encoding: 105 105 73
Width: 382
VWidth: 2175
GlyphClass: 2
Flags: W
HStem: 1151 128<127 255>
VStem: 127 128<0 897 1151 1279>
LayerCount: 2
Fore
SplineSet
127 34 m 2,0,-1
 127 863 l 6,1,2
 127 897 127 897 161 897 c 6,3,-1
 221 897 l 6,4,5
 255 897 255 897 255 863 c 6,6,-1
 255 34 l 2,7,8
 255 0 255 0 221 0 c 2,9,-1
 161 0 l 2,10,11
 127 0 127 0 127 34 c 2,0,-1
127 1185 m 2,12,-1
 127 1245 l 2,13,14
 127 1279 127 1279 161 1279 c 2,15,-1
 221 1279 l 2,16,17
 255 1279 255 1279 255 1245 c 2,18,-1
 255 1185 l 2,19,20
 255 1151 255 1151 221 1151 c 2,21,-1
 161 1151 l 2,22,23
 127 1151 127 1151 127 1185 c 2,12,-1
EndSplineSet
EndChar

StartChar: j
Encoding: 106 106 74
Width: 575
VWidth: 2175
GlyphClass: 2
Flags: W
HStem: -382 127<64 286.532> 877 20G<338 431> 1151 128<321 448>
VStem: 321 127<-220.532 897 1151 1279>
LayerCount: 2
Fore
SplineSet
448 863 m 2,0,-1
 448 -125 l 2,1,2
 448 -231 448 -231 372.5 -306.5 c 128,-1,3
 297 -382 297 -382 191 -382 c 2,4,-1
 98 -382 l 2,5,6
 64 -382 64 -382 64 -348 c 2,7,-1
 64 -289 l 2,8,9
 64 -255 64 -255 98 -255 c 2,10,-1
 191 -255 l 2,11,12
 244 -255 244 -255 282.5 -216.5 c 128,-1,13
 321 -178 321 -178 321 -125 c 2,14,-1
 321 863 l 2,15,16
 321 897 321 897 355 897 c 2,17,-1
 414 897 l 2,18,19
 448 897 448 897 448 863 c 2,0,-1
321 1185 m 2,20,-1
 321 1245 l 2,21,22
 321 1279 321 1279 355 1279 c 2,23,-1
 414 1279 l 2,24,25
 448 1279 448 1279 448 1245 c 2,26,-1
 448 1185 l 2,27,28
 448 1151 448 1151 414 1151 c 2,29,-1
 355 1151 l 2,30,31
 321 1151 321 1151 321 1185 c 2,20,-1
EndSplineSet
Validated: 1
EndChar

StartChar: k
Encoding: 107 107 75
Width: 862
VWidth: 2175
GlyphClass: 2
Flags: W
HStem: 0 21G<144 238 647 739> 877 20G<617.5 715.5> 1259 20G<144 238>
VStem: 127 128<0 402.812 558.641 1279>
DStem2: 278 561 448 554 0.7025 0.711683<92.1565 515.977> 446 533 357 438 0.537557 -0.843227<25.7787 580.341>
LayerCount: 2
Fore
SplineSet
255 1245 m 2,0,-1
 255 571 l 2,1,2
 255 563 255 563 262.5 558.5 c 128,-1,3
 270 554 270 554 278 561 c 2,4,-1
 593 882 l 2,5,6
 608 897 608 897 627 897 c 2,7,-1
 705 897 l 2,8,9
 726 897 726 897 735 875.5 c 128,-1,10
 744 854 744 854 729 837 c 2,11,-1
 448 554 l 2,12,13
 440 543 440 543 446 533 c 2,14,-1
 752 53 l 2,15,16
 756 40 756 40 756 34 c 0,17,18
 756 0 756 0 722 0 c 2,19,-1
 661 0 l 2,20,21
 633 0 633 0 620 21 c 2,22,-1
 357 438 l 2,23,24
 349 453 349 453 336 440 c 2,25,-1
 270 372 l 2,26,27
 255 357 255 357 255 338 c 2,28,-1
 255 34 l 2,29,30
 255 0 255 0 221 0 c 2,31,-1
 161 0 l 2,32,33
 127 0 127 0 127 34 c 2,34,-1
 127 1245 l 2,35,36
 127 1279 127 1279 161 1279 c 2,37,-1
 221 1279 l 2,38,39
 255 1279 255 1279 255 1245 c 2,0,-1
EndSplineSet
Validated: 1
EndChar

StartChar: l
Encoding: 108 108 76
Width: 448
VWidth: 2175
GlyphClass: 2
Flags: W
HStem: 0 127<258.301 385> 1259 20G<144 238>
VStem: 127 128<131.173 1279>
LayerCount: 2
Fore
SplineSet
385 93 m 2,0,-1
 385 34 l 2,1,2
 385 0 385 0 351 0 c 2,3,-1
 321 0 l 2,4,5
 242 0 242 0 184.5 56.5 c 128,-1,6
 127 113 127 113 127 191 c 2,7,-1
 127 1245 l 2,8,9
 127 1279 127 1279 161 1279 c 2,10,-1
 221 1279 l 2,11,12
 255 1279 255 1279 255 1245 c 2,13,-1
 255 191 l 2,14,15
 255 166 255 166 275 146.5 c 128,-1,16
 295 127 295 127 321 127 c 2,17,-1
 351 127 l 2,18,19
 385 127 385 127 385 93 c 2,0,-1
EndSplineSet
Validated: 1
EndChar

StartChar: m
Encoding: 109 109 77
Width: 1151
VWidth: 2175
GlyphClass: 2
Flags: W
HStem: 0 21G<144 238 529 622 914 1007> 767 130<255 512 639 857.293>
VStem: 127 128<0 767> 512 127<0 767> 897 127<0 728.324>
LayerCount: 2
Fore
SplineSet
1024 639 m 2,0,-1
 1024 34 l 2,1,2
 1024 0 1024 0 990 0 c 2,3,-1
 931 0 l 2,4,5
 897 0 897 0 897 34 c 2,6,-1
 897 639 l 2,7,8
 897 692 897 692 858.5 729.5 c 128,-1,9
 820 767 820 767 767 767 c 2,10,-1
 656 767 l 2,11,12
 639 767 639 767 639 750 c 2,13,-1
 639 34 l 2,14,15
 639 0 639 0 605 0 c 2,16,-1
 546 0 l 2,17,18
 512 0 512 0 512 34 c 2,19,-1
 512 750 l 2,20,21
 512 767 512 767 495 767 c 2,22,-1
 272 767 l 2,23,24
 255 767 255 767 255 750 c 2,25,-1
 255 34 l 2,26,27
 255 0 255 0 221 0 c 2,28,-1
 161 0 l 2,29,30
 127 0 127 0 127 34 c 2,31,-1
 127 863 l 2,32,33
 127 897 127 897 161 897 c 6,34,-1
 767 897 l 2,35,36
 871 897 871 897 947.5 820 c 128,-1,37
 1024 743 1024 743 1024 639 c 2,0,-1
EndSplineSet
Validated: 1
EndChar

StartChar: n
Encoding: 110 110 78
Width: 894
VWidth: 2175
GlyphClass: 2
Flags: W
HStem: 770 127<255 600.84>
VStem: 127 128<0 770> 639 128<0 731.324>
LayerCount: 2
Fore
SplineSet
767 642 m 6,0,-1
 767 34 l 2,1,2
 767 0 767 0 733 0 c 2,3,-1
 673 0 l 2,4,5
 639 0 639 0 639 34 c 2,6,-1
 639 642 l 6,7,8
 639 695 639 695 602 732.5 c 132,-1,9
 565 770 565 770 512 770 c 6,10,-1
 272 770 l 6,11,12
 255 770 255 770 255 753 c 6,13,-1
 255 34 l 2,14,15
 255 0 255 0 221 0 c 2,16,-1
 161 0 l 2,17,18
 127 0 127 0 127 34 c 2,19,-1
 127 863 l 6,20,21
 127 897 127 897 161 897 c 6,22,-1
 512 897 l 6,23,24
 616 897 616 897 691.5 821.5 c 132,-1,25
 767 746 767 746 767 642 c 6,0,-1
EndSplineSet
EndChar

StartChar: o
Encoding: 111 111 79
Width: 896
VWidth: 2175
GlyphClass: 2
Flags: W
HStem: 0 127<304.467 591.644> 767 130<304.389 593.379>
VStem: 127 128<177.234 716.438> 639 128<172.944 721.09>
LayerCount: 2
Fore
SplineSet
639 255 m 2,0,-1
 639 639 l 2,1,2
 639 696 639 696 579.5 731.5 c 128,-1,3
 520 767 520 767 448 767 c 0,4,5
 359 767 359 767 306 724 c 0,6,7
 255 686 255 686 255 639 c 2,8,-1
 255 255 l 2,9,10
 255 200 255 200 317.5 163.5 c 128,-1,11
 380 127 380 127 448 127 c 0,12,13
 518 127 518 127 578.5 162.5 c 128,-1,14
 639 198 639 198 639 255 c 2,0,-1
767 639 m 2,15,-1
 767 255 l 2,16,17
 767 147 767 147 670.5 73.5 c 128,-1,18
 574 0 574 0 448 0 c 0,19,20
 321 0 321 0 224 72 c 128,-1,21
 127 144 127 144 127 255 c 2,22,-1
 127 639 l 2,23,24
 127 749 127 749 224 823 c 128,-1,25
 321 897 321 897 448 897 c 0,26,27
 573 897 573 897 670 822 c 128,-1,28
 767 747 767 747 767 639 c 2,15,-1
EndSplineSet
Validated: 1
EndChar

StartChar: p
Encoding: 112 112 80
Width: 894
VWidth: 2175
GlyphClass: 2
Flags: W
HStem: 0 127<257 600.84> 767 127<257 600.84>
VStem: 127 130<-382 0 127 767> 639 128<165.676 728.324>
LayerCount: 2
Fore
SplineSet
639 255 m 2,0,-1
 639 639 l 2,1,2
 639 692 639 692 602 729.5 c 128,-1,3
 565 767 565 767 512 767 c 2,4,-1
 274 767 l 2,5,6
 257 767 257 767 257 750 c 2,7,-1
 257 144 l 2,8,9
 257 127 257 127 274 127 c 2,10,-1
 512 127 l 2,11,12
 565 127 565 127 602 164.5 c 128,-1,13
 639 202 639 202 639 255 c 2,0,-1
767 639 m 2,14,-1
 767 255 l 2,15,16
 767 149 767 149 691.5 74.5 c 128,-1,17
 616 0 616 0 512 0 c 2,18,-1
 274 0 l 2,19,20
 257 0 257 0 257 -15 c 2,21,-1
 257 -348 l 2,22,23
 257 -382 257 -382 221 -382 c 2,24,-1
 161 -382 l 2,25,26
 127 -382 127 -382 127 -348 c 2,27,-1
 127 860 l 2,28,29
 127 894 127 894 161 894 c 2,30,-1
 512 894 l 2,31,32
 616 894 616 894 691.5 818.5 c 128,-1,33
 767 743 767 743 767 639 c 2,14,-1
EndSplineSet
Validated: 1
EndChar

StartChar: q
Encoding: 113 113 81
Width: 894
VWidth: 2175
GlyphClass: 2
Flags: W
HStem: 0 127<293.16 637> 767 127<293.16 637>
VStem: 127 128<165.676 728.84> 637 130<-382 -1.5e-007 127 767>
LayerCount: 2
Fore
SplineSet
637 144 m 2,0,-1
 637 750 l 2,1,2
 637 767 637 767 620 767 c 2,3,-1
 382 767 l 2,4,5
 329 767 329 767 292 730 c 128,-1,6
 255 693 255 693 255 639 c 2,7,-1
 255 255 l 2,8,9
 255 202 255 202 292 164.5 c 128,-1,10
 329 127 329 127 382 127 c 2,11,-1
 620 127 l 2,12,13
 637 127 637 127 637 144 c 2,0,-1
767 860 m 2,14,-1
 767 -348 l 2,15,16
 767 -382 767 -382 733 -382 c 2,17,-1
 673 -382 l 2,18,19
 637 -382 637 -382 637 -348 c 2,20,-1
 637 -15 l 2,21,22
 637 0 637 0 620 0 c 2,23,-1
 382 0 l 2,24,25
 276 0 276 0 201.5 74.5 c 128,-1,26
 127 149 127 149 127 255 c 2,27,-1
 127 639 l 2,28,29
 127 743 127 743 201.5 818.5 c 128,-1,30
 276 894 276 894 382 894 c 2,31,-1
 733 894 l 2,32,33
 767 894 767 894 767 860 c 2,14,-1
EndSplineSet
Validated: 1
Colour: ff00
EndChar

StartChar: r
Encoding: 114 114 82
Width: 764
VWidth: 2175
GlyphClass: 2
Flags: W
HStem: 0 21G<144 238> 767 130<255 480.479>
VStem: 127 128<0 767> 510 127<651.376 737.213>
LayerCount: 2
Fore
SplineSet
127 34 m 2,0,-1
 127 863 l 2,1,2
 127 897 127 897 161 897 c 2,3,-1
 385 897 l 2,4,5
 483 897 483 897 560 832 c 128,-1,6
 637 767 637 767 637 680 c 0,7,8
 637 663 637 663 627.5 651 c 128,-1,9
 618 639 618 639 603 639 c 2,10,-1
 542 639 l 2,11,12
 517 639 517 639 510 667 c 0,13,14
 502 709 502 709 466.5 738 c 128,-1,15
 431 767 431 767 385 767 c 2,16,-1
 272 767 l 2,17,18
 255 767 255 767 255 750 c 2,19,-1
 255 34 l 2,20,21
 255 0 255 0 221 0 c 2,22,-1
 161 0 l 2,23,24
 127 0 127 0 127 34 c 2,0,-1
EndSplineSet
Validated: 1
EndChar

StartChar: s
Encoding: 115 115 83
Width: 894
VWidth: 2175
GlyphClass: 2
Flags: W
HStem: 0 127<246.453 620.416> 76 109<176.534 251.318> 767 130<273.723 651.721>
VStem: 127 128<624.658 738.411> 639 128<155.973 272.534>
DStem2: 359 582 287 478 0.834802 -0.55055<-147.635 441.714>
LayerCount: 2
Fore
SplineSet
741 818 m 0,0,1
 769 801 769 801 752 771 c 2,2,-1
 720 720 l 2,3,4
 703 692 703 692 673 712 c 0,5,6
 580 767 580 767 448 767 c 0,7,8
 348 767 348 767 293 737 c 0,9,10
 259 718 259 718 255 693 c 0,11,12
 255 676 255 676 269 656.5 c 128,-1,13
 283 637 283 637 294.5 627.5 c 128,-1,14
 306 618 306 618 331 599 c 2,15,-1
 359 582 l 1,16,-1
 610 419 l 2,17,18
 678 370 678 370 718 331 c 0,19,20
 767 282 767 282 767 202 c 0,21,22
 767 104 767 104 672.5 52 c 128,-1,23
 578 0 578 0 448 0 c 0,24,25
 282 0 282 0 155 76 c 0,26,27
 125 99 125 99 144 125 c 2,28,-1
 176 174 l 2,29,30
 193 197 193 197 223 185 c 0,31,32
 312 128 312 128 448 127 c 0,33,34
 544 127 544 127 601 159 c 0,35,36
 639 178 639 178 639 204 c 0,37,38
 639 212 639 212 636 222 c 128,-1,39
 633 232 633 232 627.5 239 c 128,-1,40
 622 246 622 246 613.5 254.5 c 128,-1,41
 605 263 605 263 599 268.5 c 128,-1,42
 593 274 593 274 582 282.5 c 128,-1,43
 571 291 571 291 566 294 c 128,-1,44
 561 297 561 297 550.5 304.5 c 128,-1,45
 540 312 540 312 537 312 c 2,46,-1
 287 478 l 2,47,48
 223 518 223 518 178 563 c 0,49,50
 127 612 127 612 127 695 c 0,51,52
 127 793 127 793 222 845 c 128,-1,53
 317 897 317 897 448 897 c 0,54,55
 609 897 609 897 741 818 c 0,0,1
EndSplineSet
Validated: 1
EndChar

StartChar: t
Encoding: 116 116 84
Width: 766
VWidth: 2175
GlyphClass: 2
Flags: W
HStem: 0 21G<272 368> 767 127<127 255 385 639> 1259 20G<272 368>
VStem: 255 130<0 767 894 1279>
LayerCount: 2
Fore
SplineSet
255 34 m 2,0,-1
 255 750 l 2,1,2
 255 767 255 767 238 767 c 2,3,-1
 161 767 l 2,4,5
 127 767 127 767 127 801 c 2,6,-1
 127 860 l 2,7,8
 127 894 127 894 161 894 c 2,9,-1
 238 894 l 2,10,11
 255 894 255 894 255 911 c 2,12,-1
 255 1245 l 2,13,14
 255 1279 255 1279 289 1279 c 2,15,-1
 351 1279 l 2,16,17
 385 1279 385 1279 385 1245 c 2,18,-1
 385 911 l 2,19,20
 385 894 385 894 402 894 c 2,21,-1
 605 894 l 2,22,23
 639 894 639 894 639 860 c 2,24,-1
 639 801 l 2,25,26
 639 767 639 767 605 767 c 2,27,-1
 402 767 l 2,28,29
 385 767 385 767 385 750 c 2,30,-1
 385 34 l 2,31,32
 385 0 385 0 351 0 c 2,33,-1
 289 0 l 2,34,35
 255 0 255 0 255 34 c 2,0,-1
EndSplineSet
Validated: 1
EndChar

StartChar: u
Encoding: 117 117 85
Width: 894
VWidth: 2175
GlyphClass: 2
Flags: W
HStem: 0 127<293.16 639> 874 20G<144 238 656 750>
VStem: 127 128<165.676 894> 639 128<127 894>
LayerCount: 2
Fore
SplineSet
127 255 m 2,0,-1
 127 860 l 2,1,2
 127 894 127 894 161 894 c 2,3,-1
 221 894 l 2,4,5
 255 894 255 894 255 860 c 2,6,-1
 255 255 l 2,7,8
 255 202 255 202 292 164.5 c 128,-1,9
 329 127 329 127 382 127 c 2,10,-1
 622 127 l 2,11,12
 639 127 639 127 639 144 c 2,13,-1
 639 860 l 2,14,15
 639 894 639 894 673 894 c 2,16,-1
 733 894 l 2,17,18
 767 894 767 894 767 860 c 2,19,-1
 767 34 l 2,20,21
 767 0 767 0 733 0 c 2,22,-1
 382 0 l 2,23,24
 276 0 276 0 201.5 74.5 c 128,-1,25
 127 149 127 149 127 255 c 2,0,-1
EndSplineSet
Validated: 1
Colour: ff00
EndChar

StartChar: v
Encoding: 118 118 86
Width: 890
VWidth: 2175
GlyphClass: 2
Flags: W
HStem: 0 21G<392 498> 877 20G<154 230.5 659.5 737.5>
VStem: 130 633
DStem2: 433 268 372 23 0.280222 -0.959935<-668.198 0> 633 863 763 852 0.281289 0.959623<-619.92 48.4715>
LayerCount: 2
Fore
SplineSet
259 863 m 2,0,-1
 433 268 l 2,1,2
 435 260 435 260 446 259.5 c 128,-1,3
 457 259 457 259 459 268 c 2,4,-1
 633 863 l 2,5,6
 641 897 641 897 678 897 c 2,7,-1
 731 897 l 2,8,9
 744 897 744 897 755.5 883 c 128,-1,10
 767 869 767 869 763 852 c 2,11,-1
 520 23 l 2,12,13
 509 0 509 0 487 0 c 2,14,-1
 406 0 l 2,15,16
 378 0 378 0 372 23 c 2,17,-1
 130 852 l 2,18,19
 124 867 124 867 135.5 882 c 128,-1,20
 147 897 147 897 161 897 c 2,21,-1
 215 897 l 2,22,23
 246 897 246 897 259 863 c 2,0,-1
EndSplineSet
Validated: 1
EndChar

StartChar: w
Encoding: 119 119 87
Width: 1151
VWidth: 2175
GlyphClass: 2
Flags: W
HStem: 0 21G<330 441 710.5 817> 877 20G<155 229 922 996.5>
DStem2: 391 266 310 28 0.216305 -0.976326<-655.935 12.5185> 761 266 837 28 0.220804 0.975318<-13.6483 657.016>
LayerCount: 2
Fore
SplineSet
1024 854 m 2,0,-1
 837 28 l 2,1,2
 831 0 831 0 803 0 c 2,3,-1
 722 0 l 2,4,5
 699 0 699 0 693 21 c 2,6,-1
 586 297 l 2,7,8
 582 305 582 305 573.5 305.5 c 128,-1,9
 565 306 565 306 561 297 c 2,10,-1
 459 21 l 2,11,12
 453 0 453 0 429 0 c 2,13,-1
 344 0 l 2,14,15
 316 0 316 0 310 28 c 2,16,-1
 127 854 l 2,17,18
 125 869 125 869 137 883 c 128,-1,19
 149 897 149 897 161 897 c 2,20,-1
 212 897 l 2,21,22
 246 897 246 897 259 858 c 2,23,-1
 391 266 l 2,24,25
 391 255 391 255 399.5 255 c 128,-1,26
 408 255 408 255 412 263 c 2,27,-1
 506 512 l 2,28,29
 512 533 512 533 540 533 c 2,30,-1
 612 533 l 2,31,32
 635 533 635 533 642 512 c 2,33,-1
 735 263 l 2,34,35
 739 255 739 255 747.5 255 c 128,-1,36
 756 255 756 255 761 266 c 2,37,-1
 892 858 l 2,38,39
 905 896 905 896 939 897 c 2,40,-1
 990 897 l 2,41,42
 1003 897 1003 897 1014.5 883 c 128,-1,43
 1026 869 1026 869 1024 854 c 2,0,-1
EndSplineSet
Validated: 1
EndChar

StartChar: x
Encoding: 120 120 88
Width: 890
VWidth: 2175
GlyphClass: 2
Flags: W
HStem: 0 21G<156.5 239 653 735> 877 20G<154 236.5 653.5 737.5>
VStem: 127 631
DStem2: 134 51 266 23 0.514342 0.857585<-9.67773 382.71 629.228 1013.03> 436 591 361 465 0.513574 -0.858045<-383.164 0 246.64 638.178>
LayerCount: 2
Fore
SplineSet
531 431 m 2,0,-1
 758 51 l 2,1,2
 762 38 762 38 763 34 c 0,3,4
 763 19 763 19 752 9.5 c 128,-1,5
 741 0 741 0 729 0 c 2,6,-1
 667 0 l 2,7,8
 639 0 639 0 627 23 c 2,9,-1
 457 306 l 2,10,11
 455 310 455 310 446.5 310 c 128,-1,12
 438 310 438 310 436 306 c 2,13,-1
 266 23 l 2,14,15
 253 0 253 0 225 0 c 2,16,-1
 164 0 l 2,17,18
 149 0 149 0 138 9.5 c 128,-1,19
 127 19 127 19 127 34 c 0,20,21
 127 42 127 42 134 51 c 2,22,-1
 361 431 l 2,23,24
 367 448 367 448 361 465 c 2,25,-1
 134 843 l 2,26,27
 123 860 123 860 133.5 878.5 c 128,-1,28
 144 897 144 897 164 897 c 2,29,-1
 225 897 l 2,30,31
 248 897 248 897 266 873 c 2,32,-1
 436 591 l 2,33,34
 438 587 438 587 446.5 586.5 c 128,-1,35
 455 586 455 586 457 591 c 2,36,-1
 627 873 l 2,37,38
 640 896 640 896 667 897 c 2,39,-1
 729 897 l 2,40,41
 746 897 746 897 757.5 880 c 128,-1,42
 769 863 769 863 758 843 c 2,43,-1
 531 465 l 2,44,45
 518 448 518 448 531 431 c 2,0,-1
EndSplineSet
Validated: 1
EndChar

StartChar: y
Encoding: 121 121 89
Width: 885
VWidth: 2175
GlyphClass: 2
Flags: W
HStem: -382 127<130 236.387> 877 20G<152.5 234 657.5 734.5>
VStem: 130 628
DStem2: 242 -198 363 -240 0.340704 0.940171<-73.3924 456.324 630.985 1180.82> 438 404 376 204 0.355875 -0.934534<-544.331 10.4129>
LayerCount: 2
Fore
SplineSet
130 -348 m 2,0,-1
 130 -289 l 2,1,2
 130 -255 130 -255 164 -255 c 0,3,4
 226 -244 226 -244 242 -198 c 2,5,-1
 378 172 l 2,6,7
 380 183 380 183 376 204 c 2,8,-1
 130 850 l 2,9,10
 124 865 124 865 134 881 c 128,-1,11
 144 897 144 897 161 897 c 2,12,-1
 217 897 l 2,13,14
 251 897 251 897 261 865 c 2,15,-1
 438 404 l 2,16,17
 442 398 442 398 450.5 397.5 c 128,-1,18
 459 397 459 397 461 404 c 2,19,-1
 629 865 l 2,20,21
 642 897 642 897 673 897 c 2,22,-1
 727 897 l 2,23,24
 742 897 742 897 752.5 882 c 128,-1,25
 763 867 763 867 758 850 c 2,26,-1
 363 -240 l 2,27,28
 342 -297 342 -297 287 -339.5 c 128,-1,29
 232 -382 232 -382 164 -382 c 0,30,31
 151 -382 151 -382 140.5 -371.5 c 128,-1,32
 130 -361 130 -361 130 -348 c 2,0,-1
EndSplineSet
Validated: 1
EndChar

StartChar: z
Encoding: 122 122 90
Width: 894
VWidth: 2175
GlyphClass: 2
Flags: W
HStem: 0 127<301.095 767> 767 130<127 593.397>
VStem: 127 640<0 126.957 767.065 897>
DStem2: 138 140 304 149 0.599157 0.800632<92.9793 759.4>
LayerCount: 2
Fore
SplineSet
767 863 m 2,0,-1
 767 784 l 2,1,2
 767 765 767 765 758 756 c 2,3,-1
 304 149 l 2,4,5
 298 141 298 141 301 134 c 128,-1,6
 304 127 304 127 312 127 c 2,7,-1
 733 127 l 2,8,9
 767 127 767 127 767 93 c 2,10,-1
 767 34 l 2,11,12
 767 0 767 0 733 0 c 2,13,-1
 161 0 l 2,14,15
 127 0 127 0 127 34 c 2,16,-1
 127 113 l 2,17,18
 127 124 127 124 138 140 c 2,19,-1
 593 748 l 2,20,21
 606 767 606 767 582 767 c 2,22,-1
 161 767 l 2,23,24
 127 767 127 767 127 801 c 2,25,-1
 127 863 l 2,26,27
 127 897 127 897 161 897 c 2,28,-1
 733 897 l 2,29,30
 767 897 767 897 767 863 c 2,0,-1
EndSplineSet
Validated: 1
EndChar

StartChar: braceleft
Encoding: 123 123 91
Width: 703
VWidth: 2175
GlyphClass: 2
Flags: W
HStem: -125 125<465.396 568.202> 1279 130<464.181 578>
VStem: 321 127<17.0083 554.63 724.37 1263.15>
LayerCount: 2
Fore
SplineSet
448 448 m 2,0,-1
 448 96 l 2,1,2
 448 58 448 58 477 29 c 128,-1,3
 506 0 506 0 544 0 c 0,4,5
 578 0 578 0 578 -32 c 2,6,-1
 578 -91 l 2,7,8
 578 -104 578 -104 568.5 -114.5 c 128,-1,9
 559 -125 559 -125 544 -125 c 0,10,11
 455 -125 455 -125 388 -59.5 c 128,-1,12
 321 6 321 6 321 96 c 2,13,-1
 321 448 l 2,14,15
 321 544 321 544 238 580 c 1,16,-1
 151 608 l 2,17,18
 128 614 128 614 127.5 637.5 c 128,-1,19
 127 661 127 661 151 671 c 2,20,-1
 238 701 l 2,21,22
 274 712 274 712 297.5 749 c 128,-1,23
 321 786 321 786 321 831 c 2,24,-1
 321 1183 l 2,25,26
 321 1274 321 1274 387 1341.5 c 128,-1,27
 453 1409 453 1409 544 1409 c 0,28,29
 557 1409 557 1409 567.5 1398 c 128,-1,30
 578 1387 578 1387 578 1375 c 2,31,-1
 578 1313 l 2,32,33
 578 1279 578 1279 544 1279 c 0,34,35
 506 1279 506 1279 477 1250.5 c 128,-1,36
 448 1222 448 1222 448 1183 c 2,37,-1
 448 831 l 2,38,39
 448 716 448 716 382 646 c 0,40,41
 374 640 374 640 382 633 c 0,42,43
 448 563 448 563 448 448 c 2,0,-1
EndSplineSet
Validated: 1
Colour: ff00
EndChar

StartChar: bar
Encoding: 124 124 92
Width: 382
VWidth: 2175
GlyphClass: 2
Flags: W
VStem: 127 128<-385 1663>
LayerCount: 2
Fore
SplineSet
127 -351 m 2,0,-1
 127 1629 l 6,1,2
 127 1663 127 1663 161 1663 c 6,3,-1
 221 1663 l 6,4,5
 255 1663 255 1663 255 1629 c 6,6,-1
 255 -351 l 2,7,8
 255 -385 255 -385 221 -385 c 2,9,-1
 161 -385 l 2,10,11
 127 -385 127 -385 127 -351 c 2,0,-1
EndSplineSet
Validated: 19457
EndChar

StartChar: braceright
Encoding: 125 125 93
Width: 703
VWidth: 2175
GlyphClass: 2
Flags: W
HStem: -125 125<136.798 240.321> 1279 130<127 240.929>
VStem: 257 128<17.6162 556.642 724.37 1263.36>
LayerCount: 2
Fore
SplineSet
161 0 m 0,0,1
 199 0 199 0 228 28.5 c 128,-1,2
 257 57 257 57 257 96 c 2,3,-1
 257 448 l 2,4,5
 257 563 257 563 323 633 c 0,6,7
 331 639 331 639 323 646 c 0,8,9
 257 716 257 716 257 831 c 2,10,-1
 257 1183 l 2,11,12
 257 1221 257 1221 228.5 1250 c 128,-1,13
 200 1279 200 1279 161 1279 c 0,14,15
 127 1279 127 1279 127 1313 c 2,16,-1
 127 1375 l 2,17,18
 127 1388 127 1388 138 1398.5 c 128,-1,19
 149 1409 149 1409 161 1409 c 0,20,21
 252 1409 252 1409 318.5 1342 c 128,-1,22
 385 1275 385 1275 385 1183 c 2,23,-1
 385 831 l 2,24,25
 385 786 385 786 408 749 c 128,-1,26
 431 712 431 712 467 701 c 2,27,-1
 554 671 l 2,28,29
 577 660 577 660 577.5 637 c 128,-1,30
 578 614 578 614 554 608 c 2,31,-1
 467 580 l 1,32,33
 384 544 384 544 385 448 c 2,34,-1
 385 96 l 2,35,36
 385 7 385 7 318 -59 c 128,-1,37
 251 -125 251 -125 161 -125 c 0,38,39
 146 -125 146 -125 136.5 -114.5 c 128,-1,40
 127 -104 127 -104 127 -91 c 2,41,-1
 127 -32 l 2,42,43
 127 0 127 0 161 0 c 0,0,1
EndSplineSet
Validated: 33
EndChar

StartChar: asciitilde
Encoding: 126 126 94
Width: 1019
VWidth: 2175
GlyphClass: 2
Flags: W
HStem: 321 127<561.138 789.57> 446 130<231.891 469.78>
LayerCount: 2
Fore
SplineSet
680 448 m 0,0,1
 735 448 735 448 790 493 c 0,2,3
 811 510 811 510 835 493 c 2,4,-1
 882 453 l 2,5,6
 893 442 893 442 892 429 c 0,7,8
 892 418 892 418 882 404 c 0,9,10
 791 321 791 321 680 321 c 0,11,12
 597 321 597 321 535 361 c 0,13,14
 486 397 486 397 406 433 c 0,15,16
 370 446 370 446 340 446 c 0,17,18
 276 446 276 446 232 402 c 0,19,20
 209 383 209 383 185 402 c 2,21,-1
 140 440 l 2,22,23
 127 451 127 451 127 465.5 c 128,-1,24
 127 480 127 480 140 491 c 0,25,26
 225 576 225 576 340 576 c 0,27,28
 444 576 444 576 565 489 c 0,29,30
 614 448 614 448 680 448 c 0,0,1
EndSplineSet
Validated: 1
EndChar

StartChar: cent
Encoding: 162 162 96
Width: 830
VWidth: 2175
GlyphClass: 2
Flags: W
HStem: 0 21G<433 527> 127 128<294.191 416 544 703> 1024 127<288.838 416 544 703> 1259 20G<433 527>
VStem: 127 128<294.707 988.298> 416 128<0 127 255.602 1023.38 1151 1279>
LayerCount: 2
Fore
SplineSet
703 1117 m 2,0,-1
 703 1058 l 2,1,2
 703 1024 703 1024 669 1024 c 2,3,-1
 561 1024 l 2,4,5
 544 1024 544 1024 544 1007 c 2,6,-1
 544 272 l 2,7,8
 544 255 544 255 561 255 c 2,9,-1
 669 255 l 2,10,11
 703 255 703 255 703 221 c 2,12,-1
 703 161 l 2,13,14
 703 127 703 127 669 127 c 2,15,-1
 561 127 l 2,16,17
 544 127 544 127 544 110 c 2,18,-1
 544 34 l 2,19,20
 544 0 544 0 510 0 c 2,21,-1
 450 0 l 2,22,23
 416 0 416 0 416 34 c 2,24,-1
 416 110 l 2,25,26
 416 127 416 127 399 127 c 2,27,-1
 385 127 l 2,28,29
 281 127 281 127 204 203.5 c 128,-1,30
 127 280 127 280 127 385 c 2,31,-1
 127 894 l 2,32,33
 127 998 127 998 202.5 1074.5 c 128,-1,34
 278 1151 278 1151 385 1151 c 2,35,-1
 399 1151 l 2,36,37
 416 1151 416 1151 416 1168 c 2,38,-1
 416 1245 l 2,39,40
 416 1279 416 1279 450 1279 c 2,41,-1
 510 1279 l 2,42,43
 544 1279 544 1279 544 1245 c 2,44,-1
 544 1168 l 2,45,46
 544 1151 544 1151 561 1151 c 2,47,-1
 669 1151 l 2,48,49
 703 1151 703 1151 703 1117 c 2,0,-1
416 272 m 2,50,-1
 416 1007 l 2,51,52
 416 1024 416 1024 399 1024 c 2,53,-1
 385 1024 l 2,54,55
 332 1024 332 1024 293.5 984.5 c 128,-1,56
 255 945 255 945 255 894 c 2,57,-1
 255 385 l 2,58,59
 255 332 255 332 293 293.5 c 128,-1,60
 331 255 331 255 385 255 c 2,61,-1
 399 255 l 2,62,63
 403 255 403 255 409.5 260.5 c 128,-1,64
 416 266 416 266 416 272 c 2,50,-1
EndSplineSet
Validated: 1
EndChar

StartChar: sterling
Encoding: 163 163 97
Width: 1087
VWidth: 2175
GlyphClass: 2
Flags: W
HStem: 0 127<127 224.161 359.126 778.75> 576 127<127 257 385 639> 894 21G<786 880> 1151 128<453.471 696.527>
VStem: 257 128<160.979 576 703 1082.29> 769 128<894 1078.72> 829 129<175.43 289>
LayerCount: 2
Fore
SplineSet
897 960 m 2,0,-1
 897 931 l 2,1,2
 897 895 897 895 863 894 c 2,3,-1
 803 894 l 2,4,5
 769 894 769 894 769 931 c 2,6,-1
 769 960 l 2,7,8
 769 1036 769 1036 711.5 1093.5 c 128,-1,9
 654 1151 654 1151 576 1151 c 0,10,11
 500 1151 500 1151 440 1096 c 0,12,13
 385 1034 385 1034 385 960 c 2,14,-1
 385 720 l 2,15,16
 385 703 385 703 402 703 c 2,17,-1
 605 703 l 2,18,19
 639 703 639 703 639 669 c 2,20,-1
 639 610 l 2,21,22
 639 576 639 576 605 576 c 2,23,-1
 402 576 l 2,24,25
 385 576 385 576 385 559 c 2,26,-1
 385 255 l 2,27,28
 385 196 385 196 359 147 c 0,29,30
 355 141 355 141 359 134 c 128,-1,31
 363 127 363 127 370 127 c 2,32,-1
 671 127 l 2,33,34
 728 127 728 127 774 165.5 c 128,-1,35
 820 204 820 204 829 259 c 0,36,37
 835 289 835 289 863 289 c 2,38,-1
 924 289 l 2,39,40
 958 289 958 289 958 249 c 0,41,42
 958 145 958 145 872 72.5 c 128,-1,43
 786 0 786 0 671 0 c 2,44,-1
 161 0 l 2,45,46
 127 0 127 0 127 34 c 2,47,-1
 127 98 l 2,48,49
 127 123 127 123 155 132 c 0,50,51
 197 140 197 140 227 175 c 128,-1,52
 257 210 257 210 257 255 c 2,53,-1
 257 559 l 2,54,55
 257 576 257 576 240 576 c 2,56,-1
 161 576 l 2,57,58
 127 576 127 576 127 610 c 2,59,-1
 127 669 l 2,60,61
 127 703 127 703 161 703 c 2,62,-1
 240 703 l 2,63,64
 257 703 257 703 257 720 c 2,65,-1
 257 960 l 2,66,67
 257 1092 257 1092 350.5 1185.5 c 128,-1,68
 444 1279 444 1279 576 1279 c 0,69,70
 703 1279 703 1279 803 1185 c 0,71,72
 897 1092 897 1092 897 960 c 2,0,-1
EndSplineSet
Validated: 1
EndChar

StartChar: currency
Encoding: 164 164 98
Width: 1315
VWidth: 2175
GlyphClass: 2
Flags: W
HStem: 159 130<486.096 827.852> 992 128<486.096 828.584>
VStem: 176 130<469.067 810.245> 1009 128<469.096 811.828>
DStem2: 355 1032 266 941 0.707107 -0.707107<-212.834 22.6972 958.767 1194.85> 266 338 355 249 0.707853 0.70636<-206.176 22.6332 959.172 1184.6>
LayerCount: 2
Fore
SplineSet
355 249 m 2,0,-1
 229 121 l 2,1,2
 201 96 201 96 176 121 c 2,3,-1
 138 159 l 2,4,5
 127 170 127 170 127 185 c 0,6,7
 127 198 127 198 138 212 c 2,8,-1
 266 338 l 2,9,10
 277 349 277 349 268 361 c 0,11,12
 177 484 177 484 176 639 c 0,13,14
 176 796 176 796 268 920 c 0,15,16
 276 931 276 931 266 941 c 2,17,-1
 138 1069 l 2,18,19
 115 1092 115 1092 138 1115 c 2,20,-1
 176 1158 l 2,21,22
 199 1186 199 1186 229 1158 c 2,23,-1
 355 1032 l 2,24,25
 363 1019 363 1019 378 1030 c 0,26,27
 501 1119 501 1119 656 1120 c 0,28,29
 817 1120 817 1120 937 1030 c 0,30,31
 948 1022 948 1022 958 1032 c 2,32,-1
 1086 1158 l 2,33,34
 1107 1181 1107 1181 1134 1158 c 2,35,-1
 1175 1115 l 2,36,37
 1188 1104 1188 1104 1188 1091.5 c 128,-1,38
 1188 1079 1188 1079 1175 1069 c 2,39,-1
 1049 941 l 2,40,41
 1038 930 1038 930 1047 920 c 0,42,43
 1136 801 1136 801 1137 639 c 0,44,45
 1137 484 1137 484 1047 361 c 0,46,47
 1039 348 1039 348 1049 338 c 2,48,-1
 1175 212 l 2,49,50
 1203 182 1203 182 1175 159 c 2,51,-1
 1134 121 l 2,52,53
 1106 100 1106 100 1086 121 c 2,54,-1
 958 249 l 2,55,56
 947 260 947 260 937 251 c 0,57,58
 814 160 814 160 656 159 c 0,59,60
 501 159 501 159 378 251 c 0,61,62
 366 260 366 260 355 249 c 2,0,-1
306 639 m 256,63,64
 306 495 306 495 409 392 c 128,-1,65
 512 289 512 289 656.5 289 c 128,-1,66
 801 289 801 289 905 392 c 128,-1,67
 1009 495 1009 495 1009 639.5 c 128,-1,68
 1009 784 1009 784 905 888 c 128,-1,69
 801 992 801 992 656.5 992 c 128,-1,70
 512 992 512 992 409 887.5 c 128,-1,71
 306 783 306 783 306 639 c 256,63,64
EndSplineSet
Validated: 1
EndChar

StartChar: yen
Encoding: 165 165 99
Width: 1151
VWidth: 2175
GlyphClass: 2
Flags: W
HStem: 0 21G<529 622> 321 127<127 512 639 1024> 639 128<127 443.359 708.126 1024> 1259 20G<168.5 256.5 895.5 982.5>
VStem: 512 127<0 321 448 639>
DStem2: 565 835 444 788 0.556013 -0.831173<-563.923 -17.3871> 586 835 710 788 0.553383 0.832927<16.3894 562.634>
LayerCount: 2
Fore
SplineSet
1024 733 m 2,0,-1
 1024 673 l 2,1,2
 1024 639 1024 639 990 639 c 2,3,-1
 656 639 l 2,4,5
 639 639 639 639 639 622 c 2,6,-1
 639 465 l 2,7,8
 639 448 639 448 656 448 c 2,9,-1
 990 448 l 2,10,11
 1024 448 1024 448 1024 414 c 2,12,-1
 1024 355 l 2,13,14
 1024 321 1024 321 990 321 c 2,15,-1
 656 321 l 2,16,17
 639 321 639 321 639 304 c 2,18,-1
 639 34 l 2,19,20
 639 0 639 0 605 0 c 2,21,-1
 546 0 l 2,22,23
 512 0 512 0 512 34 c 2,24,-1
 512 304 l 2,25,26
 512 321 512 321 495 321 c 2,27,-1
 161 321 l 2,28,29
 127 321 127 321 127 355 c 2,30,-1
 127 414 l 2,31,32
 127 448 127 448 161 448 c 2,33,-1
 495 448 l 2,34,35
 512 448 512 448 512 465 c 2,36,-1
 512 622 l 2,37,38
 512 639 512 639 495 639 c 2,39,-1
 161 639 l 2,40,41
 127 639 127 639 127 673 c 2,42,-1
 127 733 l 2,43,44
 127 767 127 767 161 767 c 2,45,-1
 433 767 l 2,46,47
 439 767 439 767 443.5 774.5 c 128,-1,48
 448 782 448 782 444 788 c 2,49,-1
 151 1226 l 2,50,51
 138 1245 138 1245 148.5 1262 c 128,-1,52
 159 1279 159 1279 178 1279 c 2,53,-1
 244 1279 l 2,54,55
 269 1279 269 1279 283 1258 c 2,56,-1
 565 835 l 2,57,58
 569 831 569 831 575.5 831 c 128,-1,59
 582 831 582 831 586 835 c 2,60,-1
 869 1258 l 2,61,62
 884 1279 884 1279 907 1279 c 2,63,-1
 973 1279 l 2,64,65
 992 1279 992 1279 1002.5 1262 c 128,-1,66
 1013 1245 1013 1245 1001 1226 c 2,67,-1
 710 788 l 2,68,69
 704 780 704 780 708 773.5 c 128,-1,70
 712 767 712 767 720 767 c 2,71,-1
 990 767 l 2,72,73
 1024 767 1024 767 1024 733 c 2,0,-1
EndSplineSet
Validated: 1
EndChar

StartChar: brokenbar
Encoding: 166 166 100
Width: 382
VWidth: 2175
GlyphClass: 2
Flags: W
HStem: 1259 20G<144 238>
VStem: 127 128<-382 193 703 1279>
LayerCount: 2
Fore
SplineSet
127 -348 m 2,0,-1
 127 159 l 2,1,2
 127 193 127 193 161 193 c 2,3,-1
 221 193 l 2,4,5
 255 193 255 193 255 159 c 2,6,-1
 255 -348 l 2,7,8
 255 -382 255 -382 221 -382 c 2,9,-1
 161 -382 l 2,10,11
 127 -382 127 -382 127 -348 c 2,0,-1
127 737 m 2,12,-1
 127 1245 l 2,13,14
 127 1279 127 1279 161 1279 c 2,15,-1
 221 1279 l 2,16,17
 255 1279 255 1279 255 1245 c 2,18,-1
 255 737 l 2,19,20
 255 703 255 703 221 703 c 2,21,-1
 161 703 l 2,22,23
 127 703 127 703 127 737 c 2,12,-1
EndSplineSet
Validated: 1
EndChar

StartChar: section
Encoding: 167 167 101
Width: 894
VWidth: 2175
GlyphClass: 2
Flags: W
HStem: -125 125<305.469 525.522> 1279 130<369.433 589.696>
VStem: 127 130<637.471 843.101> 191 130<1007.07 1230.01> 576 127<49.2751 268.793> 639 128<432.818 641.495>
DStem2: 304 635 221 540 0.754606 -0.656179<-99.2154 338.96> 374 999 344 858 0.760322 -0.649546<57.9254 492.482>
LayerCount: 2
Fore
SplineSet
767 540 m 0,0,1
 767 474 767 474 737 416.5 c 128,-1,2
 707 359 707 359 663 329 c 0,3,4
 655 323 655 323 661 312 c 0,5,6
 703 250 703 250 703 159 c 0,7,8
 703 40 703 40 618 -42.5 c 128,-1,9
 533 -125 533 -125 416 -125 c 0,10,11
 282 -125 282 -125 202 -30 c 0,12,13
 179 -2 179 -2 208 19 c 2,14,-1
 257 53 l 2,15,16
 285 70 285 70 302 49 c 0,17,18
 336 0 336 0 416 0 c 0,19,20
 482 0 482 0 529 46.5 c 128,-1,21
 576 93 576 93 576 159 c 0,22,23
 576 233 576 233 520 280 c 2,24,-1
 221 540 l 2,25,26
 128 610 128 610 127 739 c 0,27,28
 127 858 127 858 232 952 c 0,29,30
 240 958 240 958 232.5 976 c 128,-1,31
 225 994 225 994 219 1001 c 0,32,33
 191 1056 191 1056 191 1120 c 0,34,35
 191 1237 191 1237 276 1324 c 0,36,37
 361 1409 361 1409 480 1409 c 0,38,39
 550 1409 550 1409 616 1375 c 0,40,41
 654 1352 654 1352 695 1311 c 0,42,43
 720 1283 720 1283 688 1260 c 2,44,-1
 637 1226 l 2,45,46
 614 1209 614 1209 595 1230 c 0,47,48
 546 1279 546 1279 480 1279 c 0,49,50
 412 1279 412 1279 366.5 1232 c 128,-1,51
 321 1185 321 1185 321 1120 c 0,52,53
 321 1044 321 1044 374 999 c 2,54,-1
 676 741 l 2,55,56
 767 659 767 659 767 540 c 0,0,1
257 739 m 0,57,58
 257 675 257 675 304 635 c 2,59,-1
 552 423 l 2,60,61
 556 417 556 417 563 416 c 0,62,63
 588 416 588 416 614 459 c 0,64,65
 639 493 639 493 639 540 c 0,66,67
 639 604 639 604 593 644 c 2,68,-1
 344 858 l 2,69,70
 336 862 336 862 334 863 c 0,71,72
 313 863 313 863 283 822 c 0,73,74
 257 786 257 786 257 739 c 0,57,58
EndSplineSet
Validated: 1
EndChar

StartChar: dieresis
Encoding: 168 168 102
Width: 639
VWidth: 2175
GlyphClass: 2
Flags: W
HStem: 1534 127<127 257 385 512>
VStem: 127 130<1534 1661> 385 127<1534 1661>
LayerCount: 2
Fore
SplineSet
161 1661 m 2,0,-1
 223 1661 l 2,1,2
 257 1661 257 1661 257 1627 c 2,3,-1
 257 1568 l 2,4,5
 257 1534 257 1534 223 1534 c 2,6,-1
 161 1534 l 2,7,8
 127 1534 127 1534 127 1568 c 2,9,-1
 127 1627 l 2,10,11
 127 1661 127 1661 161 1661 c 2,0,-1
419 1661 m 2,12,-1
 478 1661 l 2,13,14
 512 1661 512 1661 512 1627 c 2,15,-1
 512 1568 l 2,16,17
 512 1534 512 1534 478 1534 c 2,18,-1
 419 1534 l 2,19,20
 385 1534 385 1534 385 1568 c 2,21,-1
 385 1627 l 2,22,23
 385 1661 385 1661 419 1661 c 2,12,-1
EndSplineSet
Validated: 1
EndChar

StartChar: copyright
Encoding: 169 169 103
Width: 1536
VWidth: 2175
GlyphClass: 2
Flags: W
HStem: 0 127<558.491 975.789> 257 128<683.689 918> 897 127<669.151 918> 1151 128<556.623 978.175>
VStem: 127 128<429.746 847.829> 533 128<406.658 890.127> 1279 129.5<430.431 848.569>
LayerCount: 2
Fore
SplineSet
767 1279 m 0,0,1
 1035 1279 1035 1279 1219 1092 c 0,2,3
 1408 903 1408 903 1408.5 639.5 c 128,-1,4
 1409 376 1409 376 1219 187 c 0,5,6
 1032 0 1032 0 766.5 0 c 128,-1,7
 501 0 501 0 314 187 c 128,-1,8
 127 374 127 374 127 639.5 c 128,-1,9
 127 905 127 905 314 1092 c 128,-1,10
 501 1279 501 1279 767 1279 c 0,0,1
767 127 m 0,11,12
 979 127 979 127 1130 278 c 0,13,14
 1279 427 1279 427 1279 639.5 c 128,-1,15
 1279 852 1279 852 1130 1001 c 0,16,17
 979 1152 979 1152 767 1151 c 0,18,19
 557 1151 557 1151 406 1000.5 c 128,-1,20
 255 850 255 850 255 639 c 0,21,22
 255 424 255 424 406 278 c 0,23,24
 557 127 557 127 767 127 c 0,11,12
918 990 m 2,25,-1
 918 931 l 2,26,27
 918 897 918 897 884 897 c 2,28,-1
 735 897 l 2,29,30
 705 897 705 897 683 874.5 c 128,-1,31
 661 852 661 852 661 822 c 2,32,-1
 661 457 l 2,33,34
 661 427 661 427 683 406 c 128,-1,35
 705 385 705 385 735 385 c 2,36,-1
 884 385 l 2,37,38
 918 385 918 385 918 351 c 2,39,-1
 918 291 l 2,40,41
 918 257 918 257 884 257 c 2,42,-1
 735 257 l 2,43,44
 652 257 652 257 592.5 315.5 c 128,-1,45
 533 374 533 374 533 457 c 2,46,-1
 533 822 l 2,47,48
 533 905 533 905 592.5 964.5 c 128,-1,49
 652 1024 652 1024 735 1024 c 2,50,-1
 884 1024 l 2,51,52
 918 1024 918 1024 918 990 c 2,25,-1
EndSplineSet
Validated: 33
EndChar

StartChar: ordfeminine
Encoding: 170 170 104
Width: 766
VWidth: 2175
GlyphClass: 2
Flags: W
HStem: 385 127<127 639> 639 128<267.293 512> 935 127<266.084 508> 1279 130<257 486.732>
VStem: 127 128<778.379 923.889> 512 127<767 931 1062 1253.73>
LayerCount: 2
Fore
SplineSet
639 1196 m 2,0,-1
 639 673 l 2,1,2
 639 639 639 639 605 639 c 2,3,-1
 340 639 l 2,4,5
 251 639 251 639 189 701 c 128,-1,6
 127 763 127 763 127 852 c 0,7,8
 127 939 127 939 190 1000.5 c 128,-1,9
 253 1062 253 1062 340 1062 c 2,10,-1
 495 1062 l 2,11,12
 512 1062 512 1062 512 1079 c 2,13,-1
 512 1196 l 2,14,15
 512 1230 512 1230 487.5 1254.5 c 128,-1,16
 463 1279 463 1279 429 1279 c 2,17,-1
 291 1279 l 2,18,19
 257 1279 257 1279 257 1313 c 2,20,-1
 257 1372 l 2,21,22
 257 1408 257 1408 291 1409 c 2,23,-1
 429 1409 l 2,24,25
 514 1409 514 1409 576.5 1345 c 128,-1,26
 639 1281 639 1281 639 1196 c 2,0,-1
512 784 m 2,27,-1
 512 918 l 1,28,-1
 508 931 l 1,29,-1
 495 935 l 1,30,-1
 340 935 l 2,31,32
 306 935 306 935 280.5 909.5 c 128,-1,33
 255 884 255 884 255 852 c 0,34,35
 255 818 255 818 280.5 792.5 c 128,-1,36
 306 767 306 767 340 767 c 2,37,-1
 495 767 l 2,38,39
 512 767 512 767 512 784 c 2,27,-1
605 385 m 2,40,-1
 161 385 l 2,41,42
 127 385 127 385 127 419 c 2,43,-1
 127 478 l 2,44,45
 127 512 127 512 161 512 c 2,46,-1
 605 512 l 2,47,48
 639 512 639 512 639 478 c 2,49,-1
 639 419 l 2,50,51
 639 385 639 385 605 385 c 2,40,-1
EndSplineSet
Validated: 1
EndChar

StartChar: guillemotleft
Encoding: 171 171 105
Width: 943
VWidth: 2175
GlyphClass: 2
Flags: W
DStem2: 136 470 293 459 0.626825 0.77916<66.8061 432.542> 484 193 136 427 0.626825 -0.77916<-332.358 33.4446> 459 470 612 459 0.619155 0.785269<62.8843 418.708> 807 193 459 427 0.619155 -0.785269<-337.196 31.5719>
LayerCount: 2
Fore
SplineSet
484 701 m 2,0,-1
 293 459 l 2,1,2
 285 446 285 446 293 438 c 2,3,-1
 484 193 l 2,4,5
 503 168 503 168 480 147 c 2,6,-1
 433 108 l 2,7,8
 408 87 408 87 387 115 c 2,9,-1
 136 427 l 2,10,11
 128 438 128 438 127.5 448.5 c 128,-1,12
 127 459 127 459 136 470 c 2,13,-1
 387 782 l 2,14,15
 408 805 408 805 433 786 c 2,16,-1
 480 750 l 2,17,18
 505 729 505 729 484 701 c 2,0,-1
807 701 m 2,19,-1
 612 459 l 2,20,21
 604 446 604 446 612 438 c 2,22,-1
 807 193 l 2,23,24
 824 170 824 170 799 147 c 2,25,-1
 756 108 l 2,26,27
 731 85 731 85 705 115 c 2,28,-1
 459 427 l 2,29,30
 440 448 440 448 459 470 c 2,31,-1
 705 782 l 2,32,33
 726 810 726 810 756 786 c 2,34,-1
 799 750 l 2,35,36
 816 737 816 737 816 722 c 0,37,38
 815 714 815 714 807 701 c 2,19,-1
EndSplineSet
Validated: 1
EndChar

StartChar: logicalnot
Encoding: 172 172 106
Width: 1151
VWidth: 2175
GlyphClass: 2
Flags: W
HStem: 576 127<127 897>
VStem: 897 127<321 576>
LayerCount: 2
Fore
SplineSet
161 703 m 2,0,-1
 990 703 l 2,1,2
 1024 703 1024 703 1024 669 c 2,3,-1
 1024 355 l 2,4,5
 1024 321 1024 321 990 321 c 2,6,-1
 931 321 l 2,7,8
 897 321 897 321 897 355 c 2,9,-1
 897 559 l 2,10,11
 897 576 897 576 880 576 c 2,12,-1
 161 576 l 2,13,14
 127 576 127 576 127 610 c 2,15,-1
 127 669 l 2,16,17
 127 703 127 703 161 703 c 2,0,-1
EndSplineSet
Validated: 1
EndChar

StartChar: registered
Encoding: 174 174 108
Width: 1536
VWidth: 2175
GlyphClass: 2
Flags: W
HStem: 0 127<558.491 975.789> 512 127<676 790.25> 894 130<676 893.293> 1151 128<556.623 978.175>
VStem: 127 128<429.746 847.829> 548 128<255 512 639 894> 933 127<672.652 858.363> 1279 129.5<430.431 848.569>
DStem2: 909 518 775 495 0.493523 -0.869733<-13.6559 255.311>
LayerCount: 2
Fore
SplineSet
909 518 m 2,0,-1
 1028 306 l 2,1,2
 1036 287 1036 287 1026 271 c 128,-1,3
 1016 255 1016 255 999 255 c 2,4,-1
 933 255 l 2,5,6
 910 255 910 255 897 280 c 2,7,-1
 775 495 l 2,8,9
 764 512 764 512 748 512 c 2,10,-1
 693 512 l 2,11,12
 676 512 676 512 676 495 c 2,13,-1
 676 289 l 2,14,15
 676 255 676 255 642 255 c 2,16,-1
 582 255 l 2,17,18
 548 255 548 255 548 289 c 2,19,-1
 548 990 l 2,20,21
 548 1024 548 1024 582 1024 c 2,22,-1
 803 1024 l 2,23,24
 905 1024 905 1024 986 950 c 1,25,26
 1060 869 1060 869 1060 767 c 128,-1,27
 1060 665 1060 665 986 586 c 0,28,29
 950 554 950 554 914 537 c 0,30,31
 910 535 910 535 907.5 528.5 c 128,-1,32
 905 522 905 522 909 518 c 2,0,-1
767 1279 m 0,33,34
 1035 1279 1035 1279 1219 1092 c 0,35,36
 1408 903 1408 903 1408.5 639.5 c 128,-1,37
 1409 376 1409 376 1219 187 c 0,38,39
 1032 0 1032 0 766.5 0 c 128,-1,40
 501 0 501 0 314 187 c 128,-1,41
 127 374 127 374 127 639.5 c 128,-1,42
 127 905 127 905 314 1092 c 128,-1,43
 501 1279 501 1279 767 1279 c 0,33,34
1130 1001 m 0,44,45
 979 1152 979 1152 767 1151 c 0,46,47
 557 1151 557 1151 406 1000.5 c 128,-1,48
 255 850 255 850 255 639 c 0,49,50
 255 424 255 424 406 278 c 0,51,52
 557 127 557 127 767 127 c 0,53,54
 979 127 979 127 1130 278 c 0,55,56
 1279 427 1279 427 1279 639.5 c 128,-1,57
 1279 852 1279 852 1130 1001 c 0,44,45
933 767 m 0,58,59
 933 820 933 820 894.5 857 c 128,-1,60
 856 894 856 894 803 894 c 2,61,-1
 693 894 l 2,62,63
 676 894 676 894 676 880 c 2,64,-1
 676 656 l 2,65,66
 676 639 676 639 693 639 c 2,67,-1
 803 639 l 2,68,69
 856 639 856 639 894.5 677.5 c 128,-1,70
 933 716 933 716 933 767 c 0,58,59
EndSplineSet
Validated: 33
EndChar

StartChar: macron
Encoding: 175 175 109
Width: 637
VWidth: 2175
GlyphClass: 2
Flags: W
HStem: 1536 127<127 510>
VStem: 127 383<1536 1663>
LayerCount: 2
Fore
SplineSet
161 1663 m 2,0,-1
 476 1663 l 2,1,2
 510 1663 510 1663 510 1629 c 2,3,-1
 510 1570 l 2,4,5
 510 1536 510 1536 476 1536 c 2,6,-1
 161 1536 l 2,7,8
 127 1536 127 1536 127 1570 c 2,9,-1
 127 1629 l 2,10,11
 127 1663 127 1663 161 1663 c 2,0,-1
EndSplineSet
Validated: 1
EndChar

StartChar: degree
Encoding: 176 176 110
Width: 766
VWidth: 2175
GlyphClass: 2
Flags: W
HStem: 767 130<290.346 477.795> 1151 128<290.291 479.326>
VStem: 127 128<931.814 1115.45> 512 127<931.814 1119>
LayerCount: 2
Fore
SplineSet
255 1024 m 256,0,1
 255 971 255 971 293 934 c 128,-1,2
 331 897 331 897 384.5 897 c 128,-1,3
 438 897 438 897 475 934 c 128,-1,4
 512 971 512 971 512 1024 c 0,5,6
 512 1075 512 1075 474 1113 c 128,-1,7
 436 1151 436 1151 385 1151 c 0,8,9
 332 1151 332 1151 293.5 1114 c 128,-1,10
 255 1077 255 1077 255 1024 c 256,0,1
639 1024 m 128,-1,12
 639 918 639 918 564 842.5 c 128,-1,13
 489 767 489 767 385 767 c 0,14,15
 279 767 279 767 203 842.5 c 128,-1,16
 127 918 127 918 127 1024 c 0,17,18
 127 1128 127 1128 202.5 1203.5 c 128,-1,19
 278 1279 278 1279 385 1279 c 0,20,21
 489 1279 489 1279 564 1204.5 c 128,-1,11
 639 1130 639 1130 639 1024 c 128,-1,12
EndSplineSet
Validated: 1
EndChar

StartChar: plusminus
Encoding: 177 177 111
Width: 894
VWidth: 2175
GlyphClass: 2
Flags: W
HStem: 127 128<127 767> 703 128<127 385 512 767>
VStem: 385 127<448 703 831 1088>
LayerCount: 2
Fore
SplineSet
767 797 m 2,0,-1
 767 737 l 2,1,2
 767 703 767 703 733 703 c 2,3,-1
 529 703 l 2,4,5
 512 703 512 703 512 686 c 2,6,-1
 512 482 l 2,7,8
 512 448 512 448 478 448 c 2,9,-1
 419 448 l 2,10,11
 385 448 385 448 385 482 c 2,12,-1
 385 686 l 2,13,14
 385 703 385 703 368 703 c 2,15,-1
 161 703 l 2,16,17
 127 703 127 703 127 737 c 2,18,-1
 127 797 l 2,19,20
 127 831 127 831 161 831 c 2,21,-1
 368 831 l 2,22,23
 385 831 385 831 385 848 c 2,24,-1
 385 1054 l 2,25,26
 385 1088 385 1088 419 1088 c 2,27,-1
 478 1088 l 2,28,29
 512 1088 512 1088 512 1054 c 2,30,-1
 512 848 l 2,31,32
 512 831 512 831 529 831 c 2,33,-1
 733 831 l 2,34,35
 767 831 767 831 767 797 c 2,0,-1
161 255 m 2,36,-1
 733 255 l 2,37,38
 767 255 767 255 767 221 c 2,39,-1
 767 161 l 2,40,41
 767 127 767 127 733 127 c 2,42,-1
 161 127 l 2,43,44
 127 127 127 127 127 161 c 2,45,-1
 127 221 l 2,46,47
 127 255 127 255 161 255 c 2,36,-1
EndSplineSet
Validated: 1
EndChar

StartChar: uni00B2
Encoding: 178 178 112
Width: 703
VWidth: 2175
GlyphClass: 2
Flags: W
HStem: 767 127<296.672 576> 1536 127<271.538 426.228>
VStem: 448 128<1340.83 1513.62>
DStem2: 134 890 297 914 0.51399 0.857796<92.1757 630.609>
LayerCount: 2
Fore
SplineSet
353 1663 m 0,0,1
 444 1663 444 1663 510 1596.5 c 128,-1,2
 576 1530 576 1530 576 1438 c 0,3,4
 576 1372 576 1372 544 1324 c 2,5,-1
 297 914 l 2,6,7
 291 906 291 906 296.5 900 c 128,-1,8
 302 894 302 894 310 894 c 2,9,-1
 542 894 l 2,10,11
 576 894 576 894 576 860 c 2,12,-1
 576 801 l 2,13,14
 576 767 576 767 542 767 c 2,15,-1
 161 767 l 2,16,17
 127 767 127 767 127 801 c 2,18,-1
 127 865 l 2,19,20
 127 878 127 878 134 890 c 2,21,-1
 433 1389 l 2,22,23
 448 1406 448 1406 448 1438 c 0,24,25
 448 1478 448 1478 420.5 1507 c 128,-1,26
 393 1536 393 1536 353 1536 c 0,27,28
 328 1536 328 1536 301 1520 c 128,-1,29
 274 1504 274 1504 268 1483 c 0,30,31
 262 1460 262 1460 229 1466 c 2,32,-1
 170 1479 l 2,33,34
 155 1483 155 1483 145.5 1497 c 128,-1,35
 136 1511 136 1511 144 1523 c 0,36,37
 165 1580 165 1580 224 1621.5 c 128,-1,38
 283 1663 283 1663 353 1663 c 0,0,1
EndSplineSet
Validated: 1
EndChar

StartChar: uni00B3
Encoding: 179 179 113
Width: 703
VWidth: 2175
GlyphClass: 2
Flags: W
HStem: 767 127<127 424.295> 1194 127<212 426.215> 1536 127<127 426.067>
VStem: 448 128<915.785 1171.69 1343.2 1513.84>
LayerCount: 2
Fore
SplineSet
161 1663 m 2,0,-1
 342 1663 l 2,1,2
 438 1663 438 1663 507 1594 c 128,-1,3
 576 1525 576 1525 576 1427.5 c 128,-1,4
 576 1330 576 1330 512 1266 c 0,5,6
 504 1258 504 1258 512 1249 c 0,7,8
 576 1185 576 1185 576 1088 c 2,9,-1
 576 1003 l 2,10,11
 576 907 576 907 508 835 c 0,12,13
 434 767 434 767 342 767 c 2,14,-1
 161 767 l 2,15,16
 127 767 127 767 127 801 c 2,17,-1
 127 860 l 2,18,19
 127 894 127 894 161 894 c 2,20,-1
 342 894 l 2,21,22
 384 894 384 894 416 927 c 128,-1,23
 448 960 448 960 448 1003 c 2,24,-1
 448 1088 l 2,25,26
 448 1130 448 1130 415 1162 c 128,-1,27
 382 1194 382 1194 342 1194 c 2,28,-1
 246 1194 l 2,29,30
 212 1194 212 1194 212 1228 c 2,31,-1
 212 1287 l 2,32,33
 212 1321 212 1321 246 1321 c 2,34,-1
 342 1321 l 2,35,36
 382 1321 382 1321 415 1353 c 128,-1,37
 448 1385 448 1385 448 1427.5 c 128,-1,38
 448 1470 448 1470 416.5 1503 c 128,-1,39
 385 1536 385 1536 342 1536 c 2,40,-1
 161 1536 l 2,41,42
 127 1536 127 1536 127 1570 c 2,43,-1
 127 1629 l 2,44,45
 127 1663 127 1663 161 1663 c 2,0,-1
EndSplineSet
Validated: 1
EndChar

StartChar: acute
Encoding: 180 180 114
Width: 429
VWidth: 2175
GlyphClass: 2
Flags: W
HStem: 1387 283
VStem: 127 175
DStem2: 174 1644 302 1615 0.244794 0.969575<-239.708 35.9358>
LayerCount: 2
Fore
SplineSet
127 1443 m 2,0,-1
 174 1644 l 2,1,2
 185 1680 185 1680 217 1670 c 2,3,-1
 276 1657 l 2,4,5
 308 1651 308 1651 302 1615 c 2,6,-1
 251 1413 l 2,7,8
 245 1381 245 1381 212 1387 c 2,9,-1
 153 1402 l 2,10,11
 121 1411 121 1411 127 1443 c 2,0,-1
EndSplineSet
Validated: 1
EndChar

StartChar: paragraph
Encoding: 182 182 116
Width: 1278
VWidth: 2175
GlyphClass: 2
Flags: W
HStem: -255 130<480 608 1024 1151> 450 128<380.414 546> 671 128<531.595 608> 928 128<515.608 608> 1151 128<389.872 897 1024 1151>
VStem: 127 130<706.008 1018.19> 385 127<810.3 924.757> 480 255<-255 -125> 608 127<-125 671 800.188 926.659> 897 254<-255 -125 1151 1151> 897 127<-125 1151>
LayerCount: 2
Fore
SplineSet
1151 1245 m 2,0,-1
 1151 1185 l 2,1,2
 1151 1151 1151 1151 1117 1151 c 2,3,-1
 1041 1151 l 2,4,5
 1024 1151 1024 1151 1024 1134 c 2,6,-1
 1024 -108 l 2,7,8
 1024 -125 1024 -125 1041 -125 c 2,9,-1
 1117 -125 l 2,10,11
 1151 -125 1151 -125 1151 -159 c 2,12,-1
 1151 -219 l 2,13,14
 1151 -255 1151 -255 1117 -255 c 2,15,-1
 931 -255 l 2,16,17
 897 -255 897 -255 897 -219 c 2,18,-1
 897 1134 l 2,19,20
 897 1151 897 1151 880 1151 c 2,21,-1
 546 1151 l 2,22,23
 427 1151 427 1151 342 1067.5 c 128,-1,24
 257 984 257 984 257 865 c 0,25,26
 257 750 257 750 332.5 664 c 128,-1,27
 408 578 408 578 514 578 c 0,28,29
 546 578 546 578 546 544 c 2,30,-1
 546 484 l 2,31,32
 546 471 546 471 533 460.5 c 128,-1,33
 520 450 520 450 508 450 c 0,34,35
 353 450 353 450 240 575.5 c 128,-1,36
 127 701 127 701 127 865 c 0,37,38
 127 1035 127 1035 251 1158 c 0,39,40
 372 1279 372 1279 546 1279 c 2,41,-1
 1117 1279 l 2,42,43
 1151 1279 1151 1279 1151 1245 c 2,0,-1
735 1022 m 2,44,-1
 735 -219 l 2,45,46
 735 -255 735 -255 701 -255 c 2,47,-1
 514 -255 l 2,48,49
 480 -255 480 -255 480 -219 c 2,50,-1
 480 -159 l 2,51,52
 480 -125 480 -125 514 -125 c 2,53,-1
 591 -125 l 2,54,55
 608 -125 608 -125 608 -108 c 2,56,-1
 608 654 l 2,57,58
 608 671 608 671 591 671 c 2,59,-1
 576 671 l 2,60,61
 497 671 497 671 441 728.5 c 128,-1,62
 385 786 385 786 385 864.5 c 128,-1,63
 385 943 385 943 441 999.5 c 128,-1,64
 497 1056 497 1056 576 1056 c 2,65,-1
 701 1056 l 2,66,67
 735 1056 735 1056 735 1022 c 2,44,-1
512 865 m 0,68,69
 512 837 512 837 531 818 c 128,-1,70
 550 799 550 799 576 799 c 2,71,-1
 591 799 l 2,72,73
 608 799 608 799 608 816 c 2,74,-1
 608 911 l 2,75,76
 608 928 608 928 591 928 c 2,77,-1
 576 928 l 2,78,79
 551 928 551 928 531.5 909 c 128,-1,80
 512 890 512 890 512 865 c 0,68,69
EndSplineSet
Validated: 1
EndChar

StartChar: periodcentered
Encoding: 183 183 117
Width: 384
VWidth: 2175
GlyphClass: 2
Flags: W
HStem: 385 127<127 257>
VStem: 127 130<385 512>
LayerCount: 2
Fore
SplineSet
221 385 m 2,0,-1
 161 385 l 2,1,2
 127 385 127 385 127 419 c 2,3,-1
 127 478 l 2,4,5
 127 512 127 512 161 512 c 2,6,-1
 221 512 l 2,7,8
 257 512 257 512 257 478 c 2,9,-1
 257 419 l 2,10,11
 257 385 257 385 221 385 c 2,0,-1
EndSplineSet
Validated: 1
EndChar

StartChar: uni00B9
Encoding: 185 185 119
Width: 554
VWidth: 2175
GlyphClass: 2
Flags: W
VStem: 300 127<767 1456.39>
LayerCount: 2
Fore
SplineSet
300 801 m 2,0,-1
 300 1445 l 2,1,2
 300 1453 300 1453 291.5 1456.5 c 128,-1,3
 283 1460 283 1460 276 1453 c 2,4,-1
 236 1402 l 2,5,6
 215 1374 215 1374 187 1398 c 2,7,-1
 140 1434 l 2,8,9
 129 1445 129 1445 127 1457 c 0,10,11
 127 1472 127 1472 136 1481 c 2,12,-1
 268 1646 l 2,13,14
 281 1663 281 1663 304 1663 c 2,15,-1
 393 1663 l 2,16,17
 427 1663 427 1663 427 1629 c 2,18,-1
 427 801 l 2,19,20
 427 767 427 767 393 767 c 2,21,-1
 334 767 l 2,22,23
 300 767 300 767 300 801 c 2,0,-1
EndSplineSet
Validated: 1
EndChar

StartChar: ordmasculine
Encoding: 186 186 120
Width: 766
VWidth: 2175
GlyphClass: 2
Flags: W
HStem: 385 127<127 639> 639 128<291.654 476.803> 1279 130<292.271 476.733>
VStem: 127 128<807.738 1239.29> 512 127<802 1243.12>
LayerCount: 2
Fore
SplineSet
605 385 m 2,0,-1
 161 385 l 2,1,2
 127 385 127 385 127 419 c 2,3,-1
 127 478 l 2,4,5
 127 512 127 512 161 512 c 2,6,-1
 605 512 l 2,7,8
 639 512 639 512 639 478 c 2,9,-1
 639 419 l 2,10,11
 639 385 639 385 605 385 c 2,0,-1
639 1147 m 2,12,-1
 639 901 l 2,13,14
 639 795 639 795 564 717 c 128,-1,15
 489 639 489 639 385 639 c 0,16,17
 279 639 279 639 202 716 c 0,18,19
 128 797 128 797 127 901 c 2,20,-1
 127 1147 l 2,21,22
 127 1253 127 1253 203.5 1331 c 128,-1,23
 280 1409 280 1409 384.5 1409 c 128,-1,24
 489 1409 489 1409 564 1331 c 128,-1,25
 639 1253 639 1253 639 1147 c 2,12,-1
512 901 m 2,26,-1
 512 1147 l 2,27,28
 512 1198 512 1198 474 1238.5 c 128,-1,29
 436 1279 436 1279 385 1279 c 0,30,31
 332 1279 332 1279 293.5 1240.5 c 128,-1,32
 255 1202 255 1202 255 1147 c 2,33,-1
 255 901 l 2,34,35
 255 846 255 846 293 806.5 c 128,-1,36
 331 767 331 767 385 767 c 0,37,38
 436 767 436 767 474 807.5 c 128,-1,39
 512 848 512 848 512 901 c 2,26,-1
EndSplineSet
Validated: 1
EndChar

StartChar: guillemotright
Encoding: 187 187 121
Width: 943
VWidth: 2175
GlyphClass: 2
Flags: W
DStem2: 487 470 138 701 0.620703 -0.784046<-418.972 -62.1744> 138 193 240 115 0.620703 0.784046<-24.3992 337.66> 809 470 461 701 0.625305 -0.780381<-432.538 -66.4732> 461 193 559 115 0.625305 0.780381<-33.4508 332.438>
LayerCount: 2
Fore
SplineSet
559 782 m 2,0,-1
 809 470 l 2,1,2
 817 459 817 459 817.5 448.5 c 128,-1,3
 818 438 818 438 809 427 c 2,4,-1
 559 115 l 2,5,6
 536 87 536 87 512 108 c 2,7,-1
 465 147 l 2,8,9
 440 168 440 168 461 193 c 2,10,-1
 652 438 l 2,11,12
 660 446 660 446 652 459 c 2,13,-1
 461 701 l 2,14,15
 440 729 440 729 465 750 c 2,16,-1
 512 786 l 2,17,18
 538 805 538 805 559 782 c 2,0,-1
240 782 m 6,19,20
 487 470 l 2,21,22
 504 449 504 449 487 427 c 2,23,-1
 240 115 l 2,24,25
 212 85 212 85 189 108 c 2,26,-1
 147 147 l 2,27,28
 130 162 130 162 127.5 170 c 128,-1,29
 125 178 125 178 138 193 c 2,30,31
 334 438 l 2,32,33
 342 446 342 446 334 459 c 2,34,-1
 138 701 l 2,35,36
 130 714 130 714 130 722 c 0,37,38
 130 737 130 737 147 750 c 2,39,-1
 189 786 l 2,40,41
 219 810 219 810 240 782 c 6,19,20
EndSplineSet
Validated: 1
Colour: ff00
EndChar

StartChar: onequarter
Encoding: 188 188 122
Width: 1514
VWidth: 2175
GlyphClass: 2
Flags: W
HStem: 0 21G<273.5 353.5 1168 1262> 149 129<1011.98 1151 1279 1387> 877 20G<1049.5 1128.5>
VStem: 300 127<767 1456.39> 1151 128<0 149 278 427>
DStem2: 251 49 382 28 0.419312 0.907842<-15.5991 1798.21> 846 191 1005 293 0.257123 0.966379<135.757 742.37>
LayerCount: 2
Fore
SplineSet
1387 244 m 2,0,-1
 1387 183 l 2,1,2
 1387 149 1387 149 1353 149 c 2,3,-1
 1296 149 l 2,4,5
 1279 149 1279 149 1279 132 c 2,6,-1
 1279 34 l 2,7,8
 1279 0 1279 0 1245 0 c 2,9,-1
 1185 0 l 2,10,11
 1151 0 1151 0 1151 34 c 2,12,-1
 1151 132 l 2,13,14
 1151 149 1151 149 1134 149 c 2,15,-1
 877 149 l 2,16,17
 862 149 862 149 851.5 161.5 c 128,-1,18
 841 174 841 174 846 191 c 2,19,-1
 1024 860 l 2,20,21
 1030 896 1030 896 1069 897 c 2,22,-1
 1122 897 l 2,23,24
 1135 897 1135 897 1145.5 882 c 128,-1,25
 1156 867 1156 867 1154 852 c 2,26,-1
 1005 293 l 2,27,28
 994 278 994 278 1018 278 c 2,29,-1
 1134 278 l 2,30,31
 1151 278 1151 278 1151 295 c 2,32,-1
 1151 393 l 2,33,34
 1151 427 1151 427 1185 427 c 2,35,-1
 1245 427 l 2,36,37
 1279 427 1279 427 1279 393 c 2,38,-1
 1279 295 l 2,39,40
 1279 278 1279 278 1296 278 c 2,41,-1
 1353 278 l 2,42,43
 1387 278 1387 278 1387 244 c 2,0,-1
300 801 m 2,44,-1
 300 1445 l 2,45,46
 300 1453 300 1453 291.5 1456.5 c 128,-1,47
 283 1460 283 1460 276 1453 c 2,48,-1
 236 1402 l 2,49,50
 213 1377 213 1377 187 1398 c 2,51,-1
 142 1434 l 2,52,53
 127 1445 127 1445 127 1460 c 0,54,55
 127 1473 127 1473 136 1481 c 2,56,-1
 268 1646 l 2,57,58
 281 1663 281 1663 304 1663 c 2,59,-1
 393 1663 l 2,60,61
 427 1663 427 1663 427 1629 c 2,62,-1
 427 801 l 2,63,64
 427 767 427 767 393 767 c 2,65,-1
 334 767 l 2,66,67
 300 767 300 767 300 801 c 2,44,-1
1115 1615 m 2,68,-1
 382 28 l 2,69,70
 367 0 367 0 340 0 c 2,71,-1
 283 0 l 2,72,73
 264 0 264 0 253 15 c 128,-1,74
 242 30 242 30 251 49 c 2,75,-1
 984 1636 l 2,76,77
 997 1664 997 1664 1026 1663 c 2,78,-1
 1083 1663 l 2,79,80
 1100 1663 1100 1663 1110.5 1648.5 c 128,-1,81
 1121 1634 1121 1634 1115 1615 c 2,68,-1
EndSplineSet
Validated: 1
EndChar

StartChar: onehalf
Encoding: 189 189 123
Width: 1512
VWidth: 2175
GlyphClass: 2
Flags: W
HStem: 0 127<1107.13 1385> 767 130<1078.78 1241.81>
VStem: 297 128<767 1456.39> 1258 127<573.883 750.563>
DStem2: 249 49 380 28 0.419312 0.907842<-15.4207 1798.19> 943 123 1107 147 0.515253 0.857038<94.0528 631.211>
LayerCount: 2
Fore
SplineSet
1385 93 m 2,0,-1
 1385 34 l 2,1,2
 1385 0 1385 0 1351 0 c 2,3,-1
 971 0 l 2,4,5
 937 0 937 0 937 34 c 2,6,-1
 937 98 l 2,7,8
 937 111 937 111 943 123 c 2,9,-1
 1243 622 l 2,10,11
 1258 643 1258 643 1258 671 c 0,12,13
 1258 709 1258 709 1229 738 c 128,-1,14
 1200 767 1200 767 1160 767 c 0,15,16
 1132 767 1132 767 1107.5 751 c 128,-1,17
 1083 735 1083 735 1075 716 c 0,18,19
 1064 688 1064 688 1039 699 c 2,20,-1
 977 712 l 2,21,22
 964 714 964 714 954.5 729 c 128,-1,23
 945 744 945 744 954 756 c 0,24,25
 975 813 975 813 1032.5 855 c 128,-1,26
 1090 897 1090 897 1160 897 c 0,27,28
 1253 897 1253 897 1319 831 c 128,-1,29
 1385 765 1385 765 1385 671 c 0,30,31
 1385 612 1385 612 1353 557 c 2,32,-1
 1107 147 l 2,33,34
 1103 141 1103 141 1107 134 c 128,-1,35
 1111 127 1111 127 1117 127 c 2,36,-1
 1351 127 l 2,37,38
 1385 127 1385 127 1385 93 c 2,0,-1
297 801 m 2,39,-1
 297 1445 l 2,40,41
 297 1453 297 1453 288.5 1456.5 c 128,-1,42
 280 1460 280 1460 274 1453 c 2,43,-1
 234 1402 l 2,44,45
 213 1374 213 1374 185 1398 c 2,46,-1
 138 1434 l 2,47,48
 127 1445 127 1445 127 1460 c 0,49,50
 127 1471 127 1471 134 1481 c 2,51,-1
 266 1646 l 2,52,53
 279 1663 279 1663 302 1663 c 2,54,-1
 391 1663 l 2,55,56
 425 1663 425 1663 425 1629 c 2,57,-1
 425 801 l 2,58,59
 425 767 425 767 391 767 c 2,60,-1
 331 767 l 2,61,62
 297 767 297 767 297 801 c 2,39,-1
1113 1615 m 2,63,-1
 380 28 l 2,64,65
 365 0 365 0 338 0 c 2,66,-1
 278 0 l 2,67,68
 261 0 261 0 250.5 15 c 128,-1,69
 240 30 240 30 249 49 c 2,70,-1
 982 1636 l 2,71,72
 995 1664 995 1664 1024 1663 c 2,73,-1
 1081 1663 l 2,74,75
 1098 1663 1098 1663 1109.5 1648.5 c 128,-1,76
 1121 1634 1121 1634 1113 1615 c 2,63,-1
EndSplineSet
Validated: 1
EndChar

StartChar: threequarters
Encoding: 190 190 124
Width: 1663
VWidth: 2175
GlyphClass: 2
Flags: W
HStem: 0 21G<421.5 502.5 1317 1413> 149 129<1160.94 1300 1430 1536> 767 130<127 416.543> 1194 127<212 426.055> 1536 127<127 424.653>
VStem: 448 128<929.487 1172.05 1343.47 1512.96> 1300 130<0 149 278 427>
DStem2: 399 49 531 28 0.419312 0.907842<-15.1062 1798.49> 994 191 1154 293 0.258471 0.966019<136.061 742.85>
LayerCount: 2
Fore
SplineSet
1536 244 m 2,0,-1
 1536 183 l 2,1,2
 1536 149 1536 149 1502 149 c 2,3,-1
 1447 149 l 2,4,5
 1430 149 1430 149 1430 132 c 2,6,-1
 1430 34 l 2,7,8
 1430 0 1430 0 1396 0 c 2,9,-1
 1334 0 l 2,10,11
 1300 0 1300 0 1300 34 c 2,12,-1
 1300 132 l 2,13,14
 1300 149 1300 149 1283 149 c 2,15,-1
 1028 149 l 2,16,17
 1013 149 1013 149 1001.5 161.5 c 128,-1,18
 990 174 990 174 994 191 c 2,19,-1
 1173 860 l 2,20,21
 1184 896 1184 896 1217 897 c 2,22,-1
 1270 897 l 2,23,24
 1283 897 1283 897 1295 883 c 128,-1,25
 1307 869 1307 869 1302 852 c 2,26,-1
 1154 293 l 2,27,28
 1154 278 1154 278 1166 278 c 2,29,-1
 1283 278 l 2,30,31
 1300 278 1300 278 1300 295 c 2,32,-1
 1300 393 l 2,33,34
 1300 427 1300 427 1334 427 c 2,35,-1
 1396 427 l 2,36,37
 1430 427 1430 427 1430 393 c 2,38,-1
 1430 295 l 2,39,40
 1430 278 1430 278 1447 278 c 2,41,-1
 1502 278 l 2,42,43
 1536 278 1536 278 1536 244 c 2,0,-1
576 1088 m 2,44,-1
 576 1003 l 2,45,46
 576 905 576 905 507 836 c 128,-1,47
 438 767 438 767 342 767 c 2,48,-1
 161 767 l 2,49,50
 127 767 127 767 127 801 c 2,51,-1
 127 863 l 2,52,53
 127 897 127 897 161 897 c 2,54,-1
 342 897 l 2,55,56
 387 897 387 897 417.5 928.5 c 128,-1,57
 448 960 448 960 448 1003 c 2,58,-1
 448 1088 l 2,59,60
 448 1130 448 1130 415 1162 c 128,-1,61
 382 1194 382 1194 342 1194 c 2,62,-1
 246 1194 l 2,63,64
 212 1194 212 1194 212 1228 c 2,65,-1
 212 1287 l 2,66,67
 212 1321 212 1321 246 1321 c 2,68,-1
 342 1321 l 2,69,70
 384 1321 384 1321 416 1354 c 128,-1,71
 448 1387 448 1387 448 1430 c 0,72,73
 448 1470 448 1470 415 1503 c 128,-1,74
 382 1536 382 1536 342 1536 c 2,75,-1
 161 1536 l 2,76,77
 127 1536 127 1536 127 1570 c 2,78,-1
 127 1629 l 2,79,80
 127 1663 127 1663 161 1663 c 2,81,-1
 342 1663 l 2,82,83
 440 1663 440 1663 508 1595.5 c 128,-1,84
 576 1528 576 1528 576 1430 c 0,85,86
 576 1330 576 1330 512 1266 c 0,87,88
 504 1258 504 1258 512 1249 c 0,89,90
 576 1186 576 1186 576 1088 c 2,44,-1
1264 1615 m 2,91,-1
 531 28 l 2,92,93
 516 0 516 0 489 0 c 2,94,-1
 431 0 l 2,95,96
 412 0 412 0 401.5 15 c 128,-1,97
 391 30 391 30 399 49 c 2,98,-1
 1132 1636 l 2,99,100
 1145 1664 1145 1664 1175 1663 c 2,101,-1
 1232 1663 l 2,102,103
 1249 1663 1249 1663 1260.5 1648.5 c 128,-1,104
 1272 1634 1272 1634 1264 1615 c 2,91,-1
EndSplineSet
Validated: 1
EndChar

StartChar: questiondown
Encoding: 191 191 125
Width: 873
VWidth: 2175
GlyphClass: 2
Flags: W
HStem: 0 127<323.706 601.062> 1151 128<382 510>
VStem: 127 128<196.666 443.751> 382 128<653.972 958 1151 1279>
DStem2: 229 552 314 459 0.738612 0.67413<-116.129 247.57>
LayerCount: 2
Fore
SplineSet
127 319 m 0,0,1
 127 459 127 459 229 552 c 2,2,-1
 353 667 l 2,3,4
 383 692 383 692 382 737 c 2,5,-1
 382 924 l 2,6,7
 382 958 382 958 416 958 c 2,8,-1
 476 958 l 2,9,10
 510 958 510 958 510 924 c 2,11,-1
 510 737 l 2,12,13
 510 637 510 637 440 574 c 2,14,-1
 314 459 l 2,15,16
 255 408 255 408 255 319 c 0,17,18
 255 245 255 245 310 183 c 1,19,20
 372 128 372 128 446 127 c 2,21,-1
 478 127 l 2,22,23
 571 127 571 127 631 202 c 0,24,25
 648 223 648 223 673 210 c 2,26,-1
 727 183 l 2,27,28
 746 170 746 170 746 153 c 0,29,30
 746 145 746 145 737 132 c 0,31,32
 697 75 697 75 628 37.5 c 128,-1,33
 559 0 559 0 478 0 c 2,34,-1
 446 0 l 2,35,36
 314 0 314 0 220.5 93.5 c 128,-1,37
 127 187 127 187 127 319 c 0,0,1
416 1279 m 2,38,-1
 476 1279 l 2,39,40
 510 1279 510 1279 510 1245 c 2,41,-1
 510 1185 l 2,42,43
 510 1151 510 1151 476 1151 c 2,44,-1
 416 1151 l 2,45,46
 382 1151 382 1151 382 1185 c 2,47,-1
 382 1245 l 2,48,49
 382 1279 382 1279 416 1279 c 2,38,-1
EndSplineSet
Validated: 33
Colour: ff00
EndChar

StartChar: multiply
Encoding: 215 215 135
Width: 832
VWidth: 2175
GlyphClass: 2
Flags: W
VStem: 127 579
DStem2: 404 550 314 461 0.707107 -0.707107<-280.755 16.901 144.327 442.804> 314 436 404 346 0.706345 0.707868<-271.955 17.3875 144.22 434.109>
LayerCount: 2
Fore
SplineSet
693 635 m 2,0,-1
 518 461 l 2,1,2
 505 446 505 446 518 436 c 2,3,-1
 693 261 l 2,4,5
 718 238 718 238 693 212 c 2,6,-1
 650 170 l 2,7,8
 627 147 627 147 603 170 c 2,9,-1
 429 346 l 2,10,11
 412 357 412 357 404 346 c 2,12,-1
 229 170 l 2,13,14
 208 149 208 149 183 172 c 2,15,-1
 140 215 l 2,16,17
 127 232 127 232 127 238 c 0,18,19
 127 251 127 251 138 261 c 2,20,-1
 314 436 l 2,21,22
 322 447 322 447 314 461 c 2,23,-1
 138 635 l 2,24,25
 115 658 115 658 138 682 c 2,26,-1
 181 724 l 2,27,28
 206 747 206 747 229 724 c 2,29,-1
 404 550 l 2,30,31
 412 537 412 537 429 550 c 2,32,-1
 603 724 l 2,33,34
 626 747 626 747 650 724 c 2,35,-1
 693 682 l 2,36,37
 706 671 706 671 706 658.5 c 128,-1,38
 706 646 706 646 693 635 c 2,0,-1
EndSplineSet
Validated: 1
EndChar

StartChar: Oslash
Encoding: 216 216 136
Width: 1024
VWidth: 2175
GlyphClass: 2
Flags: W
HStem: 0 127<379.955 654.274> 1151 128<369.432 644.345>
VStem: 127 128<309.157 1036.01> 767 130<242.995 977.574>
DStem2: 206 121 266 -57 0.414365 0.910111<-161.31 -17.5847 195.517 1003.83 1215.86 1371.54>
LayerCount: 2
Fore
SplineSet
897 894 m 2,0,-1
 897 385 l 2,1,2
 897 228 897 228 783 114 c 128,-1,3
 669 0 669 0 512 0 c 0,4,5
 421 0 421 0 331 45 c 0,6,7
 312 53 312 53 308 36 c 2,8,-1
 266 -57 l 2,9,10
 249 -91 249 -91 219 -74 c 2,11,-1
 166 -49 l 2,12,13
 153 -45 153 -45 147.5 -30 c 128,-1,14
 142 -15 142 -15 149 0 c 2,15,-1
 206 121 l 2,16,17
 214 136 214 136 204 155 c 0,18,19
 128 255 128 255 127 385 c 2,20,-1
 127 894 l 2,21,22
 127 1051 127 1051 241 1165 c 128,-1,23
 355 1279 355 1279 512 1279 c 0,24,25
 612 1279 612 1279 693 1234 c 0,26,27
 710 1228 710 1228 716 1243 c 2,28,-1
 761 1338 l 2,29,30
 776 1366 776 1366 805 1355 c 2,31,-1
 860 1332 l 2,32,33
 892 1317 892 1317 877 1285 c 2,34,-1
 818 1158 l 2,35,36
 807 1135 807 1135 822 1124 c 0,37,38
 897 1019 897 1019 897 894 c 2,0,-1
255 894 m 2,39,-1
 255 385 l 2,40,41
 255 345 255 345 268 308 c 0,42,43
 281 289 281 289 291 308 c 2,44,-1
 650 1094 l 2,45,46
 652 1107 652 1107 642 1115 c 0,47,48
 580 1151 580 1151 512 1151 c 0,49,50
 408 1151 408 1151 331.5 1074.5 c 128,-1,51
 255 998 255 998 255 894 c 2,39,-1
767 385 m 2,52,-1
 767 894 l 2,53,54
 767 936 767 936 756 969 c 0,55,56
 756 977 756 977 746.5 978 c 128,-1,57
 737 979 737 979 733 971 c 2,58,-1
 376 185 l 2,59,60
 370 172 370 172 382 164 c 0,61,62
 441 128 441 128 512 127 c 0,63,64
 616 127 616 127 691.5 203 c 128,-1,65
 767 279 767 279 767 385 c 2,52,-1
EndSplineSet
Validated: 1
EndChar

StartChar: Thorn
Encoding: 222 222 139
Width: 1024
VWidth: 2175
GlyphClass: 2
Flags: W
HStem: 0 21G<144 238> 257 128<255 657.875> 897 127<255 653.653> 1259 20G<144 238>
VStem: 127 128<0 257 385 897 1024 1279> 767 127<495.194 783.358>
LayerCount: 2
Fore
SplineSet
127 34 m 2,0,-1
 127 1245 l 2,1,2
 127 1279 127 1279 161 1279 c 2,3,-1
 221 1279 l 2,4,5
 255 1279 255 1279 255 1245 c 2,6,-1
 255 1041 l 2,7,8
 255 1024 255 1024 272 1024 c 2,9,-1
 512 1024 l 2,10,11
 669 1024 669 1024 781.5 911.5 c 128,-1,12
 894 799 894 799 894 639.5 c 128,-1,13
 894 480 894 480 781.5 368.5 c 128,-1,14
 669 257 669 257 512 257 c 2,15,-1
 272 257 l 2,16,17
 255 257 255 257 255 240 c 2,18,-1
 255 34 l 2,19,20
 255 0 255 0 221 0 c 2,21,-1
 161 0 l 2,22,23
 127 0 127 0 127 34 c 2,0,-1
255 880 m 2,24,-1
 255 402 l 2,25,26
 255 385 255 385 272 385 c 2,27,-1
 512 385 l 2,28,29
 618 385 618 385 692.5 458 c 128,-1,30
 767 531 767 531 767 639 c 0,31,32
 767 745 767 745 691.5 821 c 128,-1,33
 616 897 616 897 512 897 c 2,34,-1
 272 897 l 2,35,36
 255 897 255 897 255 880 c 2,24,-1
EndSplineSet
Validated: 1
EndChar

StartChar: germandbls
Encoding: 223 223 140
Width: 1024
VWidth: 2175
GlyphClass: 2
Flags: W
HStem: 0 127<576 729.293> 1151 128<274.596 728.84>
VStem: 127 128<0 1131.4> 576 157<753.087 807.745> 767 130<165.676 619.405 925.522 1116.86>
LayerCount: 2
Fore
SplineSet
897 576 m 2,0,-1
 897 255 l 2,1,2
 897 151 897 151 821.5 75.5 c 128,-1,3
 746 0 746 0 639 0 c 2,4,-1
 610 0 l 2,5,6
 576 0 576 0 576 34 c 2,7,-1
 576 93 l 2,8,9
 576 127 576 127 610 127 c 2,10,-1
 639 127 l 2,11,12
 692 127 692 127 730.5 164.5 c 128,-1,13
 769 202 769 202 769 255 c 2,14,-1
 769 576 l 2,15,16
 769 601 769 601 750 620 c 128,-1,17
 731 639 731 639 703 639 c 0,18,19
 652 639 652 639 614 677.5 c 128,-1,20
 576 716 576 716 576 767 c 0,21,22
 576 846 576 846 648 882 c 2,23,-1
 697 909 l 2,24,25
 767 945 767 945 767 1024 c 0,26,27
 767 1077 767 1077 730 1114 c 128,-1,28
 693 1151 693 1151 639 1151 c 2,29,-1
 321 1151 l 2,30,31
 293 1151 293 1151 274 1132 c 128,-1,32
 255 1113 255 1113 255 1088 c 2,33,-1
 255 34 l 2,34,35
 255 0 255 0 221 0 c 2,36,-1
 161 0 l 2,37,38
 127 0 127 0 127 34 c 2,39,-1
 127 1088 l 2,40,41
 127 1167 127 1167 184.5 1223 c 128,-1,42
 242 1279 242 1279 321 1279 c 2,43,-1
 639 1279 l 2,44,45
 745 1279 745 1279 821 1203.5 c 128,-1,46
 897 1128 897 1128 897 1024 c 0,47,48
 897 948 897 948 855.5 885 c 128,-1,49
 814 822 814 822 752 795 c 0,50,51
 733 787 733 787 733 775 c 0,52,53
 733 767 733 767 744 763 c 0,54,55
 808 750 808 750 852.5 697 c 128,-1,56
 897 644 897 644 897 576 c 2,0,-1
EndSplineSet
Validated: 1
EndChar

StartChar: divide
Encoding: 247 247 150
Width: 894
VWidth: 2175
GlyphClass: 2
Flags: W
HStem: 127 128<385 512> 385 127<127 767> 639 128<385 512>
VStem: 385 127<127 255 639 767>
LayerCount: 2
Fore
SplineSet
478 127 m 2,0,-1
 419 127 l 2,1,2
 385 127 385 127 385 161 c 2,3,-1
 385 221 l 2,4,5
 385 255 385 255 419 255 c 2,6,-1
 478 255 l 2,7,8
 512 255 512 255 512 221 c 2,9,-1
 512 161 l 2,10,11
 512 127 512 127 478 127 c 2,0,-1
161 512 m 2,12,-1
 733 512 l 2,13,14
 767 512 767 512 767 478 c 2,15,-1
 767 419 l 2,16,17
 767 385 767 385 733 385 c 2,18,-1
 161 385 l 2,19,20
 127 385 127 385 127 419 c 2,21,-1
 127 478 l 2,22,23
 127 512 127 512 161 512 c 2,12,-1
478 639 m 2,24,-1
 419 639 l 2,25,26
 385 639 385 639 385 673 c 2,27,-1
 385 733 l 2,28,29
 385 767 385 767 419 767 c 2,30,-1
 478 767 l 2,31,32
 512 767 512 767 512 733 c 2,33,-1
 512 673 l 2,34,35
 512 639 512 639 478 639 c 2,24,-1
EndSplineSet
Validated: 1
EndChar

StartChar: oslash
Encoding: 248 248 151
Width: 1024
VWidth: 2175
GlyphClass: 2
Flags: W
HStem: 0 127<379.955 654.274> 1151 128<369.432 644.345>
VStem: 127 128<302.917 1036.01> 767 130<242.995 977.574>
DStem2: 206 121 266 -57 0.414365 0.910111<-161.31 -17.5847 192.887 1003.83 1215.86 1371.54>
LayerCount: 2
Fore
SplineSet
897 894 m 2,0,-1
 897 385 l 2,1,2
 897 228 897 228 783 114 c 128,-1,3
 669 0 669 0 512 0 c 0,4,5
 421 0 421 0 331 45 c 0,6,7
 312 53 312 53 308 36 c 2,8,-1
 266 -57 l 2,9,10
 249 -91 249 -91 219 -74 c 2,11,-1
 166 -49 l 2,12,13
 153 -45 153 -45 147.5 -30 c 128,-1,14
 142 -15 142 -15 149 0 c 2,15,-1
 206 121 l 2,16,17
 214 136 214 136 204 155 c 0,18,19
 128 255 128 255 127 385 c 2,20,-1
 127 894 l 2,21,22
 127 1051 127 1051 241 1165 c 128,-1,23
 355 1279 355 1279 512 1279 c 0,24,25
 612 1279 612 1279 693 1234 c 0,26,27
 710 1228 710 1228 716 1243 c 2,28,-1
 761 1338 l 2,29,30
 772 1370 772 1370 805 1355 c 2,31,-1
 860 1332 l 2,32,33
 892 1317 892 1317 877 1285 c 2,34,-1
 818 1158 l 2,35,36
 807 1135 807 1135 822 1124 c 0,37,38
 897 1019 897 1019 897 894 c 2,0,-1
255 894 m 2,39,-1
 255 385 l 2,40,41
 255 345 255 345 268 308 c 0,42,43
 270 300 270 300 278 300 c 0,44,45
 289 300 289 300 291 308 c 2,46,-1
 650 1094 l 2,47,48
 652 1107 652 1107 642 1115 c 0,49,50
 580 1151 580 1151 512 1151 c 0,51,52
 408 1151 408 1151 331.5 1074.5 c 128,-1,53
 255 998 255 998 255 894 c 2,39,-1
767 385 m 2,54,-1
 767 894 l 2,55,56
 767 936 767 936 756 969 c 0,57,58
 756 977 756 977 746.5 978 c 128,-1,59
 737 979 737 979 733 971 c 2,60,-1
 376 185 l 2,61,62
 370 172 370 172 382 164 c 0,63,64
 441 128 441 128 512 127 c 0,65,66
 616 127 616 127 691.5 203 c 128,-1,67
 767 279 767 279 767 385 c 2,54,-1
EndSplineSet
Validated: 1
EndChar

StartChar: thorn
Encoding: 254 254 155
Width: 896
VWidth: 2175
GlyphClass: 2
Flags: W
HStem: 0 127<255 600.84> 767 127<255 600.84> 1259 20G<144 238>
VStem: 127 128<-382 0 127 767 894 1279> 639 128<165.676 728.324>
LayerCount: 2
Fore
SplineSet
127 -348 m 2,0,-1
 127 1245 l 2,1,2
 127 1279 127 1279 161 1279 c 2,3,-1
 221 1279 l 2,4,5
 255 1279 255 1279 255 1245 c 2,6,-1
 255 911 l 2,7,8
 255 894 255 894 272 894 c 2,9,-1
 512 894 l 2,10,11
 616 894 616 894 691.5 819 c 128,-1,12
 767 744 767 744 767 639 c 2,13,-1
 767 255 l 2,14,15
 767 149 767 149 691.5 74.5 c 128,-1,16
 616 0 616 0 512 0 c 2,17,-1
 272 0 l 2,18,19
 255 0 255 0 255 -15 c 2,20,-1
 255 -348 l 2,21,22
 255 -382 255 -382 221 -382 c 2,23,-1
 161 -382 l 2,24,25
 127 -382 127 -382 127 -348 c 2,0,-1
255 750 m 2,26,-1
 255 144 l 2,27,28
 255 127 255 127 272 127 c 2,29,-1
 512 127 l 2,30,31
 565 127 565 127 602 164.5 c 128,-1,32
 639 202 639 202 639 255 c 2,33,-1
 639 639 l 2,34,35
 639 692 639 692 602 729.5 c 128,-1,36
 565 767 565 767 512 767 c 2,37,-1
 272 767 l 2,38,39
 255 767 255 767 255 750 c 2,26,-1
EndSplineSet
Validated: 1
EndChar

StartChar: dotlessi
Encoding: 305 305 170
Width: 382
VWidth: 2175
GlyphClass: 2
Flags: W
HStem: 0 21G<144 238> 877 20G<144 238>
VStem: 127 128<0 897>
LayerCount: 2
Fore
SplineSet
127 34 m 2,0,-1
 127 863 l 2,1,2
 127 897 127 897 161 897 c 2,3,-1
 221 897 l 2,4,5
 255 897 255 897 255 863 c 2,6,-1
 255 34 l 2,7,8
 255 0 255 0 221 0 c 2,9,-1
 161 0 l 2,10,11
 127 0 127 0 127 34 c 2,0,-1
EndSplineSet
Validated: 1
EndChar

StartChar: Lslash
Encoding: 321 321 171
Width: 1030
VWidth: 2175
GlyphClass: 2
Flags: W
HStem: 0 127<391 903> 1259 20G<278 374>
VStem: 261 130<127 529.39 685 721.312 876.61 1279>
LayerCount: 2
Fore
SplineSet
391 1245 m 2,0,-1
 391 888 l 2,1,2
 391 880 391 880 398.5 876.5 c 128,-1,3
 406 873 406 873 412 880 c 2,4,-1
 421 888 l 2,5,6
 444 918 444 918 470 888 c 2,7,-1
 512 846 l 2,8,9
 535 823 535 823 512 799 c 2,10,-1
 399 686 l 2,11,12
 391 678 391 678 391 663 c 2,13,-1
 391 144 l 2,14,15
 391 127 391 127 408 127 c 2,16,-1
 869 127 l 2,17,18
 903 127 903 127 903 93 c 2,19,-1
 903 34 l 2,20,21
 903 0 903 0 869 0 c 2,22,-1
 295 0 l 2,23,24
 261 0 261 0 261 34 c 2,25,-1
 261 518 l 2,26,27
 261 526 261 526 253.5 529.5 c 128,-1,28
 246 533 246 533 240 527 c 2,29,-1
 229 516 l 2,30,31
 206 493 206 493 181 516 c 2,32,-1
 138 559 l 2,33,34
 127 570 127 570 127 582 c 0,35,36
 127 593 127 593 138 608 c 2,37,-1
 253 720 l 2,38,39
 261 728 261 728 261 744 c 2,40,-1
 261 1245 l 2,41,42
 261 1279 261 1279 295 1279 c 2,43,-1
 357 1279 l 2,44,45
 391 1279 391 1279 391 1245 c 2,0,-1
EndSplineSet
Validated: 1
EndChar

StartChar: lslash
Encoding: 322 322 172
Width: 652
VWidth: 2175
GlyphClass: 2
Flags: W
HStem: 0 127<394.526 518> 1259 20G<280 374>
VStem: 263 128<132.303 529.39 876.61 1279>
LayerCount: 2
Fore
SplineSet
391 1245 m 2,0,-1
 391 888 l 2,1,2
 391 880 391 880 399.5 876.5 c 128,-1,3
 408 873 408 873 412 880 c 2,4,-1
 421 888 l 2,5,6
 446 918 446 918 472 888 c 2,7,-1
 514 846 l 2,8,9
 537 823 537 823 514 799 c 2,10,-1
 399 686 l 2,11,12
 391 673 391 673 391 663 c 2,13,-1
 391 191 l 2,14,15
 391 166 391 166 411 146.5 c 128,-1,16
 431 127 431 127 455 127 c 2,17,-1
 484 127 l 2,18,19
 518 127 518 127 518 93 c 2,20,-1
 518 34 l 2,21,22
 518 0 518 0 484 0 c 2,23,-1
 455 0 l 2,24,25
 376 0 376 0 319.5 57.5 c 128,-1,26
 263 115 263 115 263 191 c 2,27,-1
 263 518 l 2,28,29
 263 526 263 526 256 529.5 c 128,-1,30
 249 533 249 533 242 527 c 2,31,-1
 229 516 l 2,32,33
 208 495 208 495 183 516 c 2,34,-1
 140 559 l 2,35,36
 127 570 127 570 127 582.5 c 128,-1,37
 127 595 127 595 140 608 c 2,38,-1
 255 720 l 2,39,40
 263 733 263 733 263 744 c 2,41,-1
 263 1245 l 2,42,43
 263 1279 263 1279 297 1279 c 2,44,-1
 357 1279 l 2,45,46
 391 1279 391 1279 391 1245 c 2,0,-1
EndSplineSet
Validated: 1
EndChar

StartChar: circumflex
Encoding: 710 710 200
Width: 639
VWidth: 2175
GlyphClass: 2
Flags: W
DStem2: 132 1513 217 1417 0.733268 0.67994<-34.896 140.706> 342 1666 331 1502 0.739342 -0.67333<82.9336 260.246>
LayerCount: 2
Fore
SplineSet
132 1513 m 2,0,-1
 297 1666 l 2,1,2
 318 1683 318 1683 342 1666 c 2,3,-1
 510 1513 l 2,4,5
 533 1490 533 1490 510 1464 c 2,6,-1
 470 1419 l 2,7,8
 447 1394 447 1394 423 1417 c 2,9,-1
 331 1502 l 2,10,11
 318 1513 318 1513 308 1502 c 2,12,-1
 217 1417 l 2,13,14
 196 1394 196 1394 170 1419 c 2,15,-1
 130 1464 l 2,16,17
 107 1492 107 1492 132 1513 c 2,0,-1
EndSplineSet
Validated: 1
EndChar

StartChar: caron
Encoding: 711 711 201
Width: 639
VWidth: 2175
GlyphClass: 2
Flags: W
DStem2: 308 1570 297 1406 0.733268 -0.67994<-156.153 19.4493> 331 1570 510 1559 0.739342 0.67333<-19.6753 157.516>
LayerCount: 2
Fore
SplineSet
217 1653 m 2,0,-1
 308 1570 l 2,1,2
 319 1559 319 1559 331 1570 c 2,3,-1
 423 1653 l 2,4,5
 446 1674 446 1674 470 1651 c 2,6,-1
 512 1608 l 2,7,8
 533 1587 533 1587 510 1559 c 2,9,-1
 342 1406 l 2,10,11
 319 1387 319 1387 297 1406 c 2,12,-1
 132 1559 l 2,13,14
 107 1580 107 1580 130 1608 c 2,15,-1
 170 1651 l 2,16,17
 196 1674 196 1674 217 1653 c 2,0,-1
EndSplineSet
Validated: 1
EndChar

StartChar: uni02CC
Encoding: 716 716 205
Width: 384
VWidth: 2175
GlyphClass: 2
Flags: W
HStem: -255 255<127 257>
VStem: 127 130<-255 0>
LayerCount: 2
Fore
SplineSet
127 -219 m 2,0,-1
 127 -32 l 2,1,2
 127 0 127 0 161 0 c 2,3,-1
 223 0 l 2,4,5
 257 0 257 0 257 -32 c 2,6,-1
 257 -219 l 2,7,8
 257 -255 257 -255 223 -255 c 2,9,-1
 161 -255 l 2,10,11
 127 -255 127 -255 127 -219 c 2,0,-1
EndSplineSet
Validated: 1
EndChar

StartChar: breve
Encoding: 728 728 206
Width: 639
VWidth: 2175
GlyphClass: 2
Flags: W
HStem: 1409 127<272.187 368.114>
VStem: 130 127<1542.38 1663> 382 128<1541.12 1662.97>
LayerCount: 2
Fore
SplineSet
130 1625 m 0,0,1
 130 1663 130 1663 164 1663 c 2,2,-1
 223 1663 l 2,3,4
 253 1663 253 1663 257 1634 c 0,5,6
 274 1536 274 1536 321 1536 c 0,7,8
 366 1536 366 1536 382 1634 c 0,9,10
 386 1664 386 1664 416 1663 c 2,11,-1
 476 1663 l 2,12,13
 510 1663 510 1663 510 1625 c 0,14,15
 497 1534 497 1534 447 1471.5 c 128,-1,16
 397 1409 397 1409 320.5 1409 c 128,-1,17
 244 1409 244 1409 192.5 1472.5 c 128,-1,18
 141 1536 141 1536 130 1625 c 0,0,1
EndSplineSet
Validated: 1
EndChar

StartChar: dotaccent
Encoding: 729 729 207
Width: 384
VWidth: 2175
GlyphClass: 2
Flags: W
HStem: 1534 127<127 257>
VStem: 127 130<1534 1661>
LayerCount: 2
Fore
SplineSet
221 1534 m 2,0,-1
 161 1534 l 2,1,2
 127 1534 127 1534 127 1568 c 2,3,-1
 127 1627 l 2,4,5
 127 1661 127 1661 161 1661 c 2,6,-1
 221 1661 l 2,7,8
 257 1661 257 1661 257 1627 c 2,9,-1
 257 1568 l 2,10,11
 257 1534 257 1534 221 1534 c 2,0,-1
EndSplineSet
Validated: 1
EndChar

StartChar: ring
Encoding: 730 730 208
Width: 639
VWidth: 2175
GlyphClass: 2
Flags: W
HStem: 1279 130<266.045 373.861> 1536 127<258.455 381.085>
VStem: 127 128<1420.56 1532.55> 385 127<1419.87 1530.95>
LayerCount: 2
Fore
SplineSet
127 1472 m 0,0,1
 127 1551 127 1551 183.5 1607 c 128,-1,2
 240 1663 240 1663 318.5 1663 c 128,-1,3
 397 1663 397 1663 454.5 1607 c 128,-1,4
 512 1551 512 1551 512 1472.5 c 128,-1,5
 512 1394 512 1394 455.5 1336.5 c 128,-1,6
 399 1279 399 1279 319 1279 c 0,7,8
 240 1279 240 1279 183.5 1335 c 128,-1,9
 127 1391 127 1391 127 1472 c 0,0,1
319 1409 m 256,10,11
 347 1409 347 1409 366 1427 c 128,-1,12
 385 1445 385 1445 385 1472 c 0,13,14
 385 1495 385 1495 363.5 1515.5 c 128,-1,15
 342 1536 342 1536 318.5 1536 c 128,-1,16
 295 1536 295 1536 275 1516 c 128,-1,17
 255 1496 255 1496 255 1472 c 0,18,19
 255 1447 255 1447 273 1428 c 128,-1,20
 291 1409 291 1409 319 1409 c 256,10,11
EndSplineSet
Validated: 1
EndChar

StartChar: hungarumlaut
Encoding: 733 733 210
Width: 690
VWidth: 2175
GlyphClass: 2
Flags: W
HStem: 1387 283
VStem: 127 430
DStem2: 174 1644 302 1615 0.244794 0.969575<-239.708 35.9358> 429 1644 557 1615 0.244794 0.969575<-239.708 35.9358>
LayerCount: 2
Fore
SplineSet
382 1443 m 2,0,-1
 429 1644 l 2,1,2
 440 1680 440 1680 472 1670 c 2,3,-1
 531 1657 l 2,4,5
 563 1651 563 1651 557 1615 c 2,6,-1
 506 1413 l 2,7,8
 500 1381 500 1381 467 1387 c 2,9,-1
 408 1402 l 2,10,11
 376 1411 376 1411 382 1443 c 2,0,-1
127 1443 m 2,12,-1
 174 1644 l 2,13,14
 185 1680 185 1680 217 1670 c 2,15,-1
 276 1657 l 2,16,17
 308 1651 308 1651 302 1615 c 2,18,-1
 251 1413 l 2,19,20
 245 1381 245 1381 212 1387 c 2,21,-1
 153 1402 l 2,22,23
 121 1411 121 1411 127 1443 c 2,12,-1
EndSplineSet
Validated: 1
EndChar

StartChar: uni0308
Encoding: 776 776 213
Width: 896
VWidth: 2175
GlyphClass: 2
Flags: W
HStem: 1151 128<255 385 512 639>
VStem: 255 130<1151 1279> 512 127<1151 1279>
LayerCount: 2
Fore
SplineSet
289 1279 m 2,0,-1
 351 1279 l 2,1,2
 385 1279 385 1279 385 1245 c 2,3,-1
 385 1185 l 2,4,5
 385 1151 385 1151 351 1151 c 2,6,-1
 289 1151 l 2,7,8
 255 1151 255 1151 255 1185 c 2,9,-1
 255 1245 l 2,10,11
 255 1279 255 1279 289 1279 c 2,0,-1
546 1279 m 2,12,-1
 605 1279 l 2,13,14
 639 1279 639 1279 639 1245 c 2,15,-1
 639 1185 l 2,16,17
 639 1151 639 1151 605 1151 c 2,18,-1
 546 1151 l 2,19,20
 512 1151 512 1151 512 1185 c 2,21,-1
 512 1245 l 2,22,23
 512 1279 512 1279 546 1279 c 2,12,-1
EndSplineSet
Validated: 1
EndChar

StartChar: uni0336
Encoding: 822 822 214
Width: 1425
VWidth: 2175
GlyphClass: 2
Flags: W
HStem: 382 128<127 1298>
LayerCount: 2
Fore
SplineSet
1298 476 m 2,0,-1
 1298 416 l 2,1,2
 1298 382 1298 382 1264 382 c 2,3,-1
 161 382 l 2,4,5
 127 382 127 382 127 416 c 2,6,-1
 127 476 l 2,7,8
 127 510 127 510 161 510 c 2,9,-1
 1264 510 l 2,10,11
 1298 510 1298 510 1298 476 c 2,0,-1
EndSplineSet
Validated: 1
EndChar

StartChar: uni035E
Encoding: 862 862 215
Width: 1699
VWidth: 2175
GlyphClass: 2
Flags: W
HStem: 1536 127<-42 1742>
LayerCount: 2
Fore
SplineSet
-8 1663 m 2,0,-1
 1708 1663 l 2,1,2
 1742 1663 1742 1663 1742 1629 c 2,3,-1
 1742 1570 l 2,4,5
 1742 1536 1742 1536 1708 1536 c 2,6,-1
 -8 1536 l 2,7,8
 -42 1536 -42 1536 -42 1570 c 2,9,-1
 -42 1629 l 2,10,11
 -42 1663 -42 1663 -8 1663 c 2,0,-1
EndSplineSet
Validated: 1
EndChar

StartChar: Gamma
Encoding: 915 915 221
Width: 851
VWidth: 2175
GlyphClass: 2
Flags: W
HStem: 0 21G<144 239> 1151 128<257 767>
VStem: 127 130<0 1151>
LayerCount: 2
Fore
SplineSet
127 34 m 2,0,-1
 127 1245 l 2,1,2
 127 1279 127 1279 161 1279 c 2,3,-1
 733 1279 l 2,4,5
 767 1279 767 1279 767 1245 c 2,6,-1
 767 1185 l 2,7,8
 767 1151 767 1151 733 1151 c 2,9,-1
 274 1151 l 2,10,11
 257 1151 257 1151 257 1134 c 2,12,-1
 257 34 l 2,13,14
 257 0 257 0 221 0 c 2,15,-1
 161 0 l 2,16,17
 127 0 127 0 127 34 c 2,0,-1
EndSplineSet
Validated: 1
EndChar

StartChar: uni0394
Encoding: 916 916 222
Width: 1151
VWidth: 2175
GlyphClass: 2
Flags: W
HStem: 0 127<268.127 886.06> 1259 20G<520 628.5>
DStem2: 130 144 266 151 0.316484 0.948598<35.3354 1002.23> 650 1256 588 1041 0.317251 -0.948342<169.913 1134.35>
LayerCount: 2
Fore
SplineSet
283 127 m 2,0,-1
 869 127 l 2,1,2
 875 127 875 127 881.5 134.5 c 128,-1,3
 888 142 888 142 886 151 c 2,4,-1
 588 1041 l 2,5,6
 584 1052 584 1052 575.5 1052 c 128,-1,7
 567 1052 567 1052 563 1041 c 2,8,-1
 266 151 l 2,9,10
 264 143 264 143 268 135 c 128,-1,11
 272 127 272 127 283 127 c 2,0,-1
1024 130 m 2,12,-1
 1024 34 l 2,13,14
 1024 0 1024 0 990 0 c 2,15,-1
 161 0 l 2,16,17
 127 0 127 0 127 34 c 2,18,-1
 127 130 l 2,19,20
 127 138 127 138 130 144 c 2,21,-1
 501 1256 l 2,22,23
 507 1279 507 1279 533 1279 c 2,24,-1
 618 1279 l 2,25,26
 639 1279 639 1279 650 1256 c 2,27,-1
 1022 144 l 2,28,29
 1024 138 1024 138 1024 130 c 2,12,-1
EndSplineSet
Validated: 1
EndChar

StartChar: Theta
Encoding: 920 920 226
Width: 1024
VWidth: 2175
GlyphClass: 2
Flags: W
HStem: 0 127<369.074 654.274> 639 128<385 639> 1151 128<369.726 654.274>
VStem: 127 130<242.378 1038.65> 385 254<639 767> 767 130<242.995 1038.65>
CounterMasks: 1 1c
LayerCount: 2
Fore
SplineSet
897 897 m 2,0,-1
 897 385 l 2,1,2
 897 228 897 228 783 114 c 128,-1,3
 669 0 669 0 512 0 c 128,-1,4
 355 0 355 0 241 113.5 c 128,-1,5
 127 227 127 227 127 385 c 2,6,-1
 127 897 l 2,7,8
 127 1054 127 1054 241 1166.5 c 128,-1,9
 355 1279 355 1279 512 1279 c 128,-1,10
 669 1279 669 1279 783 1166.5 c 128,-1,11
 897 1054 897 1054 897 897 c 2,0,-1
419 767 m 2,12,-1
 605 767 l 2,13,14
 639 767 639 767 639 733 c 2,15,-1
 639 673 l 2,16,17
 639 639 639 639 605 639 c 2,18,-1
 419 639 l 2,19,20
 385 639 385 639 385 673 c 2,21,-1
 385 733 l 2,22,23
 385 767 385 767 419 767 c 2,12,-1
767 385 m 2,24,-1
 767 897 l 2,25,26
 767 1003 767 1003 691.5 1077 c 128,-1,27
 616 1151 616 1151 512 1151 c 128,-1,28
 408 1151 408 1151 332.5 1077 c 128,-1,29
 257 1003 257 1003 257 897 c 2,30,-1
 257 385 l 2,31,32
 257 279 257 279 331.5 203 c 128,-1,33
 406 127 406 127 512 127 c 0,34,35
 616 127 616 127 691.5 203 c 128,-1,36
 767 279 767 279 767 385 c 2,24,-1
EndSplineSet
Validated: 1
EndChar

StartChar: Lambda
Encoding: 923 923 229
Width: 1142
VWidth: 2175
GlyphClass: 2
Flags: W
HStem: 0 21G<152.5 233 910 990.5> 1259 20G<517 624.5>
DStem2: 130 45 259 34 0.290029 0.957018<-22.084 1057.51> 646 1256 584 1020 0.290029 -0.957018<207.874 1287.01>
LayerCount: 2
Fore
SplineSet
884 34 m 2,0,-1
 584 1020 l 2,1,2
 582 1031 582 1031 571.5 1030.5 c 128,-1,3
 561 1030 561 1030 559 1020 c 2,4,-1
 259 34 l 2,5,6
 251 0 251 0 215 0 c 2,7,-1
 161 0 l 2,8,9
 144 0 144 0 134.5 14 c 128,-1,10
 125 28 125 28 130 45 c 2,11,-1
 497 1256 l 2,12,13
 503 1279 503 1279 531 1279 c 2,14,-1
 614 1279 l 2,15,16
 635 1279 635 1279 646 1256 c 2,17,-1
 1013 45 l 2,18,19
 1017 28 1017 28 1008 14 c 128,-1,20
 999 0 999 0 982 0 c 2,21,-1
 928 0 l 2,22,23
 892 0 892 0 884 34 c 2,0,-1
EndSplineSet
Validated: 1
EndChar

StartChar: Xi
Encoding: 926 926 232
Width: 1024
VWidth: 2175
GlyphClass: 2
Flags: W
HStem: 0 127<127 897> 639 128<257 767> 1151 128<127 897>
LayerCount: 2
Fore
SplineSet
733 639 m 2,0,-1
 291 639 l 2,1,2
 257 639 257 639 257 673 c 2,3,-1
 257 733 l 2,4,5
 257 767 257 767 291 767 c 2,6,-1
 733 767 l 2,7,8
 767 767 767 767 767 733 c 2,9,-1
 767 673 l 2,10,11
 767 639 767 639 733 639 c 2,0,-1
161 127 m 2,12,-1
 863 127 l 2,13,14
 897 127 897 127 897 93 c 2,15,-1
 897 34 l 2,16,17
 897 0 897 0 863 0 c 2,18,-1
 161 0 l 2,19,20
 127 0 127 0 127 34 c 2,21,-1
 127 93 l 2,22,23
 127 127 127 127 161 127 c 2,12,-1
161 1279 m 2,24,-1
 863 1279 l 2,25,26
 897 1279 897 1279 897 1245 c 2,27,-1
 897 1185 l 2,28,29
 897 1151 897 1151 863 1151 c 2,30,-1
 161 1151 l 2,31,32
 127 1151 127 1151 127 1185 c 2,33,-1
 127 1245 l 2,34,35
 127 1279 127 1279 161 1279 c 2,24,-1
EndSplineSet
Validated: 1
EndChar

StartChar: Pi
Encoding: 928 928 234
Width: 1024
VWidth: 2175
GlyphClass: 2
Flags: W
HStem: 0 21G<144 239 784 880> 1151 128<257 767>
VStem: 127 130<0 1151> 767 130<0 1151>
LayerCount: 2
Fore
SplineSet
897 1245 m 2,0,-1
 897 34 l 2,1,2
 897 0 897 0 863 0 c 2,3,-1
 801 0 l 2,4,5
 767 0 767 0 767 34 c 2,6,-1
 767 1134 l 2,7,8
 767 1151 767 1151 750 1151 c 2,9,-1
 274 1151 l 2,10,11
 257 1151 257 1151 257 1134 c 2,12,-1
 257 34 l 2,13,14
 257 0 257 0 221 0 c 2,15,-1
 161 0 l 2,16,17
 127 0 127 0 127 34 c 2,18,-1
 127 1245 l 2,19,20
 127 1279 127 1279 161 1279 c 2,21,-1
 863 1279 l 2,22,23
 897 1279 897 1279 897 1245 c 2,0,-1
EndSplineSet
Validated: 1
EndChar

StartChar: Sigma
Encoding: 931 931 236
Width: 1024
VWidth: 2175
GlyphClass: 2
Flags: W
HStem: 0 127<274.126 897> 1151 128<274.641 897>
DStem2: 272 1132 134 1128 0.448709 -0.893678<-10.3906 515.701> 134 153 272 147 0.448709 0.893678<45.9792 572.345>
LayerCount: 2
Fore
SplineSet
897 1245 m 2,0,-1
 897 1185 l 2,1,2
 897 1151 897 1151 863 1151 c 2,3,-1
 285 1151 l 2,4,5
 279 1151 279 1151 274.5 1145 c 128,-1,6
 270 1139 270 1139 272 1132 c 2,7,-1
 512 654 l 2,8,9
 518 639 518 639 512 625 c 2,10,-1
 272 147 l 2,11,12
 270 141 270 141 274 134 c 128,-1,13
 278 127 278 127 285 127 c 2,14,-1
 863 127 l 2,15,16
 897 127 897 127 897 93 c 2,17,-1
 897 34 l 2,18,19
 897 0 897 0 863 0 c 2,20,-1
 161 0 l 2,21,22
 127 0 127 0 127 34 c 2,23,-1
 127 132 l 2,24,25
 127 140 127 140 134 153 c 2,26,-1
 365 618 l 2,27,28
 378 639 378 639 365 661 c 2,29,-1
 134 1128 l 2,30,31
 128 1139 128 1139 127 1147 c 2,32,-1
 127 1245 l 2,33,34
 127 1279 127 1279 161 1279 c 2,35,-1
 863 1279 l 2,36,37
 897 1279 897 1279 897 1245 c 2,0,-1
EndSplineSet
Validated: 1
EndChar

StartChar: Phi
Encoding: 934 934 239
Width: 1278
VWidth: 2175
GlyphClass: 2
Flags: W
HStem: 0 21G<593 686> 193 128<407.057 576 703 870.586> 958 130<406.92 576 703 869.542> 1259 20G<593 686>
VStem: 127 128<477.023 802.597> 576 127<0 193.793 321.004 957.996 1087.19 1279> 1024 127<475.729 800.695>
LayerCount: 2
Fore
SplineSet
720 1088 m 0,0,1
 896 1088 896 1088 1023.5 955 c 128,-1,2
 1151 822 1151 822 1151 639 c 0,3,4
 1151 450 1151 450 1020 323 c 0,5,6
 890 193 890 193 720 193 c 0,7,8
 703 193 703 193 703 176 c 2,9,-1
 703 34 l 2,10,11
 703 0 703 0 669 0 c 2,12,-1
 610 0 l 2,13,14
 576 0 576 0 576 34 c 2,15,-1
 576 176 l 2,16,17
 576 193 576 193 559 193 c 0,18,19
 385 193 385 193 259 323 c 0,20,21
 127 455 127 455 127 639.5 c 128,-1,22
 127 824 127 824 259 956 c 0,23,24
 386 1088 386 1088 559 1088 c 0,25,26
 576 1088 576 1088 576 1105 c 2,27,-1
 576 1245 l 2,28,29
 576 1279 576 1279 610 1279 c 2,30,-1
 669 1279 l 2,31,32
 703 1279 703 1279 703 1245 c 2,33,-1
 703 1105 l 2,34,35
 703 1088 703 1088 720 1088 c 0,0,1
722 321 m 0,36,37
 845 321 845 321 934.5 416.5 c 128,-1,38
 1024 512 1024 512 1024 639.5 c 128,-1,39
 1024 767 1024 767 931 867 c 0,40,41
 835 958 835 958 722 958 c 0,42,43
 703 958 703 958 703 941 c 2,44,-1
 703 338 l 2,45,46
 703 321 703 321 722 321 c 0,36,37
559 321 m 0,47,48
 576 321 576 321 576 338 c 2,49,-1
 576 941 l 2,50,51
 576 958 576 958 559 958 c 0,52,53
 434 958 434 958 344.5 863.5 c 128,-1,54
 255 769 255 769 255 639 c 0,55,56
 255 512 255 512 344.5 416.5 c 128,-1,57
 434 321 434 321 559 321 c 0,47,48
EndSplineSet
Validated: 1
EndChar

StartChar: Psi
Encoding: 936 936 241
Width: 1151
VWidth: 2175
GlyphClass: 2
Flags: W
HStem: 0 21G<529 622> 1259 20G<144 238 529 622 914 1007>
VStem: 127 128<607.845 1279> 512 127<0 331.649 457.003 1279> 897 127<605.334 1279>
LayerCount: 2
Fore
SplineSet
656 457 m 0,0,1
 758 482 758 482 827.5 569 c 128,-1,2
 897 656 897 656 897 767 c 2,3,-1
 897 1245 l 2,4,5
 897 1279 897 1279 931 1279 c 2,6,-1
 990 1279 l 2,7,8
 1024 1279 1024 1279 1024 1245 c 2,9,-1
 1024 767 l 2,10,11
 1024 582 1024 582 892 450 c 0,12,13
 790 348 790 348 654 327 c 0,14,15
 639 325 639 325 639 310 c 2,16,-1
 639 34 l 2,17,18
 639 0 639 0 605 0 c 2,19,-1
 546 0 l 2,20,21
 512 0 512 0 512 34 c 2,22,-1
 512 310 l 2,23,24
 512 325 512 325 497 327 c 0,25,26
 342 350 342 350 234.5 476.5 c 128,-1,27
 127 603 127 603 127 767 c 2,28,-1
 127 1245 l 2,29,30
 127 1279 127 1279 161 1279 c 2,31,-1
 221 1279 l 2,32,33
 255 1279 255 1279 255 1245 c 2,34,-1
 255 767 l 2,35,36
 255 657 255 657 325 568.5 c 128,-1,37
 395 480 395 480 497 457 c 0,38,39
 512 457 512 457 512 470 c 2,40,-1
 512 1245 l 2,41,42
 512 1279 512 1279 546 1279 c 2,43,-1
 605 1279 l 2,44,45
 639 1279 639 1279 639 1245 c 2,46,-1
 639 470 l 2,47,48
 639 457 639 457 656 457 c 0,0,1
EndSplineSet
Validated: 1
EndChar

StartChar: uni03A9
Encoding: 937 937 242
Width: 1151
VWidth: 2175
GlyphClass: 2
Flags: W
HStem: 0 329<386.559 512 639 766.642> 0 127<191 385 767 960> 1151 126<393.67 752.715>
VStem: 127 128<445.522 1022.35> 385 127<127 233.657> 639 128<127 233.657> 897 127<445.894 1026.72>
LayerCount: 2
Fore
SplineSet
1024 897 m 2,0,-1
 1024 576 l 2,1,2
 1024 463 1024 463 953 370.5 c 128,-1,3
 882 278 882 278 778 234 c 0,4,5
 767 223 767 223 767 217 c 2,6,-1
 767 144 l 2,7,8
 767 127 767 127 784 127 c 2,9,-1
 926 127 l 2,10,11
 960 127 960 127 960 93 c 2,12,-1
 960 34 l 2,13,14
 960 0 960 0 926 0 c 2,15,-1
 673 0 l 2,16,17
 639 0 639 0 639 34 c 2,18,-1
 639 297 l 2,19,20
 639 327 639 327 665 329 c 0,21,22
 761 354 761 354 829 418 c 128,-1,23
 897 482 897 482 897 576 c 2,24,-1
 897 897 l 2,25,26
 897 1007 897 1007 798 1079 c 128,-1,27
 699 1151 699 1151 576 1151 c 0,28,29
 438 1151 438 1151 344 1073 c 0,30,31
 255 994 255 994 255 897 c 2,32,-1
 255 576 l 2,33,34
 255 485 255 485 322 419 c 128,-1,35
 389 353 389 353 487 329 c 0,36,37
 512 327 512 327 512 297 c 2,38,-1
 512 34 l 2,39,40
 512 0 512 0 478 0 c 2,41,-1
 225 0 l 2,42,43
 191 0 191 0 191 34 c 2,44,-1
 191 93 l 2,45,46
 191 127 191 127 225 127 c 2,47,-1
 368 127 l 2,48,49
 385 127 385 127 385 144 c 2,50,-1
 385 217 l 2,51,52
 385 223 385 223 374 234 c 0,53,54
 270 276 270 276 198.5 369.5 c 128,-1,55
 127 463 127 463 127 576 c 2,56,-1
 127 897 l 2,57,58
 127 1054 127 1054 263 1171 c 0,59,60
 388 1277 388 1277 574 1277 c 0,61,62
 763 1277 763 1277 888 1171 c 0,63,64
 1024 1054 1024 1054 1024 897 c 2,0,-1
EndSplineSet
Validated: 1
EndChar

StartChar: alpha
Encoding: 945 945 248
Width: 1024
VWidth: 2175
GlyphClass: 2
Flags: W
HStem: 0 127<288.323 479.095> 767 127<290.916 481.395>
VStem: 127 128<159.719 728.324>
DStem2: 504 212 625 168 0.353588 0.935401<-98.4204 92.1471 250.503 301.999> 625 727 540 591 0.350425 -0.936591<-97.4793 93.5057 251.593 297.962 459.716 744.404> 676 650 873 773 0.423643 0.905829<-9.34658 229.77>
LayerCount: 2
Fore
SplineSet
127 255 m 2,0,-1
 127 639 l 2,1,2
 127 743 127 743 203.5 818.5 c 128,-1,3
 280 894 280 894 385 894 c 0,4,5
 468 894 468 894 531.5 846.5 c 128,-1,6
 595 799 595 799 625 727 c 2,7,-1
 652 650 l 2,8,9
 654 642 654 642 665 642 c 0,10,11
 673 642 673 642 676 650 c 0,12,13
 748 805 748 805 761 829 c 0,14,15
 776 857 776 857 805 846 c 2,16,-1
 858 818 l 2,17,18
 888 801 888 801 873 773 c 0,19,20
 790 609 790 609 735 459 c 0,21,22
 729 446 729 446 735 433 c 0,23,24
 816 214 816 214 907 49 c 0,25,26
 915 32 915 32 903.5 16 c 128,-1,27
 892 0 892 0 877 0 c 2,28,-1
 818 0 l 2,29,30
 788 0 788 0 775 25 c 0,31,32
 722 127 722 127 676 244 c 0,33,34
 672 250 672 250 663 250.5 c 128,-1,35
 654 251 654 251 652 242 c 2,36,-1
 625 168 l 2,37,38
 595 96 595 96 531 48 c 128,-1,39
 467 0 467 0 385 0 c 0,40,41
 279 0 279 0 203 74.5 c 128,-1,42
 127 149 127 149 127 255 c 2,0,-1
255 639 m 2,43,-1
 255 255 l 2,44,45
 255 204 255 204 293 165.5 c 128,-1,46
 331 127 331 127 385 127 c 0,47,48
 425 127 425 127 458 151.5 c 128,-1,49
 491 176 491 176 504 212 c 2,50,-1
 540 306 l 2,51,52
 570 393 570 393 588 436 c 0,53,54
 592 449 592 449 588 459 c 0,55,56
 569 508 569 508 540 591 c 2,57,-1
 504 684 l 2,58,59
 493 718 493 718 460 742.5 c 128,-1,60
 427 767 427 767 385 767 c 0,61,62
 332 767 332 767 293.5 729.5 c 128,-1,63
 255 692 255 692 255 639 c 2,43,-1
EndSplineSet
Validated: 1
EndChar

StartChar: beta
Encoding: 946 946 249
Width: 894
VWidth: 2175
GlyphClass: 2
Flags: W
HStem: -4 127<385 590.5> 635 128<385 517.469> 1145 128<313.099 518.005>
VStem: 127 128<-387 1083.64> 576 127<822.815 1084.8> 639 128<173.5 585.5>
LayerCount: 2
Fore
SplineSet
767 474 m 2,0,-1
 767 283 l 2,1,2
 767 166 767 166 684 79 c 0,3,4
 599 -4 599 -4 480 -4 c 2,5,-1
 419 -4 l 2,6,7
 385 -4 385 -4 385 28 c 2,8,-1
 385 89 l 2,9,10
 385 123 385 123 419 123 c 2,11,-1
 480 123 l 2,12,13
 548 123 548 123 593.5 170 c 128,-1,14
 639 217 639 217 639 283 c 2,15,-1
 639 474 l 2,16,17
 639 542 639 542 592.5 588.5 c 128,-1,18
 546 635 546 635 480 635 c 2,19,-1
 419 635 l 2,20,21
 385 635 385 635 385 669 c 2,22,-1
 385 729 l 2,23,24
 385 763 385 763 419 763 c 0,25,26
 485 763 485 763 530.5 821.5 c 128,-1,27
 576 880 576 880 576 954 c 128,-1,28
 576 1028 576 1028 530 1086.5 c 128,-1,29
 484 1145 484 1145 416 1145 c 0,30,31
 346 1145 346 1145 300.5 1086.5 c 128,-1,32
 255 1028 255 1028 255 954 c 2,33,-1
 255 -353 l 2,34,35
 255 -387 255 -387 221 -387 c 2,36,-1
 161 -387 l 2,37,38
 127 -387 127 -387 127 -353 c 2,39,-1
 127 954 l 2,40,41
 127 1081 127 1081 211 1177 c 128,-1,42
 295 1273 295 1273 416 1273 c 128,-1,43
 537 1273 537 1273 620 1178 c 128,-1,44
 703 1083 703 1083 703 954 c 0,45,46
 703 833 703 833 633 746 c 0,47,48
 620 729 620 729 631 720 c 0,49,50
 637 716 637 716 684 678 c 0,51,52
 767 595 767 595 767 474 c 2,0,-1
EndSplineSet
Validated: 1
EndChar

StartChar: gamma
Encoding: 947 947 250
Width: 896
VWidth: 2175
GlyphClass: 2
Flags: W
HStem: 767 130<127 272.668>
VStem: 348 126<-164.696 184.408> 540 129<-158.324 181.964>
DStem2: 523 627 586 457 0.450773 0.892639<3.61972 254.681>
LayerCount: 2
Fore
SplineSet
127 801 m 2,0,-1
 127 863 l 2,1,2
 127 897 127 897 161 897 c 2,3,-1
 191 897 l 2,4,5
 265 897 265 897 334 837 c 0,6,7
 434 761 434 761 499 625 c 0,8,9
 510 604 510 604 523 627 c 0,10,11
 574 731 574 731 631 833 c 0,12,13
 635 846 635 846 649 849 c 128,-1,14
 663 852 663 852 678 846 c 2,15,-1
 731 816 l 2,16,17
 761 799 761 799 744 771 c 0,18,19
 663 635 663 635 586 457 c 0,20,21
 582 444 582 444 586 431 c 0,22,23
 669 195 669 195 669 2 c 0,24,25
 669 -85 669 -85 650 -172 c 0,26,27
 629 -272 629 -272 563 -357 c 0,28,29
 548 -378 548 -378 512 -378 c 0,30,31
 480 -378 480 -378 463 -357 c 0,32,33
 348 -215 348 -215 348 34 c 0,34,35
 348 198 348 198 440 433 c 0,36,37
 444 439 444 439 440 457 c 0,38,39
 353 661 353 661 255 739 c 0,40,41
 219 767 219 767 191 767 c 2,42,-1
 161 767 l 2,43,44
 127 767 127 767 127 801 c 2,0,-1
474 0 m 0,45,46
 474 -81 474 -81 497 -155 c 0,47,48
 501 -166 501 -166 509.5 -166 c 128,-1,49
 518 -166 518 -166 523 -155 c 0,50,51
 540 -85 540 -85 540 21 c 0,52,53
 540 91 540 91 523 181 c 0,54,55
 519 192 519 192 510 191.5 c 128,-1,56
 501 191 501 191 497 181 c 0,57,58
 474 76 474 76 474 0 c 0,45,46
EndSplineSet
Validated: 1
EndChar

StartChar: delta
Encoding: 948 948 251
Width: 894
VWidth: 2175
GlyphClass: 2
Flags: W
HStem: 0 127<306.887 591.644> 1113 111<495.922 695.704> 1151 128<320.581 622.576>
VStem: 127 128<177.234 716.859> 191 128<1048.87 1149.66> 639 128<172.944 719.902>
LayerCount: 2
Fore
SplineSet
767 639 m 2,0,-1
 767 255 l 2,1,2
 767 147 767 147 670.5 73.5 c 128,-1,3
 574 0 574 0 448 0 c 0,4,5
 321 0 321 0 224 72 c 128,-1,6
 127 144 127 144 127 255 c 2,7,-1
 127 639 l 2,8,9
 127 749 127 749 229 826 c 0,10,11
 280 862 280 862 331 877 c 0,12,13
 337 879 337 879 338 886 c 0,14,15
 338 897 338 897 321 911 c 0,16,17
 306 924 306 924 283 948 c 0,18,19
 192 1039 192 1039 191 1117 c 0,20,21
 191 1151 191 1151 212 1194 c 0,22,23
 259 1279 259 1279 372 1279 c 0,24,25
 504 1279 504 1279 680 1224 c 0,26,27
 710 1213 710 1213 703 1181 c 2,28,-1
 686 1124 l 2,29,30
 678 1092 678 1092 644 1100 c 0,31,32
 640 1102 640 1102 598.5 1113 c 128,-1,33
 557 1124 557 1124 530.5 1131.5 c 128,-1,34
 504 1139 504 1139 460 1145 c 128,-1,35
 416 1151 416 1151 380 1151 c 0,36,37
 318 1151 318 1151 319 1117 c 0,38,39
 319 1096 319 1096 372 1039 c 0,40,41
 400 1011 400 1011 439 980.5 c 128,-1,42
 478 950 478 950 509 929.5 c 128,-1,43
 540 909 540 909 591 876 c 128,-1,44
 642 843 642 843 667 826 c 0,45,46
 767 749 767 749 767 639 c 2,0,-1
639 255 m 2,47,-1
 639 639 l 2,48,49
 639 696 639 696 579.5 731.5 c 128,-1,50
 520 767 520 767 448 767 c 0,51,52
 359 767 359 767 306 724 c 0,53,54
 255 686 255 686 255 639 c 2,55,-1
 255 255 l 2,56,57
 255 208 255 208 306 172 c 0,58,59
 361 127 361 127 448 127 c 0,60,61
 518 127 518 127 578.5 162.5 c 128,-1,62
 639 198 639 198 639 255 c 2,47,-1
EndSplineSet
Validated: 33
EndChar

StartChar: epsilon
Encoding: 949 949 252
Width: 894
VWidth: 2175
GlyphClass: 2
Flags: W
HStem: 0 127<295.16 767> 385 127<295.676 512> 720 121<531.283 733.179> 771 126<285.837 661.194>
VStem: 127 130<161.9 348.088 545.975 741.098>
LayerCount: 2
Fore
SplineSet
767 93 m 2,0,-1
 767 34 l 2,1,2
 767 0 767 0 733 0 c 2,3,-1
 385 0 l 2,4,5
 279 0 279 0 203 75.5 c 128,-1,6
 127 151 127 151 127 255 c 0,7,8
 127 361 127 361 204 438 c 0,9,10
 215 449 215 449 204 459 c 0,11,12
 128 531 128 531 127 639 c 0,13,14
 127 754 127 754 209 825.5 c 128,-1,15
 291 897 291 897 419 897 c 0,16,17
 447 897 447 897 484 892 c 0,18,19
 611 877 611 877 727 841 c 0,20,21
 738 837 738 837 745 824.5 c 128,-1,22
 752 812 752 812 746 797 c 2,23,-1
 724 741 l 2,24,25
 711 707 711 707 680 720 c 0,26,27
 531 771 531 771 416 771 c 0,28,29
 257 771 257 771 257 639 c 0,30,31
 257 584 257 584 294 548 c 128,-1,32
 331 512 331 512 385 512 c 2,33,-1
 478 512 l 2,34,35
 512 512 512 512 512 478 c 2,36,-1
 512 419 l 2,37,38
 512 385 512 385 478 385 c 2,39,-1
 385 385 l 2,40,41
 332 385 332 385 294.5 346.5 c 128,-1,42
 257 308 257 308 257 255 c 128,-1,43
 257 202 257 202 294 164.5 c 128,-1,44
 331 127 331 127 385 127 c 2,45,-1
 733 127 l 2,46,47
 767 127 767 127 767 93 c 2,0,-1
EndSplineSet
Validated: 1
EndChar

StartChar: zeta
Encoding: 950 950 253
Width: 894
VWidth: 2175
GlyphClass: 2
Flags: W
HStem: -382 127<255 600.84> 0 127<272.145 600.84> 960 128<302.374 457> 1259 20G<144 238>
VStem: 130 127<142.061 436.809 1132.09 1279> 639 128<-219.334 -34.2089>
LayerCount: 2
Fore
SplineSet
370 127 m 2,0,-1
 512 127 l 2,1,2
 616 127 616 127 691.5 53 c 128,-1,3
 767 -21 767 -21 767 -125 c 0,4,5
 767 -231 767 -231 691.5 -306.5 c 128,-1,6
 616 -382 616 -382 512 -382 c 2,7,-1
 289 -382 l 2,8,9
 255 -382 255 -382 255 -348 c 2,10,-1
 255 -289 l 2,11,12
 255 -255 255 -255 289 -255 c 2,13,-1
 512 -255 l 2,14,15
 565 -255 565 -255 602 -216.5 c 128,-1,16
 639 -178 639 -178 639 -125 c 128,-1,17
 639 -72 639 -72 602 -36 c 128,-1,18
 565 0 565 0 512 0 c 2,19,-1
 370 0 l 2,20,21
 257 0 257 0 193.5 61.5 c 128,-1,22
 130 123 130 123 130 229 c 0,23,24
 130 344 130 344 178 474 c 0,25,26
 267 714 267 714 465 939 c 0,27,28
 469 943 469 943 466 951.5 c 128,-1,29
 463 960 463 960 457 960 c 2,30,-1
 448 960 l 2,31,32
 318 960 318 960 222.5 1032.5 c 128,-1,33
 127 1105 127 1105 127 1215 c 2,34,-1
 127 1245 l 2,35,36
 127 1279 127 1279 161 1279 c 2,37,-1
 221 1279 l 2,38,39
 255 1279 255 1279 255 1245 c 2,40,-1
 255 1215 l 2,41,42
 255 1158 255 1158 314.5 1123 c 128,-1,43
 374 1088 374 1088 448 1088 c 2,44,-1
 639 1088 l 2,45,46
 707 1088 707 1088 707 1022 c 0,47,48
 707 999 707 999 682 975 c 0,49,50
 565 871 565 871 458 720 c 128,-1,51
 351 569 351 569 297 427 c 0,52,53
 257 323 257 323 257 234 c 0,54,55
 257 127 257 127 370 127 c 2,0,-1
EndSplineSet
Validated: 1
EndChar

StartChar: eta
Encoding: 951 951 254
Width: 1024
VWidth: 2175
GlyphClass: 2
Flags: W
HStem: 0 21G<272 368> 767 130<127 237.466 429.868 720.91>
VStem: 255 130<0 722.884> 767 130<-382 721.09>
LayerCount: 2
Fore
SplineSet
897 639 m 2,0,-1
 897 -348 l 2,1,2
 897 -382 897 -382 860 -382 c 2,3,-1
 801 -382 l 2,4,5
 767 -382 767 -382 767 -348 c 2,6,-1
 767 639 l 2,7,8
 767 696 767 696 707.5 731.5 c 128,-1,9
 648 767 648 767 576 767 c 0,10,11
 502 767 502 767 443.5 732 c 128,-1,12
 385 697 385 697 385 639 c 2,13,-1
 385 34 l 2,14,15
 385 0 385 0 351 0 c 2,16,-1
 289 0 l 2,17,18
 255 0 255 0 255 34 c 2,19,-1
 255 703 l 2,20,21
 255 733 255 733 238 750 c 128,-1,22
 221 767 221 767 191 767 c 2,23,-1
 161 767 l 2,24,25
 127 767 127 767 127 801 c 2,26,-1
 127 863 l 2,27,28
 127 897 127 897 161 897 c 2,29,-1
 191 897 l 2,30,31
 270 897 270 897 336 831 c 0,32,33
 340 825 340 825 346.5 824.5 c 128,-1,34
 353 824 353 824 356 825 c 128,-1,35
 359 826 359 826 366.5 831.5 c 128,-1,36
 374 837 374 837 376 839 c 0,37,38
 463 896 463 896 576 897 c 0,39,40
 699 897 699 897 798 822 c 128,-1,41
 897 747 897 747 897 639 c 2,0,-1
EndSplineSet
Validated: 1
EndChar

StartChar: theta
Encoding: 952 952 255
Width: 896
VWidth: 2175
GlyphClass: 2
Flags: W
HStem: 0 127<301.145 591.644> 639 128<255 639> 1151 128<302.178 592.996>
VStem: 127 128<174.232 639 767 1104.22> 639 128<172.944 639 767 1104.22>
LayerCount: 2
Fore
SplineSet
767 1024 m 2,0,-1
 767 255 l 2,1,2
 767 147 767 147 670.5 73.5 c 128,-1,3
 574 0 574 0 448 0 c 0,4,5
 321 0 321 0 224 72 c 128,-1,6
 127 144 127 144 127 255 c 2,7,-1
 127 1024 l 2,8,9
 127 1134 127 1134 223 1206.5 c 128,-1,10
 319 1279 319 1279 448 1279 c 0,11,12
 573 1279 573 1279 670 1206.5 c 128,-1,13
 767 1134 767 1134 767 1024 c 2,0,-1
639 255 m 2,14,-1
 639 622 l 2,15,16
 639 639 639 639 622 639 c 2,17,-1
 272 639 l 2,18,19
 255 639 255 639 255 622 c 2,20,-1
 255 255 l 2,21,22
 255 198 255 198 315.5 162.5 c 128,-1,23
 376 127 376 127 448 127 c 0,24,25
 518 127 518 127 578.5 162.5 c 128,-1,26
 639 198 639 198 639 255 c 2,14,-1
639 784 m 2,27,-1
 639 1024 l 2,28,29
 639 1081 639 1081 578.5 1116 c 128,-1,30
 518 1151 518 1151 448 1151 c 0,31,32
 376 1151 376 1151 315.5 1116 c 128,-1,33
 255 1081 255 1081 255 1024 c 2,34,-1
 255 784 l 2,35,36
 255 767 255 767 272 767 c 2,37,-1
 622 767 l 2,38,39
 639 767 639 767 639 784 c 2,27,-1
EndSplineSet
Validated: 1
EndChar

StartChar: iota
Encoding: 953 953 256
Width: 703
VWidth: 2175
GlyphClass: 2
Flags: W
HStem: 0 127<271.611 474.922> 877 20G<144 238>
VStem: 127 128<143.181 897>
DStem2: 497 181 440 17 0.923077 0.384615<-153.257 34.6412>
LayerCount: 2
Fore
SplineSet
255 863 m 2,0,-1
 255 223 l 2,1,2
 255 185 255 185 283.5 156 c 128,-1,3
 312 127 312 127 353 127 c 0,4,5
 368 127 368 127 389 136 c 2,6,-1
 497 181 l 2,7,8
 529 196 529 196 542 164 c 2,9,-1
 565 108 l 2,10,11
 580 76 580 76 546 64 c 2,12,-1
 440 17 l 2,13,14
 393 0 393 0 353 0 c 0,15,16
 262 0 262 0 194.5 66 c 128,-1,17
 127 132 127 132 127 223 c 2,18,-1
 127 863 l 2,19,20
 127 897 127 897 161 897 c 2,21,-1
 221 897 l 2,22,23
 255 897 255 897 255 863 c 2,0,-1
EndSplineSet
Validated: 1
EndChar

StartChar: kappa
Encoding: 954 954 257
Width: 1087
VWidth: 2175
GlyphClass: 2
Flags: W
HStem: 0 127<752.006 960> 767 130<127 237.466>
VStem: 257 128<0 294 473.096 749.404>
DStem2: 408 478 565 476 0.599785 0.800161<63.8111 557.161> 563 455 487 342 0.535487 -0.844543<52.9215 413.638>
LayerCount: 2
Fore
SplineSet
960 93 m 2,0,-1
 960 34 l 2,1,2
 960 0 960 0 926 0 c 2,3,-1
 833 0 l 2,4,5
 708 0 708 0 646 98 c 2,6,-1
 487 342 l 2,7,8
 479 359 479 359 465 342 c 2,9,-1
 393 246 l 2,10,11
 385 238 385 238 385 219 c 2,12,-1
 385 34 l 2,13,14
 385 0 385 0 351 0 c 2,15,-1
 291 0 l 2,16,17
 257 0 257 0 257 34 c 2,18,-1
 257 703 l 2,19,20
 257 731 257 731 238 750 c 0,21,22
 221 767 221 767 191 767 c 2,23,-1
 161 767 l 2,24,25
 127 767 127 767 127 801 c 2,26,-1
 127 863 l 2,27,28
 127 897 127 897 161 897 c 2,29,-1
 191 897 l 2,30,31
 270 897 270 897 327.5 839.5 c 128,-1,32
 385 782 385 782 385 703 c 2,33,-1
 385 487 l 2,34,35
 385 476 385 476 392 473 c 128,-1,36
 399 470 399 470 408 478 c 2,37,-1
 705 877 l 2,38,39
 724 896 724 896 744 897 c 2,40,-1
 812 897 l 2,41,42
 831 897 831 897 841.5 877.5 c 128,-1,43
 852 858 852 858 839 841 c 2,44,-1
 565 476 l 2,45,46
 552 463 552 463 563 455 c 2,47,-1
 752 170 l 2,48,49
 780 128 780 128 833 127 c 2,50,-1
 926 127 l 2,51,52
 960 127 960 127 960 93 c 2,0,-1
EndSplineSet
Validated: 1
EndChar

StartChar: lambda
Encoding: 955 955 258
Width: 960
VWidth: 2175
GlyphClass: 2
Flags: W
HStem: 0 127<762.828 833> 1151 128<191 262.866>
DStem2: 121 45 253 32 0.337226 0.941424<-17.644 619.103> 374 1177 255 1130 0.358675 -0.933463<-94.051 419.012 585.631 1195.19>
LayerCount: 2
Fore
SplineSet
833 93 m 2,0,-1
 833 34 l 2,1,2
 833 21 833 21 822.5 10.5 c 128,-1,3
 812 0 812 0 797 0 c 0,4,5
 738 0 738 0 704.5 22.5 c 128,-1,6
 671 45 671 45 650 102 c 2,7,-1
 470 571 l 2,8,9
 466 582 466 582 458 582 c 128,-1,10
 450 582 450 582 446 571 c 2,11,-1
 253 32 l 2,12,13
 240 0 240 0 208 0 c 2,14,-1
 155 0 l 2,15,16
 136 0 136 0 124.5 14 c 128,-1,17
 113 28 113 28 121 45 c 2,18,-1
 385 782 l 2,19,20
 387 784 387 784 385 792 c 2,21,-1
 255 1130 l 2,22,23
 247 1151 247 1151 225 1151 c 0,24,25
 191 1151 191 1151 191 1185 c 2,26,-1
 191 1245 l 2,27,28
 191 1279 191 1279 227 1279 c 0,29,30
 286 1279 286 1279 318.5 1257.5 c 128,-1,31
 351 1236 351 1236 374 1177 c 2,32,-1
 769 149 l 2,33,34
 777 128 777 128 799 127 c 0,35,36
 833 127 833 127 833 93 c 2,0,-1
EndSplineSet
Validated: 1
EndChar

StartChar: uni03BC
Encoding: 956 956 259
Width: 1024
VWidth: 2175
GlyphClass: 2
Flags: W
HStem: 0 127<306.221 592.645 771.479 897> 877 20G<144 238 656 750>
VStem: 127 128<-382 30 177.129 897> 639 128<173.023 897>
LayerCount: 2
Fore
SplineSet
897 93 m 2,0,-1
 897 34 l 2,1,2
 897 0 897 0 863 0 c 2,3,-1
 833 0 l 2,4,5
 752 0 752 0 697 55 c 0,6,7
 695 57 695 57 690.5 62.5 c 128,-1,8
 686 68 686 68 684 70 c 128,-1,9
 682 72 682 72 675.5 74 c 128,-1,10
 669 76 669 76 667 70 c 0,11,12
 574 0 574 0 448 0 c 0,13,14
 352 0 352 0 274 40 c 0,15,16
 255 48 255 48 255 30 c 2,17,-1
 255 -348 l 2,18,19
 255 -382 255 -382 221 -382 c 2,20,-1
 161 -382 l 2,21,22
 127 -382 127 -382 127 -348 c 2,23,-1
 127 863 l 2,24,25
 127 897 127 897 161 897 c 2,26,-1
 221 897 l 2,27,28
 255 897 255 897 255 863 c 2,29,-1
 255 255 l 2,30,31
 255 213 255 213 306 172 c 0,32,33
 363 127 363 127 448 127 c 0,34,35
 518 127 518 127 578.5 162.5 c 128,-1,36
 639 198 639 198 639 255 c 2,37,-1
 639 863 l 2,38,39
 639 897 639 897 673 897 c 2,40,-1
 733 897 l 2,41,42
 767 897 767 897 767 863 c 2,43,-1
 767 191 l 2,44,45
 767 166 767 166 787 146.5 c 128,-1,46
 807 127 807 127 833 127 c 2,47,-1
 863 127 l 2,48,49
 897 127 897 127 897 93 c 2,0,-1
EndSplineSet
Validated: 1
EndChar

StartChar: nu
Encoding: 957 957 260
Width: 896
VWidth: 2175
GlyphClass: 2
Flags: W
HStem: 0 21G<332 446> 767 127<127 191.112>
VStem: 193 126<334.188 768.403> 639 128<490.004 897>
LayerCount: 2
Fore
SplineSet
767 863 m 2,0,-1
 767 703 l 2,1,2
 767 531 767 531 680 357 c 0,3,4
 623 238 623 238 514 85 c 0,5,6
 480 34 480 34 467 15 c 0,7,8
 454 0 454 0 438 0 c 2,9,-1
 346 0 l 2,10,11
 318 0 318 0 312 25 c 0,12,13
 301 70 301 70 276 161 c 0,14,15
 234 297 234 297 215 442 c 0,16,17
 194 567 194 567 193 727 c 0,18,19
 193 767 193 767 161 767 c 0,20,21
 127 767 127 767 127 801 c 2,22,-1
 127 860 l 2,23,24
 127 894 127 894 161 894 c 0,25,26
 233 894 233 894 276 854 c 0,27,28
 318 809 318 809 319 739 c 0,29,30
 319 471 319 471 397 198 c 0,31,32
 401 185 401 185 407.5 179.5 c 128,-1,33
 414 174 414 174 418.5 175 c 128,-1,34
 423 176 423 176 425 181 c 0,35,36
 572 400 572 400 616 548 c 0,37,38
 639 629 639 629 639 703 c 2,39,-1
 639 863 l 2,40,41
 639 897 639 897 673 897 c 2,42,-1
 733 897 l 2,43,44
 767 897 767 897 767 863 c 2,0,-1
EndSplineSet
Validated: 1
EndChar

StartChar: xi
Encoding: 958 958 261
Width: 1024
VWidth: 2175
GlyphClass: 2
Flags: W
HStem: -382 127<385 728.324> 0 127<369.995 729.87> 639 128<423.16 767> 1024 127<423.16 767> 1259 20G<144 239>
VStem: 127 128<241.638 526.066 1189.03 1279> 255 130<802.201 989.326> 767 130<-218.709 -33.4396>
LayerCount: 2
Fore
SplineSet
767 1117 m 2,0,-1
 767 1058 l 2,1,2
 767 1024 767 1024 733 1024 c 2,3,-1
 512 1024 l 2,4,5
 459 1024 459 1024 422 987 c 128,-1,6
 385 950 385 950 385 896.5 c 128,-1,7
 385 843 385 843 422 805 c 128,-1,8
 459 767 459 767 512 767 c 2,9,-1
 733 767 l 2,10,11
 767 767 767 767 767 733 c 2,12,-1
 767 673 l 2,13,14
 767 639 767 639 733 639 c 2,15,-1
 512 639 l 2,16,17
 408 639 408 639 331.5 564 c 128,-1,18
 255 489 255 489 255 384.5 c 128,-1,19
 255 280 255 280 331.5 203.5 c 128,-1,20
 408 127 408 127 512 127 c 2,21,-1
 639 127 l 2,22,23
 743 127 743 127 820 52 c 128,-1,24
 897 -23 897 -23 897 -125 c 0,25,26
 897 -229 897 -229 820.5 -305.5 c 128,-1,27
 744 -382 744 -382 639 -382 c 2,28,-1
 419 -382 l 2,29,30
 385 -382 385 -382 385 -348 c 2,31,-1
 385 -289 l 2,32,33
 385 -255 385 -255 419 -255 c 2,34,-1
 639 -255 l 2,35,36
 692 -255 692 -255 729.5 -216.5 c 128,-1,37
 767 -178 767 -178 767 -125 c 128,-1,38
 767 -72 767 -72 731 -36 c 128,-1,39
 695 0 695 0 639 0 c 2,40,-1
 512 0 l 2,41,42
 355 0 355 0 241 113.5 c 128,-1,43
 127 227 127 227 127 385 c 0,44,45
 127 487 127 487 178 576 c 128,-1,46
 229 665 229 665 312 712 c 0,47,48
 325 720 325 720 317 731 c 0,49,50
 255 803 255 803 255 897 c 0,51,52
 255 959 255 959 291 1026 c 0,53,54
 299 1039 299 1039 285 1043 c 0,55,56
 172 1079 172 1079 132 1241 c 0,57,58
 124 1279 124 1279 164 1279 c 2,59,-1
 225 1279 l 2,60,61
 253 1279 253 1279 259 1253 c 0,62,63
 270 1211 270 1211 305 1181 c 128,-1,64
 340 1151 340 1151 385 1151 c 2,65,-1
 733 1151 l 2,66,67
 767 1151 767 1151 767 1117 c 2,0,-1
EndSplineSet
Validated: 1
EndChar

StartChar: pi
Encoding: 960 960 263
Width: 1151
VWidth: 2175
GlyphClass: 2
Flags: W
HStem: 0 127<191 315.209 836.361 960> 767 130<127 321 448 703 833 936.579>
VStem: 321 127<132.791 767> 703 130<130.168 766.847>
LayerCount: 2
Fore
SplineSet
833 752 m 2,0,-1
 833 191 l 2,1,2
 833 166 833 166 852 146.5 c 128,-1,3
 871 127 871 127 897 127 c 2,4,-1
 926 127 l 2,5,6
 960 127 960 127 960 93 c 2,7,-1
 960 34 l 2,8,9
 960 0 960 0 926 0 c 2,10,-1
 897 0 l 2,11,12
 818 0 818 0 760.5 57.5 c 128,-1,13
 703 115 703 115 703 191 c 2,14,-1
 703 750 l 2,15,16
 703 767 703 767 686 767 c 2,17,-1
 465 767 l 2,18,19
 448 767 448 767 448 750 c 2,20,-1
 448 191 l 2,21,22
 448 112 448 112 392 56 c 128,-1,23
 336 0 336 0 257 0 c 2,24,-1
 225 0 l 2,25,26
 191 0 191 0 191 34 c 2,27,-1
 191 93 l 2,28,29
 191 127 191 127 225 127 c 2,30,-1
 257 127 l 2,31,32
 280 127 280 127 300.5 147.5 c 128,-1,33
 321 168 321 168 321 191 c 2,34,-1
 321 750 l 2,35,36
 321 767 321 767 304 767 c 2,37,-1
 161 767 l 2,38,39
 127 767 127 767 127 801 c 2,40,-1
 127 863 l 2,41,42
 127 897 127 897 161 897 c 2,43,-1
 833 897 l 2,44,45
 882 897 882 897 928 937 c 0,46,47
 956 956 956 956 977 928 c 2,48,-1
 1011 880 l 2,49,50
 1030 850 1030 850 1005 833 c 0,51,52
 924 778 924 778 877 771 c 0,53,54
 864 769 864 769 848 769 c 0,55,56
 833 767 833 767 833 752 c 2,0,-1
EndSplineSet
Validated: 1
EndChar

StartChar: rho
Encoding: 961 961 264
Width: 894
VWidth: 2175
GlyphClass: 2
Flags: W
HStem: 0 127<428.855 589.946> 767 130<304.389 593.379>
VStem: 127 128<177.406 716.438> 317 129<-375.49 0.948669> 639 128<172.944 721.09>
LayerCount: 2
Fore
SplineSet
448 0 m 2,0,-1
 433 0 l 2,1,2
 414 0 414 0 421 -15 c 0,3,4
 446 -94 446 -94 446 -189 c 0,5,6
 446 -276 446 -276 427 -355 c 0,7,8
 425 -383 425 -383 395 -382 c 2,9,-1
 334 -382 l 2,10,11
 319 -382 319 -382 308 -369.5 c 128,-1,12
 297 -357 297 -357 300 -340 c 0,13,14
 317 -255 317 -255 317 -191 c 0,15,16
 317 -21 317 -21 212 83 c 1,17,18
 127 153 127 153 127 255 c 2,19,-1
 127 639 l 2,20,21
 127 749 127 749 224 823 c 128,-1,22
 321 897 321 897 448 897 c 0,23,24
 573 897 573 897 670 822.5 c 128,-1,25
 767 748 767 748 767 639 c 2,26,-1
 767 255 l 2,27,28
 767 147 767 147 670 73.5 c 128,-1,29
 573 0 573 0 448 0 c 2,0,-1
448 127 m 0,30,31
 518 127 518 127 578.5 162.5 c 128,-1,32
 639 198 639 198 639 255 c 2,33,-1
 639 639 l 2,34,35
 639 696 639 696 579.5 731.5 c 128,-1,36
 520 767 520 767 448 767 c 0,37,38
 359 767 359 767 306 724 c 0,39,40
 255 686 255 686 255 639 c 2,41,-1
 255 255 l 2,42,43
 255 208 255 208 306 172 c 0,44,45
 361 127 361 127 448 127 c 0,30,31
EndSplineSet
Validated: 1
EndChar

StartChar: sigma1
Encoding: 962 962 265
Width: 1024
VWidth: 2175
GlyphClass: 2
Flags: W
HStem: -382 127<255 728.324> 0 127<328.923 729.87> 767 130<326 767>
VStem: 127 128<199.211 695.077> 767 130<-218.709 -33.4396>
LayerCount: 2
Fore
SplineSet
767 863 m 2,0,-1
 767 801 l 2,1,2
 767 767 767 767 733 767 c 2,3,-1
 448 767 l 2,4,5
 369 767 369 767 312 710.5 c 128,-1,6
 255 654 255 654 255 576 c 2,7,-1
 255 321 l 2,8,9
 255 242 255 242 312.5 184.5 c 128,-1,10
 370 127 370 127 448 127 c 2,11,-1
 639 127 l 2,12,13
 743 127 743 127 820 52 c 128,-1,14
 897 -23 897 -23 897 -125 c 0,15,16
 897 -229 897 -229 820.5 -305.5 c 128,-1,17
 744 -382 744 -382 639 -382 c 2,18,-1
 289 -382 l 2,19,20
 255 -382 255 -382 255 -348 c 2,21,-1
 255 -289 l 2,22,23
 255 -255 255 -255 289 -255 c 2,24,-1
 639 -255 l 2,25,26
 692 -255 692 -255 729.5 -216.5 c 128,-1,27
 767 -178 767 -178 767 -125 c 128,-1,28
 767 -72 767 -72 731 -36 c 128,-1,29
 695 0 695 0 639 0 c 2,30,-1
 448 0 l 2,31,32
 316 0 316 0 221.5 94.5 c 128,-1,33
 127 189 127 189 127 321 c 2,34,-1
 127 576 l 2,35,36
 127 708 127 708 222 802.5 c 128,-1,37
 317 897 317 897 448 897 c 2,38,-1
 733 897 l 2,39,40
 767 897 767 897 767 863 c 2,0,-1
EndSplineSet
Validated: 1
EndChar

StartChar: sigma
Encoding: 963 963 266
Width: 1024
VWidth: 2175
GlyphClass: 2
Flags: W
HStem: 0 127<303.845 591.644> 767 130<300.969 592.68 735.641 847.062>
VStem: 127 130<174.232 722.434> 639 128<172.944 720.749>
LayerCount: 2
Fore
SplineSet
639 255 m 2,0,-1
 639 639 l 2,1,2
 639 696 639 696 578.5 731.5 c 128,-1,3
 518 767 518 767 446 767 c 128,-1,4
 374 767 374 767 315.5 733 c 128,-1,5
 257 699 257 699 257 639 c 2,6,-1
 257 255 l 2,7,8
 257 206 257 206 308 168 c 0,9,10
 361 128 361 128 448 127 c 0,11,12
 518 127 518 127 578.5 162.5 c 128,-1,13
 639 198 639 198 639 255 c 2,0,-1
767 639 m 2,14,-1
 767 255 l 2,15,16
 767 147 767 147 670.5 73.5 c 128,-1,17
 574 0 574 0 448 0 c 0,18,19
 321 0 321 0 224 72 c 128,-1,20
 127 144 127 144 127 255 c 2,21,-1
 127 639 l 2,22,23
 127 749 127 749 224 823 c 128,-1,24
 321 897 321 897 448 897 c 2,25,-1
 703 897 l 2,26,27
 748 897 748 897 801 937 c 0,28,29
 826 956 826 956 848 928 c 2,30,-1
 884 880 l 2,31,32
 903 850 903 850 860 820 c 0,33,34
 809 784 809 784 746 771 c 0,35,36
 740 771 740 771 735.5 764.5 c 128,-1,37
 731 758 731 758 735 752 c 0,38,39
 767 701 767 701 767 639 c 2,14,-1
EndSplineSet
Validated: 33
EndChar

StartChar: tau
Encoding: 964 964 267
Width: 1087
VWidth: 2175
GlyphClass: 2
Flags: W
HStem: 0 127<608.937 767> 767 130<127 448 576 875.771>
VStem: 448 128<159.719 767>
LayerCount: 2
Fore
SplineSet
767 93 m 2,0,-1
 767 34 l 2,1,2
 767 0 767 0 733 0 c 2,3,-1
 703 0 l 2,4,5
 599 0 599 0 523.5 74.5 c 128,-1,6
 448 149 448 149 448 255 c 2,7,-1
 448 750 l 2,8,9
 448 767 448 767 431 767 c 2,10,-1
 161 767 l 2,11,12
 127 767 127 767 127 801 c 2,13,-1
 127 863 l 2,14,15
 127 897 127 897 161 897 c 2,16,-1
 703 897 l 2,17,18
 807 897 807 897 867 937 c 0,19,20
 892 952 892 952 911 931 c 2,21,-1
 948 884 l 2,22,23
 969 856 969 856 941 833 c 0,24,25
 835 767 835 767 703 767 c 2,26,-1
 593 767 l 2,27,28
 576 767 576 767 576 750 c 2,29,-1
 576 255 l 2,30,31
 576 204 576 204 614 165.5 c 128,-1,32
 652 127 652 127 703 127 c 2,33,-1
 733 127 l 2,34,35
 767 127 767 127 767 93 c 2,0,-1
EndSplineSet
Validated: 1
EndChar

StartChar: upsilon
Encoding: 965 965 268
Width: 894
VWidth: 2175
GlyphClass: 2
Flags: W
HStem: 0 127<342.662 509.437> 767 127<127 189.424>
VStem: 191 130<156.908 767.879> 637 130<304.534 820.895>
LayerCount: 2
Fore
SplineSet
161 894 m 0,0,1
 320 894 320 894 321 735 c 2,2,-1
 321 223 l 2,3,4
 321 185 321 185 348.5 156 c 128,-1,5
 376 127 376 127 416 127 c 0,6,7
 433 127 433 127 450 134 c 0,8,9
 531 162 531 162 584 285 c 128,-1,10
 637 408 637 408 637 537 c 0,11,12
 637 664 637 664 591 826 c 0,13,14
 583 858 583 858 612 869 c 2,15,-1
 667 888 l 2,16,17
 680 892 680 892 693.5 886 c 128,-1,18
 707 880 707 880 712 867 c 0,19,20
 767 680 767 680 767 531 c 0,21,22
 767 469 767 469 758 419 c 0,23,24
 739 285 739 285 665 167 c 128,-1,25
 591 49 591 49 495 15 c 0,26,27
 463 0 463 0 416 0 c 0,28,29
 325 0 325 0 258 66 c 128,-1,30
 191 132 191 132 191 223 c 2,31,-1
 191 735 l 2,32,33
 191 767 191 767 161 767 c 0,34,35
 127 767 127 767 127 801 c 2,36,-1
 127 860 l 2,37,38
 127 894 127 894 161 894 c 0,0,1
EndSplineSet
Validated: 1
EndChar

StartChar: phi
Encoding: 966 966 269
Width: 1151
VWidth: 2175
GlyphClass: 2
Flags: W
HStem: 767 130<654.581 826.16>
VStem: 127 128<254.181 746.207> 512 127<-382 10.6934 136.003 751.149> 897 127<247.39 686.271>
LayerCount: 2
Fore
SplineSet
127 385 m 2,0,-1
 127 408 l 2,1,2
 127 688 127 688 208 869 c 0,3,4
 225 897 225 897 255 886 c 2,5,-1
 308 860 l 2,6,7
 338 843 338 843 325 816 c 0,8,9
 255 663 255 663 255 410 c 2,10,-1
 255 385 l 2,11,12
 255 283 255 283 344 206 c 0,13,14
 408 155 408 155 497 136 c 0,15,16
 512 136 512 136 512 149 c 2,17,-1
 512 671 l 2,18,19
 512 762 512 762 578 829.5 c 128,-1,20
 644 897 644 897 735 897 c 0,21,22
 920 897 920 897 992 680 c 0,23,24
 1024 563 1024 563 1024 378 c 0,25,26
 1024 285 1024 285 990 225.5 c 128,-1,27
 956 166 956 166 888 108 c 0,28,29
 790 25 790 25 654 6 c 0,30,31
 639 4 639 4 639 -8 c 2,32,-1
 639 -348 l 2,33,34
 639 -382 639 -382 605 -382 c 2,35,-1
 546 -382 l 2,36,37
 512 -382 512 -382 512 -348 c 2,38,-1
 512 -8 l 2,39,40
 512 5 512 5 497 6 c 0,41,42
 346 27 346 27 236.5 134 c 128,-1,43
 127 241 127 241 127 385 c 2,0,-1
639 671 m 2,44,-1
 639 149 l 2,45,46
 639 136 639 136 654 136 c 0,47,48
 760 159 760 159 828.5 221 c 128,-1,49
 897 283 897 283 897 385 c 0,50,51
 897 536 897 536 871.5 635.5 c 128,-1,52
 846 735 846 735 765 763 c 0,53,54
 752 767 752 767 735 767 c 0,55,56
 697 767 697 767 668 739 c 128,-1,57
 639 711 639 711 639 671 c 2,44,-1
EndSplineSet
Validated: 1
EndChar

StartChar: chi
Encoding: 967 967 270
Width: 1024
VWidth: 2175
GlyphClass: 2
Flags: W
HStem: -382 129<823.422 897> 767 127<127 200.438>
DStem2: 302 807 189 750 0.453005 -0.891508<-85.0307 434.891 735.124 1261.68> 191 -334 321 -353 0.390865 0.920448<-17.2302 518.781 819.342 1356.27>
LayerCount: 2
Fore
SplineSet
897 -289 m 2,0,-1
 897 -348 l 2,1,2
 897 -361 897 -361 886 -371.5 c 128,-1,3
 875 -382 875 -382 860 -382 c 0,4,5
 805 -382 805 -382 777.5 -367.5 c 128,-1,6
 750 -353 750 -353 720 -295 c 2,7,-1
 529 81 l 2,8,9
 523 92 523 92 516.5 91.5 c 128,-1,10
 510 91 510 91 506 81 c 2,11,-1
 321 -353 l 2,12,13
 308 -383 308 -383 278 -382 c 2,14,-1
 223 -382 l 2,15,16
 204 -382 204 -382 193.5 -367.5 c 128,-1,17
 183 -353 183 -353 191 -334 c 2,18,-1
 436 240 l 2,19,20
 440 251 440 251 433 268 c 2,21,-1
 189 750 l 2,22,23
 183 767 183 767 161 767 c 0,24,25
 127 767 127 767 127 801 c 2,26,-1
 127 860 l 2,27,28
 127 894 127 894 161 894 c 0,29,30
 216 894 216 894 246 875 c 128,-1,31
 276 856 276 856 302 807 c 2,32,-1
 493 433 l 2,33,34
 499 422 499 422 505.5 422.5 c 128,-1,35
 512 423 512 423 516 433 c 2,36,-1
 701 867 l 2,37,38
 712 897 712 897 744 897 c 2,39,-1
 799 897 l 2,40,41
 816 897 816 897 827.5 882 c 128,-1,42
 839 867 839 867 831 848 c 2,43,-1
 588 274 l 2,44,45
 580 259 580 259 588 246 c 2,46,-1
 835 -236 l 2,47,48
 841 -253 841 -253 863 -253 c 0,49,50
 897 -253 897 -253 897 -289 c 2,0,-1
EndSplineSet
Validated: 1
EndChar

StartChar: psi
Encoding: 968 968 271
Width: 1151
VWidth: 2175
GlyphClass: 2
Flags: W
HStem: 877 20G<144 238 914 1007>
VStem: 127 128<257.522 897> 512 127<-382 10.5322 136.056 1151> 897 127<252.738 897>
LayerCount: 2
Fore
SplineSet
1024 863 m 2,0,-1
 1024 385 l 2,1,2
 1024 224 1024 224 888 108 c 0,3,4
 786 23 786 23 654 6 c 0,5,6
 639 4 639 4 639 -8 c 2,7,-1
 639 -348 l 2,8,9
 639 -382 639 -382 605 -382 c 2,10,-1
 546 -382 l 2,11,12
 512 -382 512 -382 512 -348 c 2,13,-1
 512 -8 l 2,14,15
 512 5 512 5 497 6 c 0,16,17
 346 27 346 27 236.5 133.5 c 128,-1,18
 127 240 127 240 127 385 c 2,19,-1
 127 863 l 2,20,21
 127 897 127 897 161 897 c 2,22,-1
 221 897 l 2,23,24
 255 897 255 897 255 863 c 2,25,-1
 255 385 l 2,26,27
 255 294 255 294 326 225.5 c 128,-1,28
 397 157 397 157 497 136 c 0,29,30
 512 136 512 136 512 149 c 2,31,-1
 512 1117 l 2,32,33
 512 1151 512 1151 546 1151 c 2,34,-1
 605 1151 l 2,35,36
 639 1151 639 1151 639 1117 c 2,37,-1
 639 149 l 2,38,39
 639 145 639 145 644.5 139.5 c 128,-1,40
 650 134 650 134 654 136 c 0,41,42
 737 153 737 153 807 206 c 0,43,44
 896 280 896 280 897 385 c 2,45,-1
 897 863 l 2,46,47
 897 897 897 897 931 897 c 2,48,-1
 990 897 l 2,49,50
 1024 897 1024 897 1024 863 c 2,0,-1
EndSplineSet
Validated: 1
EndChar

StartChar: omega
Encoding: 969 969 272
Width: 1278
VWidth: 2175
GlyphClass: 2
Flags: W
HStem: 0 127<307.756 524.144 754.358 972.315>
VStem: 127 128<178.896 744.393> 576 127<178.452 512> 1024 127<181.148 747.938>
LayerCount: 2
Fore
SplineSet
576 289 m 2,0,-1
 576 478 l 2,1,2
 576 512 576 512 610 512 c 2,3,-1
 669 512 l 2,4,5
 703 512 703 512 703 478 c 2,6,-1
 703 289 l 2,7,8
 703 221 703 221 751 174 c 128,-1,9
 799 127 799 127 865 127 c 0,10,11
 937 127 937 127 980.5 179.5 c 128,-1,12
 1024 232 1024 232 1024 314 c 0,13,14
 1024 378 1024 378 1018 531 c 0,15,16
 1012 682 1012 682 954 816 c 0,17,18
 941 846 941 846 971 858 c 2,19,-1
 1024 886 l 2,20,21
 1054 899 1054 899 1071 869 c 0,22,23
 1137 718 1137 718 1143 548 c 0,24,25
 1151 401 1151 401 1151 312 c 0,26,27
 1145 161 1145 161 1066 85 c 0,28,29
 983 0 983 0 865 0 c 0,30,31
 740 0 740 0 661 85 c 0,32,33
 642 106 642 106 620 85 c 0,34,35
 535 0 535 0 416 0 c 0,36,37
 286 0 286 0 206.5 89 c 128,-1,38
 127 178 127 178 127 312 c 0,39,40
 127 437 127 437 134 548 c 0,41,42
 145 722 145 722 208 869 c 0,43,44
 221 899 221 899 255 886 c 2,45,-1
 308 858 l 2,46,47
 336 845 336 845 325 816 c 0,48,49
 270 684 270 684 259 531 c 0,50,51
 255 429 255 429 255 314 c 0,52,53
 255 216 255 216 304 174 c 0,54,55
 351 127 351 127 416 127 c 0,56,57
 480 127 480 127 528 175 c 128,-1,58
 576 223 576 223 576 289 c 2,0,-1
EndSplineSet
Validated: 1
EndChar

StartChar: theta1
Encoding: 977 977 279
Width: 1215
VWidth: 2175
GlyphClass: 2
Flags: W
HStem: 0 127<655.041 816.2> 385 127<255.104 338.726> 639 128<520.275 833 960 1088> 1151 128<517.311 761.273>
VStem: 127 128<255 383.969> 321 127<838.509 1082.43> 833 127<143.312 639 767 1078.84>
DStem2: 663 161 312 372 0.652276 -0.757981<-413.808 71.7744>
LayerCount: 2
Fore
SplineSet
1088 733 m 2,0,-1
 1088 673 l 2,1,2
 1088 639 1088 639 1054 639 c 2,3,-1
 977 639 l 2,4,5
 960 639 960 639 960 622 c 2,6,-1
 960 223 l 2,7,8
 960 132 960 132 893 66 c 128,-1,9
 826 0 826 0 735 0 c 0,10,11
 633 0 633 0 565 79 c 2,12,-1
 312 372 l 2,13,14
 301 385 301 385 288.5 385 c 128,-1,15
 276 385 276 385 265.5 375 c 128,-1,16
 255 365 255 365 255 353 c 2,17,-1
 255 289 l 2,18,19
 255 255 255 255 221 255 c 2,20,-1
 161 255 l 2,21,22
 127 255 127 255 127 289 c 2,23,-1
 127 353 l 2,24,25
 127 417 127 417 175 464.5 c 128,-1,26
 223 512 223 512 289 512 c 0,27,28
 361 512 361 512 410 455 c 2,29,-1
 663 161 l 2,30,31
 688 127 688 127 735 127 c 0,32,33
 775 127 775 127 804 156 c 128,-1,34
 833 185 833 185 833 223 c 2,35,-1
 833 622 l 2,36,37
 833 639 833 639 816 639 c 2,38,-1
 639 639 l 2,39,40
 507 639 507 639 414 732.5 c 128,-1,41
 321 826 321 826 321 960 c 0,42,43
 321 1092 321 1092 414.5 1185.5 c 128,-1,44
 508 1279 508 1279 639.5 1279 c 128,-1,45
 771 1279 771 1279 865.5 1185.5 c 128,-1,46
 960 1092 960 1092 960 960 c 2,47,-1
 960 784 l 2,48,49
 960 767 960 767 977 767 c 2,50,-1
 1054 767 l 2,51,52
 1088 767 1088 767 1088 733 c 2,0,-1
833 784 m 2,53,-1
 833 960 l 2,54,55
 833 1036 833 1036 775.5 1093.5 c 128,-1,56
 718 1151 718 1151 639.5 1151 c 128,-1,57
 561 1151 561 1151 504.5 1095 c 128,-1,58
 448 1039 448 1039 448 960.5 c 128,-1,59
 448 882 448 882 504.5 824.5 c 128,-1,60
 561 767 561 767 639 767 c 2,61,-1
 816 767 l 2,62,63
 820 767 820 767 826.5 772.5 c 128,-1,64
 833 778 833 778 833 784 c 2,53,-1
EndSplineSet
Validated: 1
EndChar

StartChar: uni0409
Encoding: 1033 1033 288
Width: 1650
VWidth: 2175
GlyphClass: 2
Flags: W
HStem: 0 127<886 1282.89> 639 128<886 1282.89> 1151 128<498.742 756>
VStem: 374 125<783.652 1151> 756 130<127 639 767 1151> 1398 127<241.571 526.872>
LayerCount: 2
Fore
SplineSet
886 1245 m 2,0,-1
 886 784 l 2,1,2
 886 767 886 767 903 767 c 2,3,-1
 1141 767 l 2,4,5
 1298 767 1298 767 1411.5 654.5 c 128,-1,6
 1525 542 1525 542 1525 384.5 c 128,-1,7
 1525 227 1525 227 1411.5 113.5 c 128,-1,8
 1298 0 1298 0 1141 0 c 2,9,-1
 790 0 l 2,10,11
 756 0 756 0 756 34 c 2,12,-1
 756 1134 l 2,13,14
 756 1151 756 1151 739 1151 c 2,15,-1
 516 1151 l 2,16,17
 499 1151 499 1151 499 1134 c 0,18,19
 499 919 499 919 433 586 c 1,20,21
 367 297 367 297 261 30 c 0,22,23
 248 0 248 0 219 0 c 2,24,-1
 164 0 l 2,25,26
 145 0 145 0 134 14 c 128,-1,27
 123 28 123 28 132 47 c 0,28,29
 251 344 251 344 312.5 629 c 128,-1,30
 374 914 374 914 374 1245 c 0,31,32
 374 1279 374 1279 408 1279 c 2,33,-1
 852 1279 l 2,34,35
 886 1279 886 1279 886 1245 c 2,0,-1
886 622 m 2,36,-1
 886 144 l 2,37,38
 886 127 886 127 903 127 c 2,39,-1
 1141 127 l 2,40,41
 1245 127 1245 127 1321.5 203.5 c 128,-1,42
 1398 280 1398 280 1398 384.5 c 128,-1,43
 1398 489 1398 489 1321.5 564 c 128,-1,44
 1245 639 1245 639 1141 639 c 2,45,-1
 903 639 l 2,46,47
 886 639 886 639 886 622 c 2,36,-1
EndSplineSet
Validated: 1
EndChar

StartChar: uni040A
Encoding: 1034 1034 289
Width: 1663
VWidth: 2175
GlyphClass: 2
Flags: W
HStem: 0 127<897 1293.62> 639 128<255 767 897 1296.38> 1259 20G<144 238 784 880>
VStem: 127 128<0 639 767 1279> 767 130<127 639 767 1279> 1409 127<240.933 526.885>
LayerCount: 2
Fore
SplineSet
897 1245 m 2,0,-1
 897 784 l 2,1,2
 897 767 897 767 914 767 c 2,3,-1
 1151 767 l 2,4,5
 1308 767 1308 767 1422 654.5 c 128,-1,6
 1536 542 1536 542 1536 384.5 c 128,-1,7
 1536 227 1536 227 1422.5 113.5 c 128,-1,8
 1309 0 1309 0 1151 0 c 2,9,-1
 801 0 l 2,10,11
 767 0 767 0 767 34 c 2,12,-1
 767 622 l 2,13,14
 767 639 767 639 750 639 c 2,15,-1
 272 639 l 2,16,17
 255 639 255 639 255 622 c 2,18,-1
 255 34 l 2,19,20
 255 0 255 0 221 0 c 2,21,-1
 161 0 l 2,22,23
 127 0 127 0 127 34 c 2,24,-1
 127 1245 l 2,25,26
 127 1279 127 1279 161 1279 c 2,27,-1
 221 1279 l 2,28,29
 255 1279 255 1279 255 1245 c 2,30,-1
 255 784 l 2,31,32
 255 767 255 767 272 767 c 2,33,-1
 750 767 l 2,34,35
 767 767 767 767 767 784 c 2,36,-1
 767 1245 l 2,37,38
 767 1279 767 1279 801 1279 c 2,39,-1
 863 1279 l 2,40,41
 897 1279 897 1279 897 1245 c 2,0,-1
897 622 m 2,42,-1
 897 144 l 2,43,44
 897 127 897 127 914 127 c 2,45,-1
 1151 127 l 2,46,47
 1257 127 1257 127 1333 202.5 c 128,-1,48
 1409 278 1409 278 1409 385 c 0,49,50
 1409 489 1409 489 1333.5 564 c 128,-1,51
 1258 639 1258 639 1151 639 c 2,52,-1
 914 639 l 2,53,54
 897 639 897 639 897 622 c 2,42,-1
EndSplineSet
Validated: 1
EndChar

StartChar: uni0411
Encoding: 1041 1041 292
Width: 1024
VWidth: 2175
GlyphClass: 2
Flags: W
HStem: 0 127<255 654.005> 639 128<255 654.005> 1151 128<255 767>
VStem: 127 128<127 639 767 1151> 767 130<240.933 526.885>
LayerCount: 2
Fore
SplineSet
767 1245 m 2,0,-1
 767 1185 l 2,1,2
 767 1151 767 1151 733 1151 c 2,3,-1
 272 1151 l 2,4,5
 255 1151 255 1151 255 1134 c 2,6,-1
 255 784 l 2,7,8
 255 767 255 767 272 767 c 2,9,-1
 512 767 l 2,10,11
 669 767 669 767 783 654.5 c 128,-1,12
 897 542 897 542 897 384.5 c 128,-1,13
 897 227 897 227 783 113.5 c 128,-1,14
 669 0 669 0 512 0 c 2,15,-1
 161 0 l 2,16,17
 127 0 127 0 127 34 c 2,18,-1
 127 1245 l 2,19,20
 127 1279 127 1279 161 1279 c 2,21,-1
 733 1279 l 2,22,23
 767 1279 767 1279 767 1245 c 2,0,-1
255 622 m 2,24,-1
 255 144 l 2,25,26
 255 127 255 127 272 127 c 2,27,-1
 512 127 l 2,28,29
 616 127 616 127 691.5 202.5 c 128,-1,30
 767 278 767 278 767 385 c 0,31,32
 767 489 767 489 691.5 564 c 128,-1,33
 616 639 616 639 512 639 c 2,34,-1
 272 639 l 2,35,36
 255 639 255 639 255 622 c 2,24,-1
EndSplineSet
Validated: 1
EndChar

StartChar: uni0414
Encoding: 1044 1044 295
Width: 1151
VWidth: 2175
GlyphClass: 2
Flags: W
HStem: -125 252<127 254.797 897 1024> 0 127<255 275.715 409.157 767> 1151 128<510.942 767>
VStem: 127 128<-125 0> 372 140<653.178 1151> 767 130<127 1151> 897 127<-125 0>
DStem2: 276 155 406 149 0.136584 0.990628<-2.44164 827.869>
LayerCount: 2
Fore
SplineSet
1024 93 m 2,0,-1
 1024 -91 l 2,1,2
 1024 -125 1024 -125 990 -125 c 2,3,-1
 931 -125 l 2,4,5
 897 -125 897 -125 897 -91 c 2,6,-1
 897 -15 l 2,7,8
 897 0 897 0 880 0 c 2,9,-1
 272 0 l 2,10,11
 255 0 255 0 255 -15 c 2,12,-1
 255 -91 l 2,13,14
 255 -125 255 -125 221 -125 c 2,15,-1
 161 -125 l 2,16,17
 127 -125 127 -125 127 -91 c 2,18,-1
 127 93 l 2,19,20
 127 127 127 127 161 127 c 2,21,-1
 242 127 l 2,22,23
 267 127 267 127 276 155 c 0,24,25
 308 306 308 306 336.5 513 c 128,-1,26
 365 720 365 720 372 854 c 0,27,28
 380 1037 380 1037 385 1245 c 0,29,30
 385 1279 385 1279 419 1279 c 2,31,-1
 863 1279 l 2,32,33
 897 1279 897 1279 897 1245 c 2,34,-1
 897 144 l 2,35,36
 897 127 897 127 914 127 c 2,37,-1
 990 127 l 2,38,39
 1024 127 1024 127 1024 93 c 2,0,-1
767 144 m 2,40,-1
 767 1134 l 2,41,42
 767 1151 767 1151 750 1151 c 2,43,-1
 529 1151 l 2,44,45
 512 1151 512 1151 512 1134 c 0,46,47
 501 837 501 837 478 610 c 0,48,49
 444 340 444 340 406 149 c 0,50,51
 404 141 404 141 409 134 c 128,-1,52
 414 127 414 127 421 127 c 2,53,-1
 750 127 l 2,54,55
 767 127 767 127 767 144 c 2,40,-1
EndSplineSet
Validated: 1
EndChar

